<?xml version="1.0" standalone="no"?>
<!DOCTYPE svg PUBLIC "-//W3C//DTD SVG 1.1//EN" "http://www.w3.org/Graphics/SVG/1.1/DTD/svg11.dtd" >
<svg xmlns="http://www.w3.org/2000/svg" xmlns:xlink="http://www.w3.org/1999/xlink" version="1.1">
<metadata>
Created by FontForge 20161013 at Fri Apr 29 17:51:12 2005
 By ,,,
Copyright 2004 Monotype Imaging, Inc. All rights reserved.
</metadata>
<defs>
<font id="NeoSansPro-UltraItalic" horiz-adv-x="670" >
  <font-face 
    font-family="Neo Sans Pro Ultra"
    font-weight="900"
    font-style="italic"
    font-stretch="normal"
    units-per-em="1000"
    panose-1="2 11 11 4 3 5 4 11 2 4"
    ascent="765"
    descent="-235"
    x-height="590"
    cap-height="743"
    bbox="-165 -217 1721 1037"
    underline-thickness="100"
    underline-position="-280"
    slope="-12"
    unicode-range="U+0020-FB04"
  />
<missing-glyph horiz-adv-x="500" 
d="M12 0v665h475v-665h-475zM88 618l162 -243l161 243h-323zM60 575v-484l40 61l80 120l41 61zM440 575l-162 -242l162 -243v485zM411 48l-161 242l-162 -242h323z" />
    <glyph glyph-name="f_b" unicode="fb" horiz-adv-x="1065" 
d="M591 635h-125q-20 0 -27.5 -5.5t-11.5 -28.5l-2 -11h68q21 0 17 -21l-21 -121q-4 -22 -25 -22h-69l-73 -418q-21 -117 -72.5 -156.5t-152.5 -39.5q-43 0 -94 11q-20 4 -17 21l19 109q3 21 25 21h29q20 0 27.5 5.5t11.5 28.5l73 418l-64 9q-22 2 -18 22l19 112q4 21 26 21
h66l2 13q9 61 27.5 100t49 59t65 27.5t84.5 7.5q99 0 218 -18h171q22 0 18 -21l-29 -163q23 5 55 5q115 0 174 -57.5t59 -151.5q0 -25 -5 -57l-14 -78q-48 -266 -322 -266q-112 0 -232 24q-22 4 -28.5 12t-4.5 23zM870 366q0 50 -48 50q-24 0 -48 -3l-42 -236q28 -3 54 -3
q33 0 46 19.5t21 62.5l14 78q3 17 3 32z" />
    <glyph glyph-name="f_f_b" unicode="ffb" horiz-adv-x="1448" 
d="M1253 366q0 50 -48 50q-24 0 -48 -3l-42 -236q29 -3 54 -3q33 0 46 19.5t21 62.5l14 78q3 17 3 32zM1220 758l-31 -163q23 5 55 5q115 0 174 -57.5t59 -151.5q0 -25 -5 -57l-14 -78q-48 -266 -322 -266q-112 0 -232 24q-22 4 -28.5 12t-4.5 23l104 586h-124
q-20 0 -27.5 -5.5t-11.5 -28.5l-2 -11h68q21 0 17 -21l-21 -121q-4 -22 -25 -22h-69l-73 -418q-21 -117 -72.5 -156.5t-152.5 -39.5q-43 0 -94 11q-20 4 -17 21l19 109q4 21 25 21h29q20 0 27.5 5.5t11.5 28.5l73 418h-161l-73 -418q-21 -117 -72.5 -156.5t-152.5 -39.5
q-43 0 -94 11q-20 4 -17 21l19 109q3 21 25 21h29q20 0 27.5 5.5t11.5 28.5l73 418l-64 9q-22 2 -18 22l19 112q4 21 26 21h66l2 13q9 61 27.5 100t49 59t65 27.5t84.5 7.5q49 0 100 -11q13 -3 16 -7.5t1 -13.5l-19 -109q-4 -21 -25 -21h-35q-20 0 -27.5 -5.5t-11.5 -28.5
l-2 -11h160l2 13q9 61 27.5 100t49 59t65 27.5t84.5 7.5q99 0 218 -18h171q22 0 18 -21z" />
    <glyph glyph-name="f_f_h" unicode="ffh" horiz-adv-x="1463" 
d="M1218 758l-31 -176q77 18 118 18q87 0 132.5 -46.5t45.5 -128.5q0 -33 -5 -59l-61 -344q-4 -22 -25 -22h-180q-22 0 -18 22l60 341q2 14 2 18q0 18 -11 25t-36 7t-53 -6l-68 -385q-1 -7 -3 -11t-7 -7.5t-14 -3.5h-180q-23 0 -19 22l109 613h-124q-20 0 -27.5 -5.5
t-11.5 -28.5l-2 -11h68q21 0 17 -21l-21 -121q-4 -22 -25 -22h-69l-73 -418q-21 -117 -72.5 -156.5t-152.5 -39.5q-43 0 -94 11q-20 4 -17 21l19 109q3 21 25 21h29q20 0 27.5 5.5t11.5 28.5l73 418h-160l-73 -418q-21 -117 -72.5 -156.5t-152.5 -39.5q-43 0 -94 11
q-20 4 -17 21l19 109q3 21 25 21h29q20 0 27.5 5.5t11.5 28.5l73 418l-64 9q-22 2 -18 22l19 112q4 21 26 21h66l2 13q9 61 27.5 100t49 59t65 27.5t84.5 7.5q49 0 100 -11q13 -3 16 -7.5t1 -13.5l-19 -109q-4 -21 -25 -21h-35q-20 0 -27.5 -5.5t-11.5 -28.5l-2 -11h159
l2 13q9 61 27.5 100t49 59t65 27.5t84.5 7.5q99 0 218 -18h170q22 0 18 -21z" />
    <glyph glyph-name="f_f_j" unicode="ffj" horiz-adv-x="1140" 
d="M809 590h361q22 0 18 -21l-102 -580q-19 -109 -74.5 -154t-140.5 -45q-44 0 -105 11q-21 3 -17 22l19 108q4 21 25 21h42q20 0 27 37l77 437h-160l-73 -418q-21 -117 -72.5 -156.5t-152.5 -39.5q-43 0 -94 11q-20 4 -17 21l19 109q3 21 25 21h29q20 0 27.5 5.5t11.5 28.5
l73 418h-160l-73 -418q-21 -117 -72.5 -156.5t-152.5 -39.5q-43 0 -94 11q-20 4 -17 21l19 109q3 21 25 21h29q20 0 27.5 5.5t11.5 28.5l73 418l-64 9q-22 2 -18 22l19 112q4 21 26 21h66l2 13q9 61 27.5 100t49 59t65 27.5t84.5 7.5q49 0 100 -11q13 -3 16 -7.5t1 -13.5
l-19 -109q-4 -21 -25 -21h-35q-20 0 -27.5 -5.5t-11.5 -28.5l-2 -11h159l2 13q9 61 27.5 100t49 59t65 27.5t84.5 7.5q49 0 100 -11q13 -3 16 -7.5t1 -13.5l-19 -109q-4 -21 -25 -21h-35q-20 0 -27.5 -5.5t-11.5 -28.5zM1182 635h-189q-23 0 -19 21l18 102q4 21 26 21h189
q24 0 20 -21l-18 -102q-3 -21 -27 -21z" />
    <glyph glyph-name="f_f_k" unicode="ffk" horiz-adv-x="1480" 
d="M1217 758l-72 -412l152 223q14 21 36 21h204q12 0 14 -10t-5 -16l-206 -264l115 -274q4 -9 -1 -17.5t-17 -8.5h-204q-21 0 -28 22l-77 237l-41 -237q-4 -22 -24 -22h-179q-23 0 -19 22l109 613h-124q-20 0 -27.5 -5.5t-11.5 -28.5l-2 -11h68q21 0 17 -21l-21 -121
q-4 -22 -25 -22h-69l-73 -418q-21 -117 -72.5 -156.5t-152.5 -39.5q-43 0 -94 11q-20 4 -17 21l19 109q3 21 25 21h29q20 0 27.5 5.5t11.5 28.5l73 418h-160l-73 -418q-21 -117 -72.5 -156.5t-152.5 -39.5q-43 0 -94 11q-20 4 -17 21l19 109q3 21 25 21h29q20 0 27.5 5.5
t11.5 28.5l73 418l-64 9q-22 2 -18 22l19 112q4 21 26 21h66l2 13q9 61 27.5 100t49 59t65 27.5t84.5 7.5q49 0 100 -11q13 -3 16 -7.5t1 -13.5l-19 -109q-4 -21 -25 -21h-35q-20 0 -27.5 -5.5t-11.5 -28.5l-2 -11h159l2 13q9 61 27.5 100t49 59t65 27.5t84.5 7.5
q99 0 218 -18h169q22 0 18 -21z" />
    <glyph glyph-name="f_h" unicode="fh" horiz-adv-x="1079" 
d="M834 758l-31 -176q77 18 118 18q87 0 132.5 -46.5t45.5 -128.5q0 -33 -5 -59l-61 -344q-4 -22 -25 -22h-180q-22 0 -18 22l60 341q2 14 2 18q0 18 -11 25t-36 7t-53 -6l-68 -385q-1 -7 -3 -11t-7 -7.5t-14 -3.5h-180q-23 0 -19 22l108 613h-124q-20 0 -27.5 -5.5
t-11.5 -28.5l-1 -11h68q21 0 17 -21l-21 -121q-4 -22 -25 -22h-69l-73 -418q-21 -117 -72.5 -156.5t-152.5 -39.5q-43 0 -94 11q-20 4 -17 21l19 109q3 21 25 21h29q20 0 27.5 5.5t11.5 28.5l73 418l-64 9q-22 2 -18 22l19 112q4 21 26 21h65l2 13q9 61 27.5 100t49 59
t65 27.5t84.5 7.5q99 0 218 -18h171q22 0 18 -21z" />
    <glyph glyph-name="f_j" unicode="fj" horiz-adv-x="756" 
d="M425 590h361q22 0 18 -21l-102 -580q-19 -109 -74.5 -154t-140.5 -45q-44 0 -105 11q-21 3 -17 22l19 108q4 21 25 21h42q20 0 27 37l77 437h-160l-73 -418q-21 -117 -72.5 -156.5t-152.5 -39.5q-43 0 -94 11q-20 4 -17 21l19 109q3 21 25 21h29q20 0 27.5 5.5t11.5 28.5
l73 418l-64 9q-22 2 -18 22l19 112q4 21 26 21h66l2 13q9 61 27.5 100t49 59t65 27.5t84.5 7.5q49 0 100 -11q13 -3 16 -7.5t1 -13.5l-19 -109q-4 -21 -25 -21h-35q-20 0 -27.5 -5.5t-11.5 -28.5zM798 635h-189q-23 0 -19 21l18 102q4 21 26 21h189q24 0 20 -21l-18 -102
q-3 -21 -27 -21z" />
    <glyph glyph-name="f_k" unicode="fk" horiz-adv-x="1098" 
d="M591 635h-125q-20 0 -27.5 -5.5t-11.5 -28.5l-2 -11h68q21 0 17 -21l-21 -121q-4 -22 -25 -22h-69l-73 -418q-21 -117 -72.5 -156.5t-152.5 -39.5q-43 0 -94 11q-20 4 -17 21l19 109q3 21 25 21h29q20 0 27.5 5.5t11.5 28.5l73 418l-64 9q-22 2 -18 22l19 112q4 21 26 21
h66l2 13q9 61 27.5 100t49 59t65 27.5t84.5 7.5q99 0 218 -18h170q23 0 19 -21l-72 -412l152 223q14 21 36 21h204q12 0 14 -10t-5 -16l-206 -264l115 -274q4 -9 -1 -17.5t-17 -8.5h-204q-21 0 -28 22l-77 237l-41 -237q-4 -22 -24 -22h-179q-23 0 -19 22z" />
    <glyph glyph-name="f_f" unicode="ff" horiz-adv-x="811" 
d="M812 797q49 0 100 -11q13 -3 16 -7.5t1 -13.5l-19 -109q-4 -21 -25 -21h-35q-20 0 -27.5 -5.5t-11.5 -28.5l-2 -11h68q21 0 17 -21l-21 -121q-4 -22 -25 -22h-69l-73 -418q-21 -117 -72.5 -156.5t-152.5 -39.5q-43 0 -94 11q-20 4 -17 21l19 109q3 21 25 21h29
q20 0 27.5 5.5t11.5 28.5l73 418h-160l-73 -418q-21 -117 -72.5 -156.5t-152.5 -39.5q-43 0 -94 11q-20 4 -17 21l19 109q3 21 25 21h29q20 0 27.5 5.5t11.5 28.5l73 418l-64 9q-22 2 -18 22l19 112q4 21 26 21h66l2 13q9 61 27.5 100t49 59t65 27.5t84.5 7.5q49 0 100 -11
q13 -3 16 -7.5t1 -13.5l-19 -109q-4 -21 -25 -21h-35q-20 0 -27.5 -5.5t-11.5 -28.5l-2 -11h159l2 13q9 61 27.5 100t49 59t65 27.5t84.5 7.5z" />
    <glyph glyph-name="fi" unicode="fi" horiz-adv-x="756" 
d="M503 0q-9 0 -14.5 6.5t-4.5 15.5l71 404h-160l-73 -418q-21 -117 -72.5 -156.5t-152.5 -39.5q-43 0 -94 11q-20 4 -17 21l19 109q3 21 25 21h29q20 0 27.5 5.5t11.5 28.5l73 418l-64 9q-22 2 -18 22l19 112q4 21 26 21h66l2 13q9 61 27.5 100t49 59t65 27.5t84.5 7.5
q49 0 100 -11q13 -3 16 -7.5t1 -13.5l-19 -109q-4 -21 -25 -21h-35q-20 0 -27.5 -5.5t-11.5 -28.5l-2 -11h361q22 0 18 -21l-96 -547q-4 -22 -26 -22h-179zM634 779h189q23 0 20 -21l-18 -102q-3 -21 -27 -21h-189q-23 0 -19 21l18 102q4 21 26 21z" />
    <glyph glyph-name="fl" unicode="fl" horiz-adv-x="751" 
d="M817 779q22 0 18 -21l-130 -736q-4 -22 -25 -22h-180q-23 0 -19 22l108 613h-123q-20 0 -27.5 -5.5t-11.5 -28.5l-2 -11h68q21 0 17 -21l-21 -121q-4 -22 -25 -22h-69l-73 -418q-21 -117 -72.5 -156.5t-152.5 -39.5q-43 0 -94 11q-20 4 -17 21l19 109q3 21 25 21h29
q20 0 27.5 5.5t11.5 28.5l73 418l-64 9q-22 2 -18 22l19 112q4 21 26 21h66l2 13q9 61 27.5 100t49 59t65 27.5t84.5 7.5q99 0 218 -18h171z" />
    <glyph glyph-name="f_f_i" unicode="ffi" horiz-adv-x="1140" 
d="M887 0q-9 0 -14.5 6.5t-4.5 15.5l71 404h-160l-73 -418q-21 -117 -72.5 -156.5t-152.5 -39.5q-43 0 -94 11q-20 4 -17 21l19 109q3 21 25 21h29q20 0 27.5 5.5t11.5 28.5l73 418h-160l-73 -418q-21 -117 -72.5 -156.5t-152.5 -39.5q-43 0 -94 11q-20 4 -17 21l19 109
q3 21 25 21h29q20 0 27.5 5.5t11.5 28.5l73 418l-64 9q-22 2 -18 22l19 112q4 21 26 21h66l2 13q9 61 27.5 100t49 59t65 27.5t84.5 7.5q49 0 100 -11q13 -3 16 -7.5t1 -13.5l-19 -109q-4 -21 -25 -21h-35q-20 0 -27.5 -5.5t-11.5 -28.5l-2 -11h159l2 13q9 61 27.5 100
t49 59t65 27.5t84.5 7.5q49 0 100 -11q13 -3 16 -7.5t1 -13.5l-19 -109q-4 -21 -25 -21h-35q-20 0 -27.5 -5.5t-11.5 -28.5l-2 -11h361q22 0 18 -21l-96 -547q-4 -22 -26 -22h-179zM1018 779h189q23 0 20 -21l-18 -102q-3 -21 -27 -21h-189q-23 0 -19 21l18 102q4 21 26 21z
" />
    <glyph glyph-name="f_f_l" unicode="ffl" horiz-adv-x="1135" 
d="M973 635h-123q-20 0 -27.5 -5.5t-11.5 -28.5l-2 -11h68q21 0 17 -21l-21 -121q-4 -22 -25 -22h-69l-73 -418q-21 -117 -72.5 -156.5t-152.5 -39.5q-43 0 -94 11q-20 4 -17 21l19 109q3 21 25 21h29q20 0 27.5 5.5t11.5 28.5l73 418h-160l-73 -418q-21 -117 -72.5 -156.5
t-152.5 -39.5q-43 0 -94 11q-20 4 -17 21l19 109q3 21 25 21h29q20 0 27.5 5.5t11.5 28.5l73 418l-64 9q-22 2 -18 22l19 112q4 21 26 21h66l2 13q9 61 27.5 100t49 59t65 27.5t84.5 7.5q49 0 100 -11q13 -3 16 -7.5t1 -13.5l-19 -109q-4 -21 -25 -21h-35q-20 0 -27.5 -5.5
t-11.5 -28.5l-2 -11h159l2 13q9 61 27.5 100t49 59t65 27.5t84.5 7.5q99 0 218 -18h171q22 0 18 -21l-130 -736q-4 -22 -25 -22h-180q-23 0 -19 22z" />
    <glyph glyph-name=".notdef" horiz-adv-x="500" 
d="M12 0v665h475v-665h-475zM88 618l162 -243l161 243h-323zM60 575v-484l40 61l80 120l41 61zM440 575l-162 -242l162 -243v485zM411 48l-161 242l-162 -242h323z" />
    <glyph glyph-name=".null" horiz-adv-x="0" 
 />
    <glyph glyph-name="nonmarkingreturn" horiz-adv-x="333" 
 />
    <glyph glyph-name="space" unicode=" " horiz-adv-x="230" 
 />
    <glyph glyph-name="exclam" unicode="!" horiz-adv-x="309" 
d="M404 763q0 -1 -0.5 -2.5t-0.5 -2.5l-115 -482q-6 -22 -24 -22h-127q-18 0 -18 19v3l55 482q1 9 8.5 15t16.5 6h187q18 0 18 -16zM292 176v-4l-26 -152q-4 -20 -24 -20h-175q-16 0 -16 16v4l26 152q4 20 24 20h175q16 0 16 -16z" />
    <glyph glyph-name="quotedbl" unicode="&#x22;" horiz-adv-x="547" 
d="M659 770q0 -4 -3 -10l-131 -242q-10 -19 -22 -19h-145q-8 0 -8 7q0 6 3 12l104 242q8 19 23 19h169q10 0 10 -9zM402 770q0 -4 -3 -10l-131 -242q-10 -19 -22 -19h-145q-8 0 -8 7q0 6 3 12l104 242q8 19 23 19h169q10 0 10 -9z" />
    <glyph glyph-name="numbersign" unicode="#" horiz-adv-x="715" 
d="M786 556v-2l-1 -2l-28 -101q-5 -16 -23 -16h-72l-35 -129h73q16 0 16 -13q0 -1 -0.5 -2t-0.5 -2l-29 -101q-5 -16 -23 -16h-72l-40 -153q-6 -19 -21 -19h-149q-14 0 -14 14l1 2v3l40 153h-80l-40 -153q-6 -19 -21 -19h-150q-14 0 -14 14q0 1 0.5 2.5t0.5 2.5l40 153h-69
q-16 0 -16 12l1 2v2l29 101q5 17 23 17h68l35 129h-69q-16 0 -16 12q0 1 0.5 2t0.5 2l28 101q5 17 23 17h67l42 155q6 19 22 19h150q13 0 13 -14v-2q-1 -2 -1 -3l-42 -155h80l42 155q6 19 22 19h149q13 0 13 -13q0 -4 -1 -6l-42 -155h74q16 0 16 -13zM479 435h-80l-35 -129
h80z" />
    <glyph glyph-name="dollar" unicode="$" 
d="M718 706v-1l-26 -149q-4 -20 -21 -20h-1h-1q-156 15 -241 15q-24 0 -24 -19q0 -11 32 -29l128 -75q96 -56 96 -163q0 -18 -3 -36q-33 -187 -240 -230l-18 -101q-4 -20 -24 -20h-148q-16 0 -16 16v3v1l17 97q-54 6 -115 25q-18 7 -18 17v3l26 149q4 20 23 20h2
q174 -17 212 -17q42 0 42 35q0 13 -22 27l-135 87q-86 56 -86 170q0 23 3 39q14 81 59.5 128t140.5 66l16 91q4 20 23 20h148q17 0 17 -17v-3l-15 -86q102 -8 153 -24q16 -5 16 -17v-2z" />
    <glyph glyph-name="percent" unicode="%" horiz-adv-x="896" 
d="M906 282q0 -25 -4 -48l-10 -60q-16 -96 -63 -138t-127 -42q-64 0 -97 35.5t-33 98.5q0 25 4 46l10 60q16 97 63 138.5t127 41.5q64 0 97 -34.5t33 -97.5zM876 734q0 -5 -5 -12l-537 -700q-16 -22 -29 -22h-142q-11 0 -11 11q0 6 4 11l537 700q17 21 31 21h142q10 0 10 -9
zM455 616q0 -25 -4 -48l-10 -60q-16 -96 -63 -138t-127 -42q-64 0 -97 35.5t-33 98.5q0 25 4 46l10 60q16 97 63 138.5t127 41.5q64 0 97 -34.5t33 -97.5zM775 275q0 17 -4.5 22.5t-14.5 5.5q-15 0 -24 -13.5t-16 -55.5l-10 -60q-4 -24 -4 -42q0 -17 4.5 -22.5t14.5 -5.5
q14 0 23.5 14t16.5 56l10 60q4 24 4 41zM324 609q0 17 -4.5 22.5t-14.5 5.5q-15 0 -24 -13.5t-16 -55.5l-10 -60q-4 -24 -4 -42q0 -17 4.5 -22.5t14.5 -5.5q14 0 23.5 14t16.5 56l10 60q4 24 4 41z" />
    <glyph glyph-name="ampersand" unicode="&#x26;" horiz-adv-x="761" 
d="M768 361v-3q-22 -124 -93 -215l89 -114q4 -5 4 -12t-5 -12t-12 -5h-194q-8 0 -16 9l-14 18q-83 -37 -181 -37q-126 0 -200 46.5t-74 136.5q0 85 39 135t127 97l-6 8q-53 71 -53 135q0 58 24 100t65.5 64t88 31.5t101.5 9.5q113 0 169.5 -46t56.5 -113q0 -76 -36.5 -123
t-112.5 -91l-31 -18l71 -91q23 41 30 87q4 20 24 20h123q16 0 16 -17zM479 572q0 32 -43 32q-30 0 -43.5 -13t-13.5 -43q0 -25 18 -49l5 -7l26 14q28 15 39.5 28t11.5 38zM431 153l-89 117l-3 -2q-42 -28 -42 -78q0 -47 66 -47q33 0 68 10z" />
    <glyph glyph-name="quotesingle" unicode="'" horiz-adv-x="240" 
d="M402 770q0 -4 -3 -10l-131 -242q-10 -19 -22 -19h-145q-8 0 -8 7q0 6 3 12l104 242q8 19 23 19h169q10 0 10 -9z" />
    <glyph glyph-name="parenleft" unicode="(" horiz-adv-x="402" 
d="M506 735q0 -7 -8 -18q-149 -208 -184 -434l-3 -19q-12 -72 -12 -159q0 -161 41 -274q2 -4 2 -12q0 -14 -13 -14h-151q-24 0 -32 14q-69 129 -69 302q0 83 10 143l3 19q22 141 73 247t134 199q11 14 36 14h163q10 0 10 -8z" />
    <glyph glyph-name="parenright" unicode=")" horiz-adv-x="402" 
d="M423 421q0 -64 -11 -138l-3 -19q-23 -142 -71.5 -247.5t-130.5 -197.5q-11 -14 -36 -14h-168q-10 0 -10 8q0 10 7 18q150 210 185 433l3 19q13 84 13 160q0 146 -47 274q-2 8 -2 12q0 14 14 14h162q24 0 32 -14q63 -115 63 -308z" />
    <glyph glyph-name="asterisk" unicode="*" horiz-adv-x="480" 
d="M561 549q0 -12 -16 -17l-107 -30l68 -90q6 -8 6 -15q0 -9 -7 -13l-75 -54q-5 -3 -10 -3q-10 0 -17 10l-63 94l-63 -94q-7 -10 -17 -10q-6 0 -10 3l-75 54q-7 4 -7 13q0 7 6 15l68 90l-106 30q-17 5 -17 18q0 3 1 5l29 89q4 11 15 11q2 0 10 -2l106 -37l-3 111v1
q0 21 16 21h94q16 0 16 -21v-1l-2 -111l105 37q8 2 10 2q11 0 15 -11l29 -89q1 -2 1 -6z" />
    <glyph glyph-name="plus" unicode="+" horiz-adv-x="640" 
d="M639 326q0 -16 -20 -16h-142v-141q0 -20 -16 -20h-130q-16 0 -16 20v141h-141q-20 0 -20 16v130q0 16 20 16h141v142q0 20 16 20h130q16 0 16 -20v-142h142q20 0 20 -16v-130z" />
    <glyph glyph-name="comma" unicode="," horiz-adv-x="296" 
d="M297 180q0 -4 -3 -8l-156 -252q-12 -20 -24 -20h-127q-17 0 -17 14q0 4 1 6l114 252q9 20 25 20h173q14 0 14 -12z" />
    <glyph glyph-name="hyphen" unicode="-" horiz-adv-x="262" 
d="M310 359v-3l-21 -118q-4 -20 -24 -20h-192q-16 0 -16 16v4l21 118q4 20 23 20h192q17 0 17 -17z" />
    <glyph glyph-name="period" unicode="." horiz-adv-x="296" 
d="M286 175v-3l-26 -152q-1 -8 -9 -14t-16 -6h-174q-17 0 -17 17v3l26 152q1 8 9 14t16 6h174q17 0 17 -17z" />
    <glyph glyph-name="slash" unicode="/" horiz-adv-x="445" 
d="M562 728q0 -4 -1 -6l-323 -700q-10 -22 -25 -22h-180q-8 0 -14 5t-6 12q0 3 1 5l323 700q10 21 27 21h180q7 0 12.5 -4.5t5.5 -10.5z" />
    <glyph glyph-name="zero" unicode="0" 
d="M708 525q0 -45 -9 -99l-19 -109q-57 -327 -345 -327q-238 0 -238 228q0 45 9 99l19 109q57 327 345 327q238 0 238 -228zM470 501q0 30 -9 40.5t-27 10.5q-26 0 -42.5 -24.5t-29.5 -101.5l-19 -109q-8 -43 -8 -75q0 -30 9 -40.5t27 -10.5q26 0 42.5 24.5t29.5 101.5
l19 109q8 43 8 75z" />
    <glyph glyph-name="one" unicode="1" 
d="M141 199h121l54 311l-126 -39q-9 -3 -13 -3q-9 0 -8 12l30 169q3 14 17 20l194 69q13 5 23 5h140q8 0 13 -6t3 -14l-92 -524h121q8 0 13 -6t4 -14l-28 -159q-4 -20 -24 -20h-477q-8 0 -13.5 6t-4.5 14l28 159q1 8 9 14t16 6z" />
    <glyph glyph-name="two" unicode="2" 
d="M715 588q0 -12 -4 -40q-13 -76 -63 -126t-149 -103q-72 -38 -112 -64.5t-58 -55.5h287q18 0 18 -17v-3l-28 -159q-1 -8 -9 -14t-16 -6h-486q-17 0 -17 17v3l19 110q18 106 78.5 174t157.5 127q20 12 41 24.5t32.5 19t23.5 14t18 11.5t11.5 8.5t7.5 8.5t4 8.5t3 10.5
q0 2 0.5 4.5t0.5 3.5q0 12 -16 17t-63 5q-33 0 -98.5 -5t-96.5 -5h-1q-15 0 -15 16v3v1l20 115q2 12 23 20q119 42 245 42t184 -45t58 -120z" />
    <glyph glyph-name="three" unicode="3" 
d="M711 587q0 -75 -30 -123.5t-97 -86.5q67 -47 67 -130q0 -71 -26 -122.5t-72 -80t-101.5 -41.5t-122.5 -13q-62 0 -130.5 13t-98.5 28q-17 10 -17 17v3l20 116q4 20 24 20h1q25 0 102 -5t112 -5q83 0 83 69q0 43 -50 43h-173q-7 0 -12 5t-5 12v3l23 129q4 20 24 20h161
q35 0 58 17.5t23 51.5q0 39 -63 39q-35 0 -110.5 -5t-100.5 -5h-1q-16 0 -16 16v3v1l20 116q2 9 25 20q36 15 105.5 28t130.5 13q247 0 247 -166z" />
    <glyph glyph-name="four" unicode="4" 
d="M688 727v-4l-71 -404h50q17 0 17 -17v-3l-24 -137q-4 -20 -24 -20h-50l-21 -122q-4 -20 -24 -20h-195q-16 0 -16 16v4l21 122h-268q-16 0 -16 16v4l22 130q3 14 15 28l406 418q5 5 14 5h9h139q16 0 16 -16zM422 481l-157 -162h128z" />
    <glyph glyph-name="five" unicode="5" 
d="M711 724v-1l-25 -147q-4 -20 -24 -20h-272l-21 -81h45q127 0 181.5 -51.5t54.5 -128.5q0 -305 -348 -305q-113 0 -201 37q-18 7 -18 17v3l21 120q4 20 22 20h3q114 -10 160 -10q59 0 88 15t29 65q0 21 -16 31t-56 10h-184q-19 0 -19 19q0 4 1 6l100 400q5 20 24 20h439
q16 0 16 -16v-3z" />
    <glyph glyph-name="six" unicode="6" 
d="M705 703q0 -1 -0.5 -3.5t-0.5 -3.5l-22 -124q-3 -20 -22 -20h-5q-107 14 -184 14q-50 0 -68 -15t-29 -69l-1 -5q45 7 75 7q102 0 160.5 -42t58.5 -132q0 -155 -85 -237.5t-244 -82.5q-117 0 -178 61.5t-61 153.5q0 26 4 49l40 228q47 271 328 271q119 0 216 -31
q18 -6 18 -19zM435 288q0 42 -39 42q-19 0 -49 -3l-13 -73q-4 -23 -4 -42q0 -49 37 -49q68 0 68 125z" />
    <glyph glyph-name="seven" unicode="7" 
d="M733 727v-4l-19 -111q-3 -17 -20 -44l-345 -548q-12 -20 -24 -20h-213q-14 0 -14 7q0 5 5 13l344 536h-230q-17 0 -17 17v3l25 147q1 8 9 14t16 6h467q16 0 16 -16z" />
    <glyph glyph-name="eight" unicode="8" 
d="M723 573q0 -123 -100 -189q51 -48 51 -125q0 -68 -27 -121t-73 -84.5t-103.5 -47.5t-123.5 -16h-12q-123 0 -187.5 57t-64.5 135q0 125 110 202q-48 45 -48 117q0 252 320 252h12q125 0 185.5 -52t60.5 -128zM494 533q0 49 -45 49h-12q-33 0 -50.5 -21.5t-17.5 -57.5
q0 -44 46 -44h12q67 0 67 74zM445 257q0 46 -46 46h-12q-35 0 -53.5 -28.5t-18.5 -66.5q0 -22 12.5 -35t34.5 -13h12q36 0 53.5 29.5t17.5 67.5z" />
    <glyph glyph-name="nine" unicode="9" 
d="M700 538q0 -26 -4 -49l-40 -228q-47 -271 -328 -271q-119 0 -216 31q-18 6 -18 19q0 1 0.5 3.5t0.5 3.5l22 124q3 20 22 20h5q107 -14 184 -14q50 0 68 15t29 69l1 5q-45 -7 -75 -7q-102 0 -160.5 42t-58.5 132q0 155 85 237.5t244 82.5q117 0 178 -61.5t61 -153.5z
M469 531q0 49 -37 49q-68 0 -68 -125q0 -42 39 -42q19 0 49 3l13 73q4 23 4 42z" />
    <glyph glyph-name="colon" unicode=":" horiz-adv-x="296" 
d="M350 534v-3l-27 -152q-1 -8 -9 -14t-16 -6h-174q-17 0 -17 17v3l27 152q4 20 24 20h174q18 0 18 -17zM286 175v-3l-26 -152q-1 -8 -9 -14t-16 -6h-174q-17 0 -17 17v3l26 152q1 8 9 14t16 6h174q17 0 17 -17z" />
    <glyph glyph-name="semicolon" unicode=";" horiz-adv-x="296" 
d="M353 534v-3l-27 -152q-4 -20 -24 -20h-174q-18 0 -18 17v3l27 152q1 8 9 14t16 6h174q17 0 17 -17zM285 180q0 -5 -2 -8l-157 -252q-12 -20 -23 -20h-127q-18 0 -18 15q0 3 1 5l115 252q9 20 24 20h173q14 0 14 -12z" />
    <glyph glyph-name="less" unicode="&#x3c;" horiz-adv-x="640" 
d="M625 145q0 -11 -13 -11h-197q-17 0 -28 10l-236 218q-15 15 -15 29t15 29l236 218q11 10 28 10h197q13 0 13 -11q0 -6 -7 -12l-256 -234l256 -234q7 -6 7 -12z" />
    <glyph glyph-name="equal" unicode="=" horiz-adv-x="640" 
d="M635 468q0 -16 -20 -16h-445q-20 0 -20 16v130q0 16 20 16h445q20 0 20 -16v-130zM635 184q0 -16 -20 -16h-445q-20 0 -20 16v130q0 16 20 16h445q20 0 20 -16v-130z" />
    <glyph glyph-name="greater" unicode="&#x3e;" horiz-adv-x="640" 
d="M648 391q0 -14 -15 -29l-236 -218q-11 -10 -28 -10h-197q-13 0 -13 11q0 6 7 12l256 234l-256 234q-7 6 -7 12q0 11 13 11h197q17 0 28 -10l236 -218q15 -15 15 -29z" />
    <glyph glyph-name="question" unicode="?" horiz-adv-x="500" 
d="M581 644q0 -21 -4 -40q-11 -63 -71 -134l-167 -196q-16 -20 -35 -20h-134q-17 0 -17 17v3l7 40q9 48 20.5 72t46.5 70l63 82q19 24 19 37q0 11 -21 11h-5h-3l-129 -11h-2q-14 0 -14 16v4l25 144q2 12 24 20q80 29 182 29q215 0 215 -144zM340 173v-1l-26 -152
q-1 -8 -9 -14t-16 -6h-174q-7 0 -12 5t-5 12v2v1l26 152q1 8 9 14t16 6h174q7 0 12 -5t5 -12v-2z" />
    <glyph glyph-name="at" unicode="@" horiz-adv-x="792" 
d="M802 391q0 -92 -31 -161t-87.5 -110.5t-129 -62t-160.5 -20.5q-79 0 -131 33.5t-52 100.5q0 11 4 35l22 115q20 101 74.5 139.5t158.5 38.5q62 0 136 -16q28 -5 28 -30q0 -4 -1 -7l-58 -287q66 16 96.5 84t30.5 148q0 89 -50.5 139.5t-158.5 50.5q-133 0 -208.5 -57.5
t-99.5 -180.5l-33 -169q-7 -40 -7 -68q0 -80 51 -113.5t170 -33.5q64 0 166 10h1q7 0 7 -9v-3l-5 -51q-2 -10 -10 -11q-108 -14 -159 -14q-322 0 -322 225q0 34 7 68l36 176q65 318 410 318q79 0 139.5 -23t95.5 -63t52.5 -88t17.5 -103zM468 376q-12 2 -29 2
q-26 0 -36 -11.5t-18 -50.5l-23 -108q-3 -10 -3 -24t8.5 -21.5t18 -9t25.5 -1.5h15z" />
    <glyph glyph-name="A" unicode="A" horiz-adv-x="716" 
d="M699 19q0 -19 -19 -19h-207q-17 0 -17 20l1 112h-152l-37 -112q-7 -20 -25 -20h-209q-13 0 -13 11q0 3 2 9l225 604q27 73 86 101t157 28t146 -28t49 -101l13 -604v-1zM464 554q0 8 -7 8q-2 0 -3.5 -0.5t-3 -2t-2 -2.5t-1.5 -4t-1 -4l-78 -233h92l4 233v5z" />
    <glyph glyph-name="B" unicode="B" horiz-adv-x="704" 
d="M759 563q0 -57 -26.5 -108.5t-74.5 -73.5q50 -42 50 -119q0 -67 -25 -117.5t-63 -79t-92 -46.5t-102 -23.5t-102 -5.5q-135 0 -199 12q-32 6 -45 17t-13 36q0 8 4 34l99 566q8 45 25.5 62t60.5 24q76 12 203 12q144 0 222 -43.5t78 -146.5zM526 518q0 45 -60 45h-82
l-19 -112h82q79 0 79 67zM481 250q0 25 -14 36.5t-47 11.5h-82l-21 -118h82q43 0 62.5 20.5t19.5 49.5z" />
    <glyph glyph-name="C" unicode="C" horiz-adv-x="548" 
d="M639 712l-28 -158q-3 -21 -23 -18q-72 9 -131 9q-18 0 -30.5 -3.5t-27.5 -16t-27 -41t-20 -72.5l-15 -81q-7 -38 -7 -65q0 -43 16.5 -55.5t49.5 -12.5q38 0 134 9q12 1 15 -3.5t1 -14.5l-28 -158q-1 -10 -5.5 -13.5t-18.5 -8.5q-59 -19 -135 -19q-134 0 -202 66t-68 184
q0 43 9 91l15 81q34 186 123 263.5t251 77.5q83 0 134 -19q20 -7 18 -22z" />
    <glyph glyph-name="D" unicode="D" horiz-adv-x="706" 
d="M748 502q0 -45 -8 -85l-17 -91q-35 -184 -129.5 -260t-258.5 -76q-139 0 -243 19q-29 6 -29 29q0 9 1 14l113 639q4 22 13 31t29 12q111 19 249 19q127 0 203.5 -65t76.5 -186zM509 484q0 38 -18 52.5t-59 14.5h-44l-63 -359h44q53 0 76 26t39 108l17 91q8 43 8 67z" />
    <glyph glyph-name="E" unicode="E" horiz-adv-x="595" 
d="M651 742q19 -2 16 -20l-26 -151q-4 -20 -24 -20h-201q-19 0 -26.5 -6.5t-11.5 -25.5l-10 -54h234q21 0 16 -20l-24 -141q-4 -20 -24 -20h-234l-9 -49q-3 -16 -3 -24q0 -19 29 -19h201q19 0 16 -20l-26 -151q-3 -18 -24 -20q-92 -11 -203 -11q-104 0 -168.5 42t-64.5 137
q0 30 5 55l53 295q8 47 23.5 83.5t33 61t43 41.5t47.5 26.5t53.5 14.5t54 6t55.5 1q109 0 199 -11z" />
    <glyph glyph-name="F" unicode="F" horiz-adv-x="590" 
d="M651 742q19 -1 16 -20l-26 -151q-1 -7 -3 -10.5t-7 -6.5t-14 -3h-201q-19 0 -26.5 -6.5t-11.5 -25.5l-10 -54h234q19 0 16 -20l-24 -141q-4 -20 -24 -20h-234l-46 -264q-4 -20 -24 -20h-195q-20 0 -17 20l88 499q9 52 25.5 91t40.5 64t49.5 41.5t60 24t64.5 10.5t70 3
q109 0 199 -11z" />
    <glyph glyph-name="G" unicode="G" horiz-adv-x="673" 
d="M741 700l-25 -147q-1 -8 -2.5 -11.5t-6 -5.5t-12.5 -1q-93 10 -175 10q-85 0 -119.5 -25.5t-48.5 -105.5l-15 -87q-6 -36 -6 -59q0 -26 5.5 -42.5t16.5 -23t19 -8.5t20 -2q20 0 33 3l32 180q4 20 24 20h187q19 0 16 -20l-59 -335q-2 -12 -6 -15.5t-19 -6.5
q-136 -28 -244 -28q-47 0 -90 12t-84.5 38.5t-66.5 78.5t-25 124q0 45 8 86l15 85q16 88 47.5 152.5t68 99.5t87 55.5t91.5 26t94 5.5q123 0 223 -31q20 -5 17 -22z" />
    <glyph glyph-name="H" unicode="H" horiz-adv-x="753" 
d="M614 743h191q23 0 20 -20l-123 -703q-4 -20 -24 -20h-195q-8 0 -13 6t-4 14l44 255h-171l-44 -255q-4 -20 -24 -20h-195q-8 0 -13 6t-4 14l123 703q4 20 25 20h195q20 0 16 -20l-43 -246h171l43 246q4 20 25 20z" />
    <glyph glyph-name="I" unicode="I" horiz-adv-x="356" 
d="M407 743q19 0 16 -20l-123 -703q-1 -7 -3 -10.5t-7 -6.5t-14 -3h-195q-21 0 -17 20l123 703q4 20 25 20h195z" />
    <glyph glyph-name="J" unicode="J" horiz-adv-x="356" 
d="M407 743q20 0 16 -20l-126 -718q-38 -211 -227 -211q-72 0 -110 6q-20 4 -17 20l24 134q4 20 23 20h43q14 0 19.5 6t8.5 25l126 718q4 20 25 20h195z" />
    <glyph glyph-name="K" unicode="K" horiz-adv-x="744" 
d="M849 734q0 -6 -4 -11l-258 -353l136 -350q3 -7 0 -13.5t-11 -6.5h-234q-15 0 -21 20l-107 314l-55 -314q-4 -20 -24 -20h-195q-21 0 -17 20l123 703q4 20 25 20h195q19 0 16 -20l-56 -319l214 319q14 20 35 20h228q10 0 10 -9z" />
    <glyph glyph-name="L" unicode="L" horiz-adv-x="520" 
d="M509 192q19 0 16 -20l-26 -151q-3 -16 -24 -20q-64 -11 -153 -11q-233 0 -233 176q0 32 5 58l88 499q4 20 25 20h195q20 0 16 -20l-88 -499q-1 -4 -1 -12q0 -12 6.5 -16t22.5 -4h151z" />
    <glyph glyph-name="M" unicode="M" horiz-adv-x="866" 
d="M902 743q35 0 29 -35l-123 -697q-2 -11 -18 -11h-191q-20 0 -16 20l55 313q2 9 -5 9q-3 0 -11 -9l-94 -110q-16 -19 -30 -19h-58q-15 0 -24 19l-54 110q-4 9 -9 9q-6 0 -7 -9l-55 -313q-4 -20 -18 -20h-193q-20 0 -17 17l122 691q2 14 14.5 24.5t26.5 10.5h131
q37 0 52 -33l98 -221q5 -11 10 -11q6 0 14 11l176 221q25 33 64 33h131z" />
    <glyph glyph-name="N" unicode="N" horiz-adv-x="763" 
d="M814 743q20 0 16 -20l-121 -688q-6 -35 -41 -35h-171q-19 0 -28 22l-117 275q-3 8 -7 8h-1q-6 0 -7 -9l-48 -276q-4 -20 -25 -20h-183q-21 0 -17 20l121 688q6 35 41 35h164q21 0 33 -28l119 -276q4 -9 9 -9q4 0 6 9l50 284q4 20 24 20h183z" />
    <glyph glyph-name="O" unicode="O" horiz-adv-x="716" 
d="M757 499q0 -36 -8 -84l-15 -87q-58 -338 -378 -338q-117 0 -191.5 63.5t-74.5 191.5q0 35 8 83l15 87q59 338 378 338q117 0 191.5 -63t74.5 -191zM516 474q0 38 -15 54.5t-47 16.5q-42 0 -66 -30t-36 -100l-15 -87q-6 -34 -6 -59q0 -38 15 -54.5t47 -16.5q43 0 66.5 30
t35.5 100l15 87q6 34 6 59z" />
    <glyph glyph-name="P" unicode="P" horiz-adv-x="697" 
d="M757 536q0 -20 -3 -44l-1 -7q-9 -64 -37.5 -112t-64.5 -76t-84.5 -45t-90.5 -22.5t-89 -5.5q-4 0 -60 2l-36 -206q-4 -20 -24 -20h-195q-6 0 -11 4t-4 12l113 640q8 45 25 61.5t60 23.5q77 12 221 12q54 0 101.5 -11.5t89 -35.5t66 -67.5t24.5 -102.5zM521 504
q0 52 -75 52h-61l-24 -135h61q40 0 66.5 16.5t30.5 47.5l1 7q1 4 1 12z" />
    <glyph glyph-name="Q" unicode="Q" horiz-adv-x="716" 
d="M757 499q0 -36 -8 -84l-15 -87q-48 -275 -264 -326l-2 -16q-2 -12 9 -12h76q12 0 18 -3t5 -13l-22 -123q-3 -17 -29 -24q-64 -17 -139 -17q-63 0 -104 31t-41 104q0 15 6 57l3 20q-74 24 -117 83.5t-43 155.5q0 35 8 83l15 87q59 338 378 338q117 0 191.5 -63t74.5 -191z
M516 474q0 38 -15 54.5t-47 16.5q-42 0 -66 -30t-36 -100l-15 -87q-6 -34 -6 -59q0 -38 15 -54.5t47 -16.5q43 0 66.5 30t35.5 100l15 87q6 34 6 59z" />
    <glyph glyph-name="R" unicode="R" horiz-adv-x="731" 
d="M765 545q0 -80 -41.5 -152.5t-117.5 -102.5l92 -261q1 -3 1 -8q0 -21 -21 -21h-210q-10 0 -16 20l-78 235h-38l-41 -235q-4 -20 -24 -20h-195q-21 0 -17 20l112 636q8 45 25 61.5t60 23.5q84 12 221 12q139 0 213.5 -51.5t74.5 -156.5zM525 505q0 27 -14.5 39t-46.5 12
h-75l-22 -126h75q83 0 83 75z" />
    <glyph glyph-name="S" unicode="S" horiz-adv-x="624" 
d="M674 725q18 -5 16 -20l-26 -149q-1 -7 -2.5 -11t-7 -7t-13.5 -2q-156 15 -241 15q-24 0 -24 -17q0 -13 32 -31l128 -75q96 -57 96 -162q0 -70 -28 -124t-76.5 -86.5t-107.5 -49t-126 -16.5q-115 0 -209 30q-20 7 -18 20l26 149q4 22 25 20q174 -17 212 -17q42 0 42 30
q0 18 -22 32l-135 87q-87 57 -87 167q0 67 24 116t68 76.5t97 40t119 12.5q63 0 134.5 -8.5t103.5 -19.5z" />
    <glyph glyph-name="T" unicode="T" horiz-adv-x="602" 
d="M687 743q21 0 17 -20l-26 -152q-4 -20 -25 -20h-136l-93 -531q-4 -20 -24 -20h-195q-20 0 -16 20l93 531h-140q-20 0 -16 20l26 152q4 20 24 20h511z" />
    <glyph glyph-name="U" unicode="U" horiz-adv-x="752" 
d="M607 743h195q19 0 17 -20l-77 -437q-29 -168 -116 -232t-249 -64q-53 0 -99.5 13t-86 39.5t-62.5 74t-23 110.5q0 33 6 70l75 426q1 8 9 14t16 6h195q20 0 16 -20l-77 -437q-4 -28 -4 -37q0 -33 16.5 -46t51.5 -13q42 0 64 20t32 76l77 437q4 20 24 20z" />
    <glyph glyph-name="V" unicode="V" horiz-adv-x="726" 
d="M830 734q0 -5 -2 -11l-225 -604q-27 -73 -85.5 -101t-156.5 -28t-146.5 28t-49.5 101l-13 604q0 20 19 20h206q17 0 17 -20l-8 -529v-2q0 -11 7 -11q6 0 11 13l178 529q7 20 25 20h210q13 0 13 -9z" />
    <glyph glyph-name="W" unicode="W" horiz-adv-x="945" 
d="M1026 743q25 0 18 -25l-208 -655q-13 -41 -35 -57t-59 -16h-103q-36 0 -50.5 13t-20.5 52l-37 228q-2 11 -8 11q-4 0 -10 -11l-117 -228q-18 -36 -38.5 -50.5t-56.5 -14.5h-103q-70 0 -68 73l23 655q1 25 26 25h184q21 0 19 -22l-21 -351q-1 -12 5 -12q4 0 11 12l69 133
q11 22 23.5 30t38.5 8h110q26 0 36.5 -8.5t13.5 -29.5l21 -133q3 -12 6 -12q7 0 10 12l103 353q5 20 22 20h196z" />
    <glyph glyph-name="X" unicode="X" horiz-adv-x="740" 
d="M843 734q0 -6 -4 -11l-264 -363l141 -340q1 -2 1 -6q0 -5 -4 -9.5t-10 -4.5h-229q-15 0 -23 20l-63 153l-105 -153q-16 -20 -27 -20h-227q-9 0 -9 9q0 6 4 11l270 380l-134 323q-3 7 0.5 13.5t12.5 6.5h227q16 0 25 -20l60 -145l94 145q8 13 15.5 16.5t27.5 3.5h212
q9 0 9 -9z" />
    <glyph glyph-name="Y" unicode="Y" horiz-adv-x="709" 
d="M824 732q0 -4 -3 -9l-207 -344q-44 -74 -91 -92l-47 -267q-4 -20 -25 -20h-195q-19 0 -16 20l47 267q-40 18 -59 92l-86 344q-5 20 16 20h205q19 0 23 -20l41 -248q1 -6 5 -6t7 6l128 248q10 20 35 20h210q12 0 12 -11z" />
    <glyph glyph-name="Z" unicode="Z" horiz-adv-x="629" 
d="M686 743q20 0 16 -20l-24 -140q-5 -25 -33 -59l-249 -302q-6 -7 -6 -13q0 -7 12 -7h192q21 0 17 -20l-28 -162q-4 -20 -25 -20h-488q-16 0 -16 16v4l22 130q4 24 30 55l256 315q7 8 7 14q0 7 -11 7h-190q-20 0 -16 20l28 162q4 20 24 20h482z" />
    <glyph glyph-name="bracketleft" unicode="[" horiz-adv-x="408" 
d="M506 729v-3l-24 -138q-3 -16 -22 -16h-85l-105 -595h85q16 0 16 -14v-3l-24 -138q-3 -16 -22 -16h-292q-14 0 -14 15v4l159 899q4 19 20 19h292q16 0 16 -14z" />
    <glyph glyph-name="backslash" unicode="\" horiz-adv-x="445" 
d="M433 21q0 -8 -9 -14.5t-18 -6.5h-170q-15 0 -17 22l-77 700v1q0 8 8 14t17 6h170q17 0 19 -21l77 -700v-1z" />
    <glyph glyph-name="bracketright" unicode="]" horiz-adv-x="408" 
d="M486 728v-4l-159 -899q-4 -19 -20 -19h-292q-16 0 -16 13v3l24 138q3 17 22 17h85l105 595h-85q-16 0 -16 13v3l24 138q3 17 22 17h292q14 0 14 -15z" />
    <glyph glyph-name="asciicircum" unicode="^" horiz-adv-x="640" 
d="M700 576q0 -10 -12 -10h-187q-20 0 -33 13l-62 64l-62 -64q-13 -13 -33 -13h-187q-12 0 -12 10q0 5 5 12l108 146q9 12 16 15.5t22 3.5h286q15 0 22 -3.5t16 -15.5l108 -146q5 -7 5 -12z" />
    <glyph glyph-name="underscore" unicode="_" horiz-adv-x="580" 
d="M605 -43v-3l-12 -68q-3 -16 -23 -16h-605q-17 0 -17 13v3l12 68q3 16 23 16h605q17 0 17 -13z" />
    <glyph glyph-name="grave" unicode="`" horiz-adv-x="500" 
d="M443 644q0 -9 -10 -9h-142q-14 0 -23 10l-109 119q-3 4 -3 7q0 8 12 8h177q17 0 27 -15l69 -112q2 -3 2 -8z" />
    <glyph glyph-name="a" unicode="a" horiz-adv-x="642" 
d="M654 576q19 -3 27.5 -10.5t5.5 -24.5l-91 -521q-4 -20 -20 -20h-143q-24 0 -20 20l4 28q-36 -31 -71.5 -44.5t-91.5 -13.5q-81 0 -128.5 48.5t-47.5 134.5q0 38 5 68l16 93q26 151 107.5 208.5t216.5 57.5q91 0 231 -24zM442 413q-24 3 -43 3q-34 0 -51 -17t-26 -65
l-18 -97q-3 -16 -3 -29q0 -21 9.5 -28.5t29.5 -7.5q28 0 62 16z" />
    <glyph glyph-name="b" unicode="b" horiz-adv-x="636" 
d="M665 391q0 -25 -5 -57l-14 -78q-48 -266 -322 -266q-112 0 -232 24q-22 4 -28.5 12t-4.5 23l125 709q4 21 26 21h179q21 0 17 -21l-29 -163q23 5 55 5q115 0 174 -57.5t59 -151.5zM441 366q0 50 -48 50q-24 0 -48 -3l-42 -236q29 -3 54 -3q33 0 46 19.5t21 62.5l14 78
q3 17 3 32z" />
    <glyph glyph-name="c" unicode="c" horiz-adv-x="475" 
d="M385 600q72 0 138 -17q18 -5 16 -19l-24 -136q-2 -8 -9 -14.5t-15 -6.5h-1q-15 0 -50.5 3t-56.5 3q-30 0 -44.5 -19.5t-23.5 -65.5l-12 -66q-4 -20 -4 -40q0 -45 42 -45q13 0 109 6q13 1 17 -5t2 -16l-24 -136q-2 -14 -24 -19q-77 -17 -144 -17q-100 0 -151 57t-51 149
q0 32 6 66l12 66q25 138 97 205t195 67z" />
    <glyph glyph-name="d" unicode="d" horiz-adv-x="636" 
d="M521 779h179q24 0 20 -21l-125 -709q-5 -27 -47 -35q-131 -24 -240 -24q-107 0 -170 60.5t-63 155.5q0 22 5 50l14 78q25 139 101.5 202.5t209.5 63.5q38 0 64 -6l29 164q4 21 23 21zM437 413q-48 3 -54 3q-30 0 -44.5 -19t-22.5 -63l-14 -78q-4 -20 -4 -38q0 -44 43 -44
q25 0 54 3z" />
    <glyph glyph-name="e" unicode="e" horiz-adv-x="614" 
d="M641 387q0 -33 -6 -68l-11 -61q-4 -21 -25 -21h-302q-2 -16 -2 -22q0 -24 17 -33t60 -9q63 0 189 7q12 1 16.5 -3t2.5 -15l-19 -105q-2 -13 -7 -18.5t-17 -10.5q-42 -16 -109 -27t-127 -11q-100 0 -163.5 54t-63.5 154q0 28 6 60l11 61q27 149 110.5 215t217.5 66
q112 0 167 -58.5t55 -154.5zM434 383q0 49 -47 49q-30 0 -46 -20t-24 -63h113q4 26 4 34z" />
    <glyph glyph-name="f" unicode="f" horiz-adv-x="427" 
d="M428 797q49 0 100 -11q13 -3 16 -7.5t1 -13.5l-19 -109q-4 -21 -25 -21h-35q-20 0 -27.5 -5.5t-11.5 -28.5l-2 -11h68q21 0 17 -21l-21 -121q-4 -22 -25 -22h-69l-73 -418q-21 -117 -72.5 -156.5t-152.5 -39.5q-43 0 -94 11q-20 4 -17 21l19 109q3 21 25 21h29
q20 0 27.5 5.5t11.5 28.5l73 418l-64 9q-22 2 -18 22l19 112q4 21 26 21h66l2 13q9 61 27.5 100t49 59t65 27.5t84.5 7.5z" />
    <glyph glyph-name="g" unicode="g" horiz-adv-x="637" 
d="M416 600q154 0 232 -21q25 -7 30.5 -12.5t3.5 -19.5l-95 -542q-19 -111 -95.5 -161t-219.5 -50q-116 0 -195 33q-18 7 -14 29l17 97q4 22 23 20q132 -12 198 -12q35 0 51 9t20 35l4 22q-28 -6 -62 -6q-116 0 -174.5 57.5t-58.5 152.5q0 24 5 56l8 47q23 135 108 200.5
t214 65.5zM444 413q-28 3 -51 3q-41 0 -55.5 -19.5t-21.5 -62.5l-8 -47q-3 -18 -3 -37q0 -22 10.5 -33.5t42.5 -11.5q19 0 50 3z" />
    <glyph glyph-name="h" unicode="h" horiz-adv-x="652" 
d="M672 425q0 -33 -5 -59l-61 -344q-4 -22 -25 -22h-180q-22 0 -18 22l60 341q2 14 2 18q0 18 -11 25t-36 7t-53 -6l-68 -385q-1 -7 -3 -11t-7 -7.5t-14 -3.5h-180q-23 0 -19 22l130 737q4 20 23 20h183q21 0 17 -20l-31 -177q77 18 118 18q87 0 132.5 -46.5t45.5 -128.5z
" />
    <glyph glyph-name="i" unicode="i" horiz-adv-x="329" 
d="M207 779h189q24 0 20 -21l-18 -102q-4 -21 -27 -21h-189q-23 0 -19 21l18 102q3 21 26 21zM76 0q-9 0 -14.5 6.5t-4.5 15.5l96 547q3 21 27 21h179q21 0 18 -21l-96 -547q-4 -22 -26 -22h-179z" />
    <glyph glyph-name="j" unicode="j" horiz-adv-x="329" 
d="M371 635h-189q-23 0 -19 21l18 102q3 21 26 21h189q24 0 20 -21l-18 -102q-4 -21 -27 -21zM180 590h179q22 0 18 -21l-102 -580q-19 -109 -74.5 -154t-140.5 -45q-44 0 -105 11q-21 3 -17 22l19 108q3 21 25 21h42q20 0 27 37l102 580q3 21 27 21z" />
    <glyph glyph-name="k" unicode="k" horiz-adv-x="669" 
d="M522 590h204q12 0 14 -10t-5 -16l-206 -264l115 -274q4 -9 -1 -17.5t-17 -8.5h-204q-21 0 -28 22l-77 237l-41 -237q-4 -22 -24 -22h-179q-23 0 -19 22l130 736q4 21 26 21h175q25 0 21 -21l-72 -412l152 223q14 21 36 21z" />
    <glyph glyph-name="l" unicode="l" horiz-adv-x="324" 
d="M390 779q22 0 18 -21l-130 -736q-4 -22 -25 -22h-180q-23 0 -19 22l130 736q4 21 26 21h180z" />
    <glyph glyph-name="m" unicode="m" horiz-adv-x="929" 
d="M950 438q0 -38 -7 -74l-60 -342q-4 -22 -25 -22h-180q-23 0 -18 22l60 342q2 12 2 16q0 27 -32 27q-20 0 -45 -6q-5 -35 -5 -37l-60 -342q-4 -22 -25 -22h-180q-22 0 -18 22l60 342q2 14 2 17q0 26 -31 26q-26 0 -44 -6l-67 -379q-1 -7 -3 -11t-7 -7.5t-14 -3.5h-180
q-23 0 -19 22l97 548q1 7 2.5 10.5t6.5 6.5t14 3h165q21 0 17 -20l-6 -30q76 60 172 60q87 0 113 -60q71 60 167 60q75 0 111.5 -42.5t36.5 -119.5z" />
    <glyph glyph-name="n" unicode="n" horiz-adv-x="652" 
d="M674 438q0 -30 -7 -70l-61 -346q-2 -11 -6.5 -16.5t-18.5 -5.5h-180q-22 0 -18 22l61 346q1 6 1 18q0 31 -43 31q-28 0 -58 -15l-67 -380q-1 -8 -2.5 -11.5t-7 -7t-14.5 -3.5h-180q-23 0 -19 22l97 548q4 20 23 20h165q21 0 17 -20l-5 -28q81 58 171 58q152 0 152 -162z
" />
    <glyph glyph-name="o" unicode="o" horiz-adv-x="620" 
d="M648 389q0 -27 -7 -71l-8 -46q-27 -152 -108 -217t-217 -65q-112 0 -171.5 56.5t-59.5 157.5q0 32 6 68l8 46q26 150 108 216t217 66q111 0 171.5 -54.5t60.5 -156.5zM424 365q0 51 -41 51q-53 0 -70 -98l-8 -46q-5 -32 -5 -47q0 -51 41 -51q27 0 43.5 21t26.5 77l8 46
q5 32 5 47z" />
    <glyph glyph-name="p" unicode="p" horiz-adv-x="636" 
d="M665 389q0 -23 -5 -55l-14 -78q-48 -266 -321 -266q-26 0 -54 6l-29 -164q-4 -21 -23 -21h-179q-22 0 -20 21l125 709q5 27 47 35q131 24 240 24t171 -57.5t62 -153.5zM442 371q0 45 -43 45q-26 0 -54 -3l-42 -236q48 -3 54 -3q30 0 44.5 19t22.5 63l14 78q4 19 4 37z
" />
    <glyph glyph-name="q" unicode="q" horiz-adv-x="636" 
d="M416 600q112 0 232 -24q22 -4 28.5 -12t4.5 -23l-125 -709q-2 -10 -7 -15.5t-19 -5.5h-179q-21 0 -17 21l29 164q-28 -6 -55 -6q-108 0 -170.5 57.5t-62.5 153.5q0 23 5 55l14 78q48 266 322 266zM437 413q-23 3 -41 3q-41 0 -56.5 -20t-23.5 -62l-14 -78q-3 -15 -3 -32
q0 -24 10 -37t40 -13q18 0 46 3z" />
    <glyph glyph-name="r" unicode="r" horiz-adv-x="439" 
d="M487 600h7q13 0 18 -4.5t3 -15.5l-25 -141q-1 -7 -2.5 -10.5t-6.5 -6.5t-14 -3h-7q-82 0 -116 -17l-67 -380q-4 -22 -24 -22h-180q-23 0 -19 22l97 548q4 20 23 20h158q21 0 17 -20l-6 -29q50 59 144 59z" />
    <glyph glyph-name="s" unicode="s" horiz-adv-x="540" 
d="M567 573q11 -3 14.5 -7t2.5 -14l-23 -130q-1 -9 -2.5 -13t-7 -7t-14.5 -1q-108 18 -175 18q-23 0 -23 -11q0 -10 22 -22l79 -42q61 -32 80.5 -68.5t19.5 -84.5q0 -104 -78 -152.5t-215 -48.5q-108 0 -182 26q-18 7 -15 22l22 125q5 27 30 23q123 -19 170 -19q39 0 39 23
q0 9 -19 20l-89 49q-89 50 -89 142q0 199 267 199q91 0 186 -27z" />
    <glyph glyph-name="t" unicode="t" horiz-adv-x="440" 
d="M426 590h68q13 0 18 -4.5t3 -16.5l-21 -121q-4 -22 -25 -22h-72l-43 -245q-2 -12 -2 -15q0 -14 18 -14h48q11 0 15 -4t2 -17l-19 -109q-3 -19 -25 -22q-60 -10 -108 -10q-29 0 -54.5 6.5t-49.5 22t-38.5 45.5t-14.5 71q0 20 5 50l42 241l-55 10q-21 4 -18 22l19 111
q3 21 26 21h57l14 82q3 18 26 21l179 30q15 2 21 -3t4 -17z" />
    <glyph glyph-name="u" unicode="u" horiz-adv-x="652" 
d="M683 590q23 0 19 -22l-97 -548q-4 -20 -23 -20h-165q-21 0 -17 20l5 28q-29 -20 -47 -30.5t-49.5 -19t-69.5 -8.5q-80 0 -118 48t-38 123q0 31 6 61l61 346q4 22 25 22h180q22 0 18 -22l-58 -330q-4 -22 -4 -30q0 -35 43 -35q28 0 58 15l67 380q4 22 24 22h180z" />
    <glyph glyph-name="v" unicode="v" horiz-adv-x="651" 
d="M723 590q22 0 13 -21l-205 -454q-20 -43 -44 -70t-54 -38t-52 -14t-57 -3q-28 0 -45 1.5t-40.5 8t-37 19t-25.5 37t-15 59.5l-45 454v1q0 20 21 20h190q18 0 18 -21l8 -337q0 -15 6 -15t12 15l126 337q8 21 26 21h200z" />
    <glyph glyph-name="w" unicode="w" horiz-adv-x="898" 
d="M965 590q17 0 12 -15l-181 -502q-20 -56 -40 -69.5t-65 -13.5h-94q-41 0 -55.5 14t-22.5 64l-24 144q-1 9 -7 9t-11 -9l-74 -144q-25 -49 -45 -63.5t-61 -14.5h-94q-45 0 -59.5 13.5t-15.5 69.5l-5 502q0 15 18 15h199q11 0 11 -16l-14 -298q0 -9 6 -9q5 0 10 9l73 138
q11 21 21.5 28.5t30.5 7.5h100q20 0 28 -7.5t12 -28.5l25 -138q2 -13 8 -13q4 0 8 13l90 298q5 16 23 16h193z" />
    <glyph glyph-name="x" unicode="x" horiz-adv-x="667" 
d="M723 590q8 0 10.5 -6t-3.5 -15l-216 -280l132 -267q4 -8 0 -15t-15 -7h-205q-21 0 -31 22l-55 119l-83 -120q-15 -21 -28 -21h-195q-7 0 -9.5 8t2.5 13l223 292l-124 249q-6 14 -2.5 21t13.5 7h199q27 0 35 -21l50 -112l77 112q9 13 16 17t23 4h186z" />
    <glyph glyph-name="y" unicode="y" horiz-adv-x="656" 
d="M730 590q20 0 10 -21l-276 -600q-20 -43 -41.5 -72.5t-53.5 -54t-78 -36.5t-107 -12q-33 0 -80 6.5t-67 14.5q-13 5 -16.5 8.5t-2.5 11.5l20 114q1 8 2.5 11.5t7.5 7.5t17 3q98 -7 149 -7q33 0 44 23l15 34h-13q-34 0 -55.5 16t-27.5 62l-61 470q-1 12 5 16.5t21 4.5h191
q16 0 16 -21l13 -312q0 -14 7 -14h7l121 326q8 21 26 21h207z" />
    <glyph glyph-name="z" unicode="z" horiz-adv-x="567" 
d="M600 590q21 0 17 -20l-19 -107q-3 -17 -8.5 -26.5t-26.5 -31.5l-193 -211q-7 -9 -7 -12q0 -7 10 -7h158q16 0 14 -16l-24 -139q-4 -20 -24 -20h-427q-19 0 -16 20l18 105q5 28 25 50l205 222q7 9 7 12q0 6 -10 6h-155q-16 0 -13 16l25 139q4 20 23 20h421z" />
    <glyph glyph-name="braceleft" unicode="{" horiz-adv-x="436" 
d="M441 572q-24 0 -32.5 -11t-14.5 -42l-18 -100q-20 -109 -119 -148q70 -31 70 -112q0 -17 -3 -37l-18 -100q-3 -16 -3 -28q0 -14 7 -19.5t25 -5.5h47q16 0 16 -13v-3l-25 -138q-3 -17 -22 -17h-67q-208 0 -208 162q0 29 6 62l18 100q2 14 2 20q0 40 -40 66l22 125
q35 18 49 37.5t19 48.5l18 100q13 74 30.5 116t51 67t78 33t121.5 8h67q18 0 16 -17l-24 -138q-3 -16 -22 -16h-47z" />
    <glyph glyph-name="bar" unicode="|" horiz-adv-x="324" 
d="M338 -172q0 -9 -6 -15.5t-15 -6.5h-180q-9 0 -16 6.5t-7 15.5v894q0 9 7 15t16 6h180q9 0 15 -6t6 -15v-894z" />
    <glyph glyph-name="braceright" unicode="}" horiz-adv-x="436" 
d="M470 333l-22 -125q-26 -13 -45 -36.5t-23 -49.5l-18 -100q-25 -137 -80 -180.5t-202 -43.5h-67q-16 0 -16 14v3l25 138q3 16 22 16h47q24 0 33 11.5t14 41.5l18 100q20 110 119 149q-34 15 -51.5 49t-17.5 73q0 18 2 26l18 100q3 15 3 26q0 27 -32 27h-47q-16 0 -16 13v3
l24 138q3 17 22 17h67q119 0 165.5 -33t46.5 -105q0 -38 -9 -86l-18 -100q-1 -5 -1 -15q0 -46 39 -71z" />
    <glyph glyph-name="asciitilde" unicode="~" horiz-adv-x="640" 
d="M687 490q0 -94 -47 -134t-139 -40q-49 0 -98 26l-50 26q-33 17 -47 17q-20 0 -20 -19v-21q0 -22 -23 -22h-126q-24 0 -24 22v21q0 93 48.5 133.5t140.5 40.5q49 0 95 -24l50 -26q36 -19 51 -19q16 0 16 20v21q0 22 23 22h126q24 0 24 -22v-22z" />
    <glyph glyph-name="uni00A0" unicode="&#xa0;" horiz-adv-x="230" 
 />
    <glyph glyph-name="exclamdown" unicode="&#xa1;" horiz-adv-x="309" 
d="M363 573v-3l-27 -152q-4 -20 -24 -20h-175q-16 0 -16 16v4l27 152q4 20 23 20h175q17 0 17 -17zM294 317v-3l-55 -482q-1 -9 -8.5 -15t-16.5 -6h-187q-18 0 -18 16q0 1 0.5 2.5t0.5 2.5l115 482q5 22 24 22h127q18 0 18 -19z" />
    <glyph glyph-name="cent" unicode="&#xa2;" 
d="M616 568v-4l-24 -136q-4 -21 -23 -21h-2q-96 6 -107 6q-30 0 -44.5 -19.5t-23.5 -65.5l-12 -66q-5 -28 -5 -42q0 -43 43 -43q13 0 109 6h1q8 0 13 -5.5t5 -12.5v-3l-24 -136q-2 -14 -24 -19q-43 -10 -70 -13l-11 -61q-4 -20 -23 -20h-141q-17 0 -17 17v3l14 77
q-99 42 -99 179q0 38 7 73l12 66q22 118 64.5 175.5t117.5 83.5l11 67q4 20 24 20h141q16 0 16 -16v-4l-10 -59q45 -6 66 -12q16 -4 16 -15z" />
    <glyph glyph-name="sterling" unicode="&#xa3;" 
d="M716 721q0 -1 -0.5 -3t-0.5 -4l-27 -152q-3 -18 -20 -18h-3q-65 5 -169 5q-36 0 -48.5 -11t-19.5 -50l-5 -27h136q17 0 17 -17v-3l-25 -141q-4 -20 -24 -20h-136l-8 -49q-4 -27 -21 -50h239q16 0 16 -16v-4l-24 -141q-4 -20 -24 -20h-473q-16 0 -16 16v4l19 110
q3 14 15 26q12 11 26 34t17 41l8 49h-48q-16 0 -16 16v4l25 141q4 20 23 20h48l4 23q14 83 41 137t70 82.5t94 39t126 10.5q56 0 166 -17q18 -3 18 -15z" />
    <glyph glyph-name="currency" unicode="&#xa4;" 
d="M676 547q0 -8 -7 -15l-87 -87q16 -38 16 -75q0 -42 -18 -80l85 -85q7 -7 7 -15q0 -6 -5 -11l-75 -75q-5 -5 -11 -5q-8 0 -15 7l-88 88q-32 -13 -69 -13t-75 16l-87 -87q-8 -8 -16 -8q-5 0 -10 5l-75 75q-5 5 -5 12q0 8 7 15l87 86q-16 38 -16 75q0 38 13 70l-88 88
q-7 7 -7 15q0 6 5 11l75 75q5 5 11 5q8 0 15 -7l85 -85q35 17 81 17q39 0 75 -15l86 87q7 7 15 7q6 0 11 -5l75 -75q5 -5 5 -11zM478 372q0 28 -19.5 47.5t-47.5 19.5t-48 -19.5t-20 -47.5t20 -48t48 -20t47.5 20t19.5 48z" />
    <glyph glyph-name="yen" unicode="&#xa5;" 
d="M804 732q0 -4 -3 -9l-141 -218h73q17 0 17 -17v-3l-18 -97q-4 -20 -23 -20h-139l-57 -87h181q16 0 16 -16v-4l-17 -97q-4 -20 -24 -20h-182l-21 -124q-1 -8 -9 -14t-16 -6h-195q-16 0 -16 16v4l21 124h-181q-16 0 -16 16v4l17 97q4 20 24 20h181l-25 87h-141
q-17 0 -17 17v3l18 97q4 20 23 20h75l-67 218q0 1 -0.5 2t-0.5 2q0 16 17 16h216q13 0 17 -20l42 -219l119 219q12 20 25 20h215q12 0 12 -11z" />
    <glyph glyph-name="brokenbar" unicode="&#xa6;" horiz-adv-x="324" 
d="M342 364q0 -9 -6 -15.5t-15 -6.5h-180q-9 0 -16 6.5t-7 15.5v343q0 9 7 15t16 6h180q9 0 15 -6t6 -15v-343zM342 -189q0 -9 -6 -15.5t-15 -6.5h-180q-9 0 -16 6.5t-7 15.5v343q0 9 7 15t16 6h180q9 0 15 -6t6 -15v-343z" />
    <glyph glyph-name="section" unicode="&#xa7;" horiz-adv-x="624" 
d="M690 708v-3l-26 -149q-4 -20 -21 -20h-2q-156 15 -241 15q-24 0 -24 -19q0 -11 32 -29l128 -75q97 -56 97 -155q0 -73 -51 -148q14 -38 14 -72q0 -15 -3 -31q-19 -111 -101 -175t-234 -64q-116 0 -210 30q-17 6 -17 17v3l26 149q4 20 22 20h2q174 -17 212 -17q43 0 43 31
q0 16 -23 31l-134 87q-88 56 -88 161q0 85 48 153q-10 34 -10 69q0 17 3 33q18 103 86 153t218 50q63 0 134.5 -8.5t103.5 -19.5q16 -5 16 -17zM440 248q0 19 -13.5 34.5t-48.5 37.5l-53 33q-26 17 -33 26q-23 -21 -23 -57q0 -18 12 -32t43 -34l51 -32q30 -19 46 -36
q19 28 19 60z" />
    <glyph glyph-name="dieresis" unicode="&#xa8;" horiz-adv-x="500" 
d="M592 761v-3l-18 -102q-1 -9 -9.5 -15t-17.5 -6h-139q-8 0 -13.5 5t-5.5 13v3l18 102q1 9 9 15t17 6h139q8 0 14 -5.5t6 -12.5zM362 761v-3l-18 -102q-1 -9 -9.5 -15t-17.5 -6h-139q-8 0 -13.5 5t-5.5 13v3l18 102q1 9 9 15t17 6h139q8 0 14 -5.5t6 -12.5z" />
    <glyph glyph-name="copyright" unicode="&#xa9;" horiz-adv-x="750" 
d="M787 374q0 -141 -100 -240t-241 -99t-240 99t-99 240t99 241.5t240 100.5t241 -100.5t100 -241.5zM728 374q0 116 -83 199.5t-199 83.5t-198 -83t-82 -200q0 -116 82 -198t198 -82t199 82t83 198zM550 182q0 -8 -12 -12q-33 -11 -75 -11q-183 0 -183 194v47
q0 194 183 194q46 0 75 -11q12 -4 12 -12v-90q0 -11 -10 -11h-2q-42 5 -75 5q-21 0 -34 -15t-13 -60v-47q0 -46 12.5 -60.5t34.5 -14.5q33 0 75 5h2q10 0 10 -10v-91z" />
    <glyph glyph-name="ordfeminine" unicode="&#xaa;" horiz-adv-x="401" 
d="M476 639q0 -15 -3 -35l-38 -212q-2 -12 -10 -15q-87 -20 -155 -20q-75 0 -113 27.5t-38 76.5q0 12 1 19l1 7q8 59 57.5 81.5t132.5 22.5h16l3 13q2 10 2 12q0 18 -30 18q-72 0 -114 -4h-1q-9 0 -9 11v3l13 74q1 11 15 16q57 19 119 19q151 0 151 -114zM318 518h-20
q-37 0 -41 -31l-1 -7v-5q0 -20 31 -20q9 0 21 2z" />
    <glyph glyph-name="guillemotleft" unicode="&#xab;" horiz-adv-x="776" 
d="M858 523q0 -7 -8 -15l-219 -214l128 -214q4 -8 4 -11q0 -12 -14 -12h-160q-20 0 -26 10l-126 206q-8 13 -8 24q0 16 16 34l183 190q9 10 30 10h190q10 0 10 -8zM503 523q0 -7 -8 -15l-219 -214l128 -214q4 -8 4 -11q0 -12 -14 -12h-160q-20 0 -26 10l-126 206
q-8 13 -8 24q0 16 16 34l183 190q9 10 30 10h190q10 0 10 -8z" />
    <glyph glyph-name="logicalnot" unicode="&#xac;" horiz-adv-x="640" 
d="M635 188q0 -20 -16 -20h-130q-16 0 -16 20v264h-303q-20 0 -20 16v130q0 16 20 16h445q20 0 20 -16v-410z" />
    <glyph glyph-name="uni00AD" unicode="&#xad;" horiz-adv-x="262" 
d="M310 359v-3l-21 -118q-4 -20 -24 -20h-192q-16 0 -16 16v4l21 118q4 20 23 20h192q17 0 17 -17z" />
    <glyph glyph-name="registered" unicode="&#xae;" horiz-adv-x="646" 
d="M699 483q0 -119 -84.5 -203t-203.5 -84t-203.5 84t-84.5 203t84.5 203.5t203.5 84.5t203.5 -84.5t84.5 -203.5zM641 483q0 95 -67.5 162.5t-162.5 67.5t-162 -67.5t-67 -162.5t67 -162t162 -67t162.5 67t67.5 162zM558 329q0 -8 -8 -8h-97q-5 0 -9 9l-54 106h-14v-106
q0 -9 -9 -9h-88q-9 0 -9 9v286q0 20 6 27.5t25 10.5q45 6 99 6q71 0 108.5 -26t37.5 -87v-10q0 -56 -51 -84l62 -119q1 -2 1 -5zM445 537v10q0 27 -36 27h-37v-64h37q17 0 26.5 8t9.5 19z" />
    <glyph glyph-name="macron" unicode="&#xaf;" horiz-adv-x="500" 
d="M581 762v-3l-19 -104q-4 -20 -23 -20h-354q-17 0 -17 17v3l19 104q4 20 23 20h354q17 0 17 -17z" />
    <glyph glyph-name="degree" unicode="&#xb0;" horiz-adv-x="376" 
d="M455 590q0 -68 -47.5 -115.5t-115.5 -47.5q-67 0 -115 48t-48 115t48 115t115 48q68 0 115.5 -47.5t47.5 -115.5zM352 590q0 25 -18 42.5t-42 17.5t-41.5 -17.5t-17.5 -42.5q0 -24 17 -41.5t42 -17.5t42.5 17t17.5 42z" />
    <glyph glyph-name="plusminus" unicode="&#xb1;" horiz-adv-x="640" 
d="M615 326q0 -16 -20 -16h-142v-141q0 -20 -16 -20h-130q-16 0 -16 20v141h-141q-20 0 -20 16v130q0 16 20 16h141v142q0 20 16 20h130q16 0 16 -20v-142h142q20 0 20 -16v-130zM615 -14q0 -16 -20 -16h-445q-20 0 -20 16v101q0 16 20 16h445q20 0 20 -16v-101z" />
    <glyph glyph-name="two.superior" unicode="&#xb2;" horiz-adv-x="367" 
d="M446 662q0 -90 -117 -151q-70 -38 -86 -61h146q15 0 13 -15l-15 -86q-3 -15 -19 -15h-259q-16 0 -13 15l10 59q20 105 131 171q13 8 26.5 16.5t21.5 13t12 7.5q11 7 11 17t-37 10t-103 -6h-1q-7 0 -10.5 5t-1.5 11l11 62q1 9 16 15q65 23 131 23q133 0 133 -91z" />
    <glyph glyph-name="three.superior" unicode="&#xb3;" horiz-adv-x="366" 
d="M129 449h1q67 -5 114 -5q38 0 38 33q0 17 -22 17h-92q-16 0 -14 16l13 69q2 16 18 16h85q38 0 38 29q0 19 -29 19q-42 0 -112 -5h-1q-15 0 -12 15l10 59q1 9 4 12t13 7q50 22 128 22q136 0 136 -94q0 -13 -3 -26q-8 -53 -61 -86q32 -21 32 -66q0 -73 -48.5 -110
t-129.5 -37q-83 0 -127 24q-9 5 -8 13l11 63q3 15 18 15z" />
    <glyph glyph-name="acute" unicode="&#xb4;" horiz-adv-x="500" 
d="M621 773q0 -5 -6 -9l-151 -119q-13 -10 -27 -10h-154q-8 0 -8 6q0 5 6 11l107 112q15 15 31 15h191q11 0 11 -6z" />
    <glyph glyph-name="mu" unicode="&#xb5;" horiz-adv-x="652" 
d="M702 571v-3l-92 -522q-2 -14 -11.5 -21.5t-34.5 -13.5q-99 -21 -239 -21q-27 0 -52 3l-29 -162q-4 -20 -23 -20h-184q-17 0 -17 17v3l130 737q4 22 25 22h179q18 0 18 -18v-4l-63 -359q0 -1 -0.5 -4t-0.5 -4q0 -32 48 -32q32 0 53 3l70 396q4 22 24 22h180q19 0 19 -19z
" />
    <glyph glyph-name="paragraph" unicode="&#xb6;" horiz-adv-x="689" 
d="M768 731q0 -1 -0.5 -3.5t-0.5 -3.5l-159 -900q-4 -19 -20 -19h-60q-14 0 -14 16v3l145 825h-66l-145 -825q-4 -19 -20 -19h-60q-14 0 -14 16v3l71 401h-89q-95 0 -155.5 47.5t-60.5 132.5q0 23 4 43l13 72q19 104 100.5 163.5t189.5 59.5h327q14 0 14 -12z" />
    <glyph glyph-name="periodcentered" unicode="&#xb7;" horiz-adv-x="296" 
d="M335 452v-3l-27 -152q-4 -20 -24 -20h-174q-18 0 -18 17v3l27 152q1 8 9 14t16 6h174q17 0 17 -17z" />
    <glyph glyph-name="cedilla" unicode="&#xb8;" horiz-adv-x="500" 
d="M373 -57q0 -5 -6 -9l-151 -119q-13 -10 -27 -10h-150q-8 0 -8 6q0 5 6 11l109 112q15 15 31 15h185q11 0 11 -6z" />
    <glyph glyph-name="one.superior" unicode="&#xb9;" horiz-adv-x="277" 
d="M303 346q-4 -11 -13 -11h-117q-5 0 -7.5 3.5t-1.5 7.5l46 265l-60 -22q-6 -2 -7 -2q-4 0 -4 7l18 98q1 8 9 11l96 38q7 3 13 3h87q11 0 9 -11z" />
    <glyph glyph-name="ordmasculine" unicode="&#xba;" horiz-adv-x="417" 
d="M493 617q0 -19 -5 -47l-6 -30q-20 -98 -71.5 -140.5t-138.5 -42.5q-71 0 -111.5 36t-40.5 100q0 19 5 47l6 30q19 99 71.5 141t139.5 42q71 0 111 -36t40 -100zM348 602q0 31 -27 31q-17 0 -28 -13.5t-18 -49.5l-6 -30q-4 -24 -4 -31q0 -33 28 -33q17 0 27.5 14t17.5 50
l6 30q4 17 4 32z" />
    <glyph glyph-name="guillemotright" unicode="&#xbb;" horiz-adv-x="776" 
d="M804 291q0 -16 -16 -34l-183 -190q-9 -10 -30 -10h-190q-10 0 -10 8q0 7 8 15l219 214l-128 214q-4 8 -4 11q0 12 14 12h160q20 0 26 -10l126 -206q8 -13 8 -24zM449 291q0 -16 -16 -34l-183 -190q-9 -10 -30 -10h-190q-10 0 -10 8q0 7 8 15l219 214l-128 214q-4 8 -4 11
q0 12 14 12h160q20 0 26 -10l126 -206q8 -13 8 -24z" />
    <glyph glyph-name="onequarter" unicode="&#xbc;" horiz-adv-x="836" 
d="M833 396v-3l-37 -212h21q13 0 13 -12v-3l-13 -74q-4 -16 -19 -16h-21l-10 -60q-2 -16 -19 -16h-104q-13 0 -13 13v3l10 60h-138q-12 0 -12 13v3l13 70q1 9 9 18l214 221q8 8 19 8h74q13 0 13 -13zM821 734q0 -5 -5 -12l-542 -707q-12 -15 -24 -15h-142q-11 0 -11 11
q0 6 4 11l542 706q11 15 26 15h142q10 0 10 -9zM371 734v-2l-68 -387q-2 -11 -13 -11h-117q-9 0 -9 9v2l47 265l-60 -22q-6 -2 -7 -2q-4 0 -4 5v2l17 98q1 8 10 11l95 38q7 3 13 3h87q9 0 9 -9zM679 255l-71 -74h58z" />
    <glyph glyph-name="onehalf" unicode="&#xbd;" horiz-adv-x="855" 
d="M875 319q0 -53 -28 -83t-90 -64q-70 -38 -85 -56h146q14 0 14 -13v-2l-15 -86q-3 -15 -19 -15h-259q-13 0 -13 12v3l10 59q10 59 43.5 96.5t85.5 69.5q28 17 37 22q15 8 24 15q11 8 11 18q0 9 -37 9q-17 0 -52 -3t-51 -3h-1q-13 0 -13 14v2l11 62q1 9 17 15q65 23 132 23
q70 0 101 -27.5t31 -67.5zM821 734q0 -5 -5 -12l-542 -707q-12 -15 -24 -15h-142q-11 0 -11 11q0 6 4 11l542 706q11 15 26 15h142q10 0 10 -9zM371 734v-2l-68 -387q-2 -11 -13 -11h-117q-9 0 -9 9v2l47 265l-60 -22q-6 -2 -7 -2q-4 0 -4 5v2l17 98q1 8 10 11l95 38
q7 3 13 3h87q9 0 9 -9z" />
    <glyph glyph-name="threequarters" unicode="&#xbe;" horiz-adv-x="886" 
d="M883 396v-3l-37 -212h21q13 0 13 -12v-3l-13 -74q-4 -16 -19 -16h-21l-10 -60q-2 -16 -19 -16h-104q-13 0 -13 13v3l10 60h-138q-12 0 -12 13v3l13 70q1 9 9 18l214 221q8 8 19 8h74q13 0 13 -13zM900 734q0 -5 -5 -12l-542 -707q-12 -15 -24 -15h-142q-11 0 -11 11
q0 6 4 11l542 706q11 15 26 15h142q10 0 10 -9zM445 657q0 -69 -64 -110q33 -23 33 -67q0 -76 -48 -111t-128 -35q-29 0 -69.5 6.5t-60.5 17.5q-8 5 -8 11v2l12 63q3 15 17 15h1q13 0 54 -2.5t60 -2.5q39 0 39 31q0 19 -23 19h-92q-13 0 -13 13v2v1l12 69q2 16 19 16h85
q37 0 37 30q0 18 -29 18q-19 0 -58.5 -2.5t-53.5 -2.5h-1q-12 0 -12 12v3l11 63q2 9 17 15q50 22 128 22q62 0 98.5 -25t36.5 -71zM729 255l-71 -74h58z" />
    <glyph glyph-name="questiondown" unicode="&#xbf;" horiz-adv-x="500" 
d="M506 572v-1l-26 -152q-1 -8 -9 -14t-16 -6h-174q-17 0 -17 17v2v1l26 152q1 8 9 14t16 6h174q7 0 12 -5t5 -12v-2zM469 0v-4l-25 -144q-2 -12 -24 -20q-80 -29 -182 -29q-215 0 -215 144q0 21 4 40q12 66 71 134l167 196q17 20 35 20h134q7 0 12 -5t5 -12v-3l-7 -40
q-9 -48 -20.5 -72t-46.5 -70l-63 -82q-19 -24 -19 -37q0 -11 21 -11h5h3l129 11h1q15 0 15 -16z" />
    <glyph glyph-name="Agrave" unicode="&#xc0;" horiz-adv-x="716" 
d="M699 19q0 -19 -19 -19h-207q-17 0 -17 20l1 112h-152l-37 -112q-7 -20 -25 -20h-209q-13 0 -13 11q0 3 2 9l225 604q27 73 86 101t157 28t146 -28t49 -101l13 -604v-1zM464 554q0 8 -7 8q-2 0 -3.5 -0.5t-3 -2t-2 -2.5t-1.5 -4t-1 -4l-78 -233h92l4 233v5zM631 803
q0 -9 -10 -9h-142q-14 0 -23 10l-109 119q-3 4 -3 7q0 8 12 8h177q17 0 27 -15l69 -112q2 -3 2 -8z" />
    <glyph glyph-name="Aacute" unicode="&#xc1;" horiz-adv-x="716" 
d="M699 19q0 -19 -19 -19h-207q-17 0 -17 20l1 112h-152l-37 -112q-7 -20 -25 -20h-209q-13 0 -13 11q0 3 2 9l225 604q27 73 86 101t157 28t146 -28t49 -101l13 -604v-1zM464 554q0 8 -7 8q-2 0 -3.5 -0.5t-3 -2t-2 -2.5t-1.5 -4t-1 -4l-78 -233h92l4 233v5zM735 932
q0 -4 -6 -9l-151 -119q-13 -10 -27 -10h-154q-8 0 -8 6q0 5 6 11l107 112q15 15 31 15h191q11 0 11 -6z" />
    <glyph glyph-name="Acircumflex" unicode="&#xc2;" horiz-adv-x="716" 
d="M699 19q0 -19 -19 -19h-207q-17 0 -17 20l1 112h-152l-37 -112q-7 -20 -25 -20h-209q-13 0 -13 11q0 3 2 9l225 604q27 73 86 101t157 28t146 -28t49 -101l13 -604v-1zM464 554q0 8 -7 8q-2 0 -3.5 -0.5t-3 -2t-2 -2.5t-1.5 -4t-1 -4l-78 -233h92l4 233v5zM717 803
q0 -9 -10 -9h-138q-14 0 -23 10l-40 49l-56 -49q-11 -10 -27 -10h-150q-8 0 -8 6q0 5 6 11l103 112q14 15 31 15h220q18 0 27 -15l63 -112q2 -3 2 -8z" />
    <glyph glyph-name="Atilde" unicode="&#xc3;" horiz-adv-x="716" 
d="M699 19q0 -19 -19 -19h-207q-17 0 -17 20l1 112h-152l-37 -112q-7 -20 -25 -20h-209q-13 0 -13 11q0 3 2 9l225 604q27 73 86 101t157 28t146 -28t49 -101l13 -604v-1zM464 554q0 8 -7 8q-2 0 -3.5 -0.5t-3 -2t-2 -2.5t-1.5 -4t-1 -4l-78 -233h92l4 233v5zM752 942v-4
l-6 -40q-9 -57 -46 -86t-95 -29q-50 0 -92 24l-36 20q-23 12 -35 12q-14 0 -16 -13l-3 -16q-3 -17 -21 -17h-96q-15 0 -15 13v4l5 33q9 60 47 91t91 31q55 0 97 -24l36 -20q25 -13 36 -13q12 0 15 14l3 16q3 17 21 17h95q15 0 15 -13z" />
    <glyph glyph-name="Adieresis" unicode="&#xc4;" horiz-adv-x="716" 
d="M699 19q0 -19 -19 -19h-207q-17 0 -17 20l1 112h-152l-37 -112q-7 -20 -25 -20h-209q-13 0 -13 11q0 3 2 9l225 604q27 73 86 101t157 28t146 -28t49 -101l13 -604v-1zM464 554q0 8 -7 8q-2 0 -3.5 -0.5t-3 -2t-2 -2.5t-1.5 -4t-1 -4l-78 -233h92l4 233v5zM740 920v-3
l-18 -102q-1 -9 -9.5 -15t-17.5 -6h-139q-8 0 -13.5 5t-5.5 13v3l18 102q1 9 9 15t17 6h139q8 0 14 -5.5t6 -12.5zM510 920v-3l-18 -102q-1 -9 -9.5 -15t-17.5 -6h-139q-8 0 -13.5 5t-5.5 13v3l18 102q1 9 9 15t17 6h139q8 0 14 -5.5t6 -12.5z" />
    <glyph glyph-name="Aring" unicode="&#xc5;" horiz-adv-x="716" 
d="M699 19q0 -19 -19 -19h-207q-17 0 -17 20l1 112h-152l-37 -112q-7 -20 -25 -20h-209q-13 0 -13 11q0 3 2 9l225 604q27 73 86 101t157 28t146 -28t49 -101l13 -604v-1zM464 554q0 8 -7 8q-2 0 -3.5 -0.5t-3 -2t-2 -2.5t-1.5 -4t-1 -4l-78 -233h92l4 233v5zM634 909
q0 -53 -37.5 -90.5t-90.5 -37.5t-90.5 37.5t-37.5 90.5t37.5 90.5t90.5 37.5t90.5 -37.5t37.5 -90.5zM544 910q0 15 -11 26t-26 11t-25.5 -10.5t-10.5 -26.5t10.5 -26.5t25.5 -10.5t26 11t11 26z" />
    <glyph glyph-name="AE" unicode="&#xc6;" horiz-adv-x="968" 
d="M1040 727v-4l-28 -162q-4 -20 -24 -20h-214l-13 -76h214q16 0 16 -16v-4l-24 -141q-4 -20 -24 -20h-214l-11 -60q-1 -4 -1 -12q0 -20 29 -20h181q16 0 16 -16v-4l-26 -151q-3 -18 -24 -20q-92 -11 -183 -11q-44 0 -78.5 5.5t-68.5 19.5t-55.5 43.5t-27.5 73.5h-174
l-38 -112q-7 -20 -25 -20h-208q-13 0 -13 12q0 2 2 8l223 594q27 73 85.5 101t156.5 28h535q16 0 16 -16zM538 541h-78q-13 0 -20 -21l-70 -204h129z" />
    <glyph glyph-name="Ccedilla" unicode="&#xc7;" horiz-adv-x="548" 
d="M640 717v-2q-1 -2 -1 -3l-28 -158q-3 -18 -20 -18h-2h-1q-72 9 -131 9q-18 0 -30.5 -3.5t-27.5 -16t-27 -41t-20 -72.5l-15 -81q-7 -38 -7 -65q0 -43 16.5 -55.5t49.5 -12.5q38 0 134 9h1h3q13 0 13 -12q0 -1 -0.5 -3t-0.5 -3l-28 -158q-1 -10 -5.5 -13.5t-18.5 -8.5
q-59 -19 -135 -19q-134 0 -202 66t-68 184q0 43 9 91l15 81q34 186 123 263.5t251 77.5q83 0 134 -19q18 -10 19 -17zM443 -51q0 -5 -6 -9l-151 -119q-13 -10 -27 -10h-150q-8 0 -8 6q0 5 6 11l109 112q15 15 31 15h185q11 0 11 -6z" />
    <glyph glyph-name="Egrave" unicode="&#xc8;" horiz-adv-x="595" 
d="M667 726v-4l-26 -151q-4 -20 -24 -20h-201q-19 0 -26.5 -6.5t-11.5 -25.5l-10 -54h234q16 0 16 -16v-4l-24 -141q-4 -20 -24 -20h-234l-11 -60q-1 -5 -1 -12q0 -20 29 -20h201q16 0 16 -16v-4l-26 -151q-3 -18 -24 -20q-92 -11 -203 -11q-104 0 -168.5 42t-64.5 137
q0 30 5 55l53 295q8 47 23.5 83.5t33 61t43 41.5t47.5 26.5t53.5 14.5t54 6t55.5 1q109 0 199 -11q16 -2 16 -16zM575 803q0 -9 -10 -9h-142q-14 0 -23 10l-109 119q-3 4 -3 7q0 8 12 8h177q17 0 27 -15l69 -112q2 -3 2 -8z" />
    <glyph glyph-name="Eacute" unicode="&#xc9;" horiz-adv-x="595" 
d="M667 726v-4l-26 -151q-4 -20 -24 -20h-201q-19 0 -26.5 -6.5t-11.5 -25.5l-10 -54h234q16 0 16 -16v-4l-24 -141q-4 -20 -24 -20h-234l-11 -60q-1 -5 -1 -12q0 -20 29 -20h201q16 0 16 -16v-4l-26 -151q-3 -18 -24 -20q-92 -11 -203 -11q-104 0 -168.5 42t-64.5 137
q0 30 5 55l53 295q8 47 23.5 83.5t33 61t43 41.5t47.5 26.5t53.5 14.5t54 6t55.5 1q109 0 199 -11q16 -2 16 -16zM669 932q0 -4 -6 -9l-151 -119q-13 -10 -27 -10h-154q-8 0 -8 6q0 5 6 11l107 112q15 15 31 15h191q11 0 11 -6z" />
    <glyph glyph-name="Ecircumflex" unicode="&#xca;" horiz-adv-x="595" 
d="M667 726v-4l-26 -151q-4 -20 -24 -20h-201q-19 0 -26.5 -6.5t-11.5 -25.5l-10 -54h234q16 0 16 -16v-4l-24 -141q-4 -20 -24 -20h-234l-11 -60q-1 -5 -1 -12q0 -20 29 -20h201q16 0 16 -16v-4l-26 -151q-3 -18 -24 -20q-92 -11 -203 -11q-104 0 -168.5 42t-64.5 137
q0 30 5 55l53 295q8 47 23.5 83.5t33 61t43 41.5t47.5 26.5t53.5 14.5t54 6t55.5 1q109 0 199 -11q16 -2 16 -16zM672 803q0 -9 -10 -9h-138q-14 0 -23 10l-40 49l-56 -49q-11 -10 -27 -10h-150q-8 0 -8 6q0 5 6 11l103 112q14 15 31 15h220q18 0 27 -15l63 -112q2 -3 2 -8z
" />
    <glyph glyph-name="Edieresis" unicode="&#xcb;" horiz-adv-x="595" 
d="M667 726v-4l-26 -151q-4 -20 -24 -20h-201q-19 0 -26.5 -6.5t-11.5 -25.5l-10 -54h234q16 0 16 -16v-4l-24 -141q-4 -20 -24 -20h-234l-11 -60q-1 -5 -1 -12q0 -20 29 -20h201q16 0 16 -16v-4l-26 -151q-3 -18 -24 -20q-92 -11 -203 -11q-104 0 -168.5 42t-64.5 137
q0 30 5 55l53 295q8 47 23.5 83.5t33 61t43 41.5t47.5 26.5t53.5 14.5t54 6t55.5 1q109 0 199 -11q16 -2 16 -16zM668 920v-3l-18 -102q-1 -9 -9.5 -15t-17.5 -6h-139q-8 0 -13.5 5t-5.5 13v3l18 102q1 9 9 15t17 6h139q8 0 14 -5.5t6 -12.5zM438 920v-3l-18 -102
q-1 -9 -9.5 -15t-17.5 -6h-139q-8 0 -13.5 5t-5.5 13v3l18 102q1 9 9 15t17 6h139q8 0 14 -5.5t6 -12.5z" />
    <glyph glyph-name="Igrave" unicode="&#xcc;" horiz-adv-x="356" 
d="M423 727v-4l-123 -703q-4 -20 -24 -20h-195q-17 0 -17 17v3l123 703q1 8 9 14t16 6h195q16 0 16 -16zM441 803q0 -9 -10 -9h-142q-14 0 -23 10l-109 119q-3 4 -3 7q0 8 12 8h177q17 0 27 -15l69 -112q2 -3 2 -8z" />
    <glyph glyph-name="Iacute" unicode="&#xcd;" horiz-adv-x="356" 
d="M423 727v-4l-123 -703q-4 -20 -24 -20h-195q-17 0 -17 17v3l123 703q1 8 9 14t16 6h195q16 0 16 -16zM541 932q0 -4 -6 -9l-151 -119q-13 -10 -27 -10h-154q-8 0 -8 6q0 5 6 11l107 112q15 15 31 15h191q11 0 11 -6z" />
    <glyph glyph-name="Icircumflex" unicode="&#xce;" horiz-adv-x="356" 
d="M423 727v-4l-123 -703q-4 -20 -24 -20h-195q-17 0 -17 17v3l123 703q1 8 9 14t16 6h195q16 0 16 -16zM545 803q0 -9 -10 -9h-138q-14 0 -23 10l-40 49l-56 -49q-11 -10 -27 -10h-150q-8 0 -8 6q0 5 6 11l103 112q14 15 31 15h220q18 0 27 -15l63 -112q2 -3 2 -8z" />
    <glyph glyph-name="Idieresis" unicode="&#xcf;" horiz-adv-x="356" 
d="M423 727v-4l-123 -703q-4 -20 -24 -20h-195q-17 0 -17 17v3l123 703q1 8 9 14t16 6h195q16 0 16 -16zM547 920v-3l-18 -102q-1 -9 -9.5 -15t-17.5 -6h-139q-8 0 -13.5 5t-5.5 13v3l18 102q4 21 26 21h139q8 0 14 -5.5t6 -12.5zM317 920v-3l-18 -102q-1 -9 -9.5 -15
t-17.5 -6h-139q-8 0 -13.5 5t-5.5 13v3l18 102q4 21 26 21h139q8 0 14 -5.5t6 -12.5z" />
    <glyph glyph-name="Eth" unicode="&#xd0;" horiz-adv-x="706" 
d="M748 502q0 -45 -8 -85l-17 -91q-35 -184 -129.5 -260t-258.5 -76q-139 0 -243 19q-29 6 -29 29q0 9 1 14l41 232h-48q-16 0 -16 16v3v1l24 141q4 20 24 20h48l40 226q4 22 13 31t29 12q111 19 249 19q127 0 203.5 -65t76.5 -186zM509 484q0 38 -18 52.5t-59 14.5h-44
l-15 -86h44q16 0 16 -16v-3v-1l-24 -141q-4 -20 -24 -20h-44l-16 -92h44q53 0 76 26t39 108l17 91q8 43 8 67z" />
    <glyph glyph-name="Ntilde" unicode="&#xd1;" horiz-adv-x="763" 
d="M830 727v-4l-121 -688q-2 -14 -14.5 -24.5t-26.5 -10.5h-171q-19 0 -28 22l-117 275q-3 8 -7 8h-1q-6 0 -7 -9l-48 -276q-1 -8 -9 -14t-16 -6h-183q-17 0 -17 17v3l121 688q2 14 14.5 24.5t26.5 10.5h164q21 0 33 -28l119 -276q4 -9 9 -9q4 0 6 9l50 284q4 20 24 20h183
q16 0 16 -16zM760 942v-4l-6 -40q-9 -57 -46 -86t-95 -29q-50 0 -92 24l-36 20q-23 12 -35 12q-14 0 -16 -13l-3 -16q-3 -17 -21 -17h-96q-15 0 -15 13v4l5 33q9 60 47 91t91 31q55 0 97 -24l36 -20q25 -13 36 -13q12 0 15 14l3 16q3 17 21 17h95q15 0 15 -13z" />
    <glyph glyph-name="Ograve" unicode="&#xd2;" horiz-adv-x="716" 
d="M757 499q0 -36 -8 -84l-15 -87q-58 -338 -378 -338q-117 0 -191.5 63.5t-74.5 191.5q0 35 8 83l15 87q59 338 378 338q117 0 191.5 -63t74.5 -191zM516 474q0 38 -15 54.5t-47 16.5q-42 0 -66 -30t-36 -100l-15 -87q-6 -34 -6 -59q0 -38 15 -54.5t47 -16.5q43 0 66.5 30
t35.5 100l15 87q6 34 6 59zM600 803q0 -9 -10 -9h-142q-14 0 -23 10l-109 119q-3 4 -3 7q0 8 12 8h177q17 0 27 -15l69 -112q2 -3 2 -8z" />
    <glyph glyph-name="Oacute" unicode="&#xd3;" horiz-adv-x="716" 
d="M757 499q0 -36 -8 -84l-15 -87q-58 -338 -378 -338q-117 0 -191.5 63.5t-74.5 191.5q0 35 8 83l15 87q59 338 378 338q117 0 191.5 -63t74.5 -191zM516 474q0 38 -15 54.5t-47 16.5q-42 0 -66 -30t-36 -100l-15 -87q-6 -34 -6 -59q0 -38 15 -54.5t47 -16.5q43 0 66.5 30
t35.5 100l15 87q6 34 6 59zM735 932q0 -4 -6 -9l-151 -119q-13 -10 -27 -10h-154q-8 0 -8 6q0 5 6 11l107 112q15 15 31 15h191q11 0 11 -6z" />
    <glyph glyph-name="Ocircumflex" unicode="&#xd4;" horiz-adv-x="716" 
d="M757 499q0 -36 -8 -84l-15 -87q-58 -338 -378 -338q-117 0 -191.5 63.5t-74.5 191.5q0 35 8 83l15 87q59 338 378 338q117 0 191.5 -63t74.5 -191zM516 474q0 38 -15 54.5t-47 16.5q-42 0 -66 -30t-36 -100l-15 -87q-6 -34 -6 -59q0 -38 15 -54.5t47 -16.5q43 0 66.5 30
t35.5 100l15 87q6 34 6 59zM725 804q0 -9 -10 -9h-138q-14 0 -23 10l-40 49l-56 -49q-11 -10 -27 -10h-150q-8 0 -8 6q0 5 6 11l103 112q14 15 31 15h220q18 0 27 -15l63 -112q2 -3 2 -8z" />
    <glyph glyph-name="Otilde" unicode="&#xd5;" horiz-adv-x="716" 
d="M757 499q0 -36 -8 -84l-15 -87q-58 -338 -378 -338q-117 0 -191.5 63.5t-74.5 191.5q0 35 8 83l15 87q59 338 378 338q117 0 191.5 -63t74.5 -191zM516 474q0 38 -15 54.5t-47 16.5q-42 0 -66 -30t-36 -100l-15 -87q-6 -34 -6 -59q0 -38 15 -54.5t47 -16.5q43 0 66.5 30
t35.5 100l15 87q6 34 6 59zM754 943v-4l-6 -40q-9 -57 -46 -86t-95 -29q-50 0 -92 24l-36 20q-23 12 -35 12q-14 0 -16 -13l-3 -16q-3 -17 -21 -17h-96q-15 0 -15 13v4l5 33q9 60 47 91t91 31q55 0 97 -24l36 -20q25 -13 36 -13q12 0 15 14l3 16q3 17 21 17h95q15 0 15 -13z
" />
    <glyph glyph-name="Odieresis" unicode="&#xd6;" horiz-adv-x="716" 
d="M757 499q0 -36 -8 -84l-15 -87q-58 -338 -378 -338q-117 0 -191.5 63.5t-74.5 191.5q0 35 8 83l15 87q59 338 378 338q117 0 191.5 -63t74.5 -191zM516 474q0 38 -15 54.5t-47 16.5q-42 0 -66 -30t-36 -100l-15 -87q-6 -34 -6 -59q0 -38 15 -54.5t47 -16.5q43 0 66.5 30
t35.5 100l15 87q6 34 6 59zM726 920v-3l-18 -102q-1 -9 -9.5 -15t-17.5 -6h-139q-8 0 -13.5 5t-5.5 13v3l18 102q1 9 9 15t17 6h139q8 0 14 -5.5t6 -12.5zM496 920v-3l-18 -102q-1 -9 -9.5 -15t-17.5 -6h-139q-8 0 -13.5 5t-5.5 13v3l18 102q1 9 9 15t17 6h139q8 0 14 -5.5
t6 -12.5z" />
    <glyph glyph-name="multiply" unicode="&#xd7;" horiz-adv-x="640" 
d="M611 505q0 -8 -8 -16l-100 -100l99 -100q8 -8 8 -15q0 -5 -5 -10l-92 -92q-5 -5 -10 -5q-7 0 -15 8l-100 99l-100 -99q-8 -8 -15 -8q-5 0 -10 5l-92 92q-5 5 -5 10q0 7 8 15l99 100l-100 100q-8 8 -8 16q0 5 5 10l92 92q5 5 11 5q7 0 15 -8l100 -101l100 101q8 8 15 8
q6 0 11 -5l92 -92q5 -5 5 -10z" />
    <glyph glyph-name="Oslash" unicode="&#xd8;" horiz-adv-x="716" 
d="M832 745q0 -6 -5 -11l-96 -108q26 -54 26 -127q0 -36 -8 -84l-15 -87q-58 -338 -378 -338q-92 0 -159 40l-19 -21q-17 -19 -30 -19h-124q-9 0 -9 8q0 6 5 11l97 108q-27 56 -27 128q0 35 8 83l15 87q59 338 378 338q95 0 160 -39l18 20q17 19 30 19h124q9 0 9 -8z
M492 536q-15 9 -38 9q-43 0 -67 -30t-35 -100l-7 -44zM503 371l-148 -164q15 -9 38 -9q42 0 65.5 29.5t36.5 100.5z" />
    <glyph glyph-name="Ugrave" unicode="&#xd9;" horiz-adv-x="752" 
d="M819 726v-3l-77 -437q-29 -168 -116 -232t-249 -64q-53 0 -99.5 13t-86 39.5t-62.5 74t-23 110.5q0 33 6 70l75 426q1 8 9 14t16 6h195q16 0 16 -17v-3l-77 -437q-4 -19 -4 -37q0 -33 16.5 -46t51.5 -13q42 0 64 20t32 76l77 437q4 20 24 20h195q7 0 12 -5t5 -12z
M630 803q0 -9 -10 -9h-142q-14 0 -23 10l-109 119q-3 4 -3 7q0 8 12 8h177q17 0 27 -15l69 -112q2 -3 2 -8z" />
    <glyph glyph-name="Uacute" unicode="&#xda;" horiz-adv-x="752" 
d="M819 726v-3l-77 -437q-29 -168 -116 -232t-249 -64q-53 0 -99.5 13t-86 39.5t-62.5 74t-23 110.5q0 33 6 70l75 426q1 8 9 14t16 6h195q16 0 16 -17v-3l-77 -437q-4 -19 -4 -37q0 -33 16.5 -46t51.5 -13q42 0 64 20t32 76l77 437q4 20 24 20h195q7 0 12 -5t5 -12z
M747 932q0 -4 -6 -9l-151 -119q-13 -10 -27 -10h-154q-8 0 -8 6q0 5 6 11l107 112q15 15 31 15h191q11 0 11 -6z" />
    <glyph glyph-name="Ucircumflex" unicode="&#xdb;" horiz-adv-x="752" 
d="M819 726v-3l-77 -437q-29 -168 -116 -232t-249 -64q-53 0 -99.5 13t-86 39.5t-62.5 74t-23 110.5q0 33 6 70l75 426q1 8 9 14t16 6h195q16 0 16 -17v-3l-77 -437q-4 -19 -4 -37q0 -33 16.5 -46t51.5 -13q42 0 64 20t32 76l77 437q4 20 24 20h195q7 0 12 -5t5 -12z
M742 803q0 -9 -10 -9h-138q-14 0 -23 10l-40 49l-56 -49q-11 -10 -27 -10h-150q-8 0 -8 6q0 5 6 11l103 112q14 15 31 15h220q18 0 27 -15l63 -112q2 -3 2 -8z" />
    <glyph glyph-name="Udieresis" unicode="&#xdc;" horiz-adv-x="752" 
d="M819 726v-3l-77 -437q-29 -168 -116 -232t-249 -64q-53 0 -99.5 13t-86 39.5t-62.5 74t-23 110.5q0 33 6 70l75 426q1 8 9 14t16 6h195q16 0 16 -17v-3l-77 -437q-4 -19 -4 -37q0 -33 16.5 -46t51.5 -13q42 0 64 20t32 76l77 437q4 20 24 20h195q7 0 12 -5t5 -12z
M745 920v-3l-18 -102q-1 -9 -9.5 -15t-17.5 -6h-139q-8 0 -13.5 5t-5.5 13v3l18 102q4 21 26 21h139q8 0 14 -5.5t6 -12.5zM515 920v-3l-18 -102q-1 -9 -9.5 -15t-17.5 -6h-139q-8 0 -13.5 5t-5.5 13v3l18 102q4 21 26 21h139q8 0 14 -5.5t6 -12.5z" />
    <glyph glyph-name="Yacute" unicode="&#xdd;" horiz-adv-x="709" 
d="M824 732q0 -4 -3 -9l-207 -344q-44 -74 -91 -92l-47 -267q-1 -8 -9 -14t-16 -6h-195q-16 0 -16 16v4l47 267q-40 18 -59 92l-86 344v4q0 16 16 16h211q13 0 17 -20l41 -248q1 -6 5 -6t7 6l128 248q10 20 25 20h220q12 0 12 -11zM734 932q0 -4 -6 -9l-151 -119
q-13 -10 -27 -10h-154q-8 0 -8 6q0 5 6 11l107 112q15 15 31 15h191q11 0 11 -6z" />
    <glyph glyph-name="Thorn" unicode="&#xde;" horiz-adv-x="697" 
d="M743 463q0 -19 -5 -51l-1 -7q-11 -76 -44 -128.5t-84.5 -80.5t-108.5 -40t-128 -12q-5 0 -61 2l-22 -126q-4 -20 -24 -20h-192q-16 0 -16 16v4l123 703q4 20 24 20h192q16 0 16 -16v-4l-9 -51q41 1 58 1q57 0 104.5 -10t89 -32t65 -65t23.5 -103zM508 429
q0 26 -18.5 36.5t-58.5 10.5h-62l-24 -135h62q78 0 96 64l2 7q3 12 3 17z" />
    <glyph glyph-name="germandbls" unicode="&#xdf;" horiz-adv-x="696" 
d="M751 577q0 -7 -1 -13l-5 -31q-13 -83 -97 -133q26 -20 40 -53.5t14 -62.5v-16v-6l-5 -30q-21 -125 -100 -183.5t-191 -58.5q-43 0 -71 7q-16 4 -16 17v3l25 143q4 20 24 20h46q30 0 42 12t17 40l5 30q1 5 1 15q0 39 -61 39h-23q-17 0 -17 17v3l20 114q4 20 24 20h23
q38 0 53.5 10.5t20.5 37.5l6 31q1 4 1 12q0 36 -61 36q-46 0 -69 -16t-31 -65l-87 -496q-4 -20 -24 -20h-184q-16 0 -16 17v3l87 496q27 154 111 212.5t247 58.5q70 0 121.5 -19t78.5 -50.5t39.5 -63.5t12.5 -65v-12z" />
    <glyph glyph-name="agrave" unicode="&#xe0;" horiz-adv-x="642" 
d="M688 550q0 -6 -1 -9l-91 -521q-4 -20 -20 -20h-143q-8 0 -14 5t-6 12v3l4 28q-67 -58 -150 -58q-80 0 -134.5 52.5t-54.5 147.5q0 21 5 51l16 93q26 151 107.5 208.5t216.5 57.5q91 0 231 -24q18 -3 26 -8.5t8 -17.5zM442 413q-24 3 -43 3q-34 0 -51 -17t-26 -65
l-20 -112q-1 -5 -1 -14q0 -21 9 -28.5t30 -7.5q28 0 62 16zM554 644q0 -9 -10 -9h-142q-14 0 -23 10l-109 119q-3 4 -3 7q0 8 12 8h177q17 0 27 -15l69 -112q2 -3 2 -8z" />
    <glyph glyph-name="aacute" unicode="&#xe1;" horiz-adv-x="642" 
d="M688 550q0 -6 -1 -9l-91 -521q-4 -20 -20 -20h-143q-8 0 -14 5t-6 12v3l4 28q-67 -58 -150 -58q-80 0 -134.5 52.5t-54.5 147.5q0 21 5 51l16 93q26 151 107.5 208.5t216.5 57.5q91 0 231 -24q18 -3 26 -8.5t8 -17.5zM442 413q-24 3 -43 3q-34 0 -51 -17t-26 -65
l-20 -112q-1 -5 -1 -14q0 -21 9 -28.5t30 -7.5q28 0 62 16zM686 773q0 -5 -6 -9l-151 -119q-13 -10 -27 -10h-154q-8 0 -8 6q0 5 6 11l107 112q15 15 31 15h191q11 0 11 -6z" />
    <glyph glyph-name="acircumflex" unicode="&#xe2;" horiz-adv-x="642" 
d="M688 550q0 -6 -1 -9l-91 -521q-4 -20 -20 -20h-143q-8 0 -14 5t-6 12v3l4 28q-67 -58 -150 -58q-80 0 -134.5 52.5t-54.5 147.5q0 21 5 51l16 93q26 151 107.5 208.5t216.5 57.5q91 0 231 -24q18 -3 26 -8.5t8 -17.5zM442 413q-24 3 -43 3q-34 0 -51 -17t-26 -65
l-20 -112q-1 -5 -1 -14q0 -21 9 -28.5t30 -7.5q28 0 62 16zM657 644q0 -9 -10 -9h-138q-14 0 -23 10l-40 49l-56 -49q-11 -10 -27 -10h-150q-8 0 -8 6q0 5 6 11l103 112q14 15 31 15h220q18 0 27 -15l63 -112q2 -3 2 -8z" />
    <glyph glyph-name="atilde" unicode="&#xe3;" horiz-adv-x="642" 
d="M688 550q0 -6 -1 -9l-91 -521q-4 -20 -20 -20h-143q-8 0 -14 5t-6 12v3l4 28q-67 -58 -150 -58q-80 0 -134.5 52.5t-54.5 147.5q0 21 5 51l16 93q26 151 107.5 208.5t216.5 57.5q91 0 231 -24q18 -3 26 -8.5t8 -17.5zM442 413q-24 3 -43 3q-34 0 -51 -17t-26 -65
l-20 -112q-1 -5 -1 -14q0 -21 9 -28.5t30 -7.5q28 0 62 16zM670 788v-4l-6 -40q-9 -57 -46 -86t-95 -29q-50 0 -92 24l-36 20q-23 12 -35 12q-14 0 -16 -13l-3 -16q-3 -17 -21 -17h-96q-15 0 -15 13v4l5 33q9 60 47 91t91 31q55 0 97 -24l36 -20q25 -13 36 -13q12 0 15 14
l3 16q3 17 21 17h95q15 0 15 -13z" />
    <glyph glyph-name="adieresis" unicode="&#xe4;" horiz-adv-x="642" 
d="M688 550q0 -6 -1 -9l-91 -521q-4 -20 -20 -20h-143q-8 0 -14 5t-6 12v3l4 28q-67 -58 -150 -58q-80 0 -134.5 52.5t-54.5 147.5q0 21 5 51l16 93q26 151 107.5 208.5t216.5 57.5q91 0 231 -24q18 -3 26 -8.5t8 -17.5zM442 413q-24 3 -43 3q-34 0 -51 -17t-26 -65
l-20 -112q-1 -5 -1 -14q0 -21 9 -28.5t30 -7.5q28 0 62 16zM660 761v-3l-18 -102q-1 -9 -9.5 -15t-17.5 -6h-139q-8 0 -13.5 5t-5.5 13v3l18 102q1 9 9 15t17 6h139q8 0 14 -5.5t6 -12.5zM430 761v-3l-18 -102q-1 -9 -9.5 -15t-17.5 -6h-139q-8 0 -13.5 5t-5.5 13v3l18 102
q1 9 9 15t17 6h139q8 0 14 -5.5t6 -12.5z" />
    <glyph glyph-name="aring" unicode="&#xe5;" horiz-adv-x="642" 
d="M688 550q0 -6 -1 -9l-91 -521q-4 -20 -20 -20h-143q-8 0 -14 5t-6 12v3l4 28q-67 -58 -150 -58q-80 0 -134.5 52.5t-54.5 147.5q0 21 5 51l16 93q26 151 107.5 208.5t216.5 57.5q91 0 231 -24q18 -3 26 -8.5t8 -17.5zM442 413q-24 3 -43 3q-34 0 -51 -17t-26 -65
l-20 -112q-1 -5 -1 -14q0 -21 9 -28.5t30 -7.5q28 0 62 16zM568 763q0 -53 -37.5 -90.5t-90.5 -37.5t-90.5 37.5t-37.5 90.5t37.5 90.5t90.5 37.5t90.5 -37.5t37.5 -90.5zM478 764q0 15 -11 26t-26 11t-25.5 -10.5t-10.5 -26.5t10.5 -26.5t25.5 -10.5t26 11t11 26z" />
    <glyph glyph-name="ae" unicode="&#xe6;" horiz-adv-x="903" 
d="M930 385q0 -31 -6 -66l-11 -61q-1 -9 -8.5 -15t-16.5 -6h-302q-2 -16 -2 -22q0 -24 17 -33t60 -9q105 0 189 7h1h3q16 0 16 -12q0 -1 -0.5 -3t-0.5 -3l-19 -105q-3 -19 -24 -29q-83 -38 -214 -38q-75 0 -130 31q-109 -31 -187 -31q-113 0 -171.5 43.5t-58.5 113.5v9
q0 15 2 24l2 10q10 50 35 82.5t66.5 49t85 22t106.5 5.5h24l3 22q1 4 1 11q0 21 -10.5 28t-31.5 7q-59 0 -179 -6h-1q-13 0 -13 17v4l20 114q3 17 25 25q82 29 180 29q109 0 167 -45q37 23 71.5 34t89.5 11q111 0 166.5 -59t55.5 -156zM723 385q0 47 -47 47q-31 0 -46.5 -20
t-23.5 -63h113q4 26 4 36zM373 237h-31q-54 0 -64 -47l-2 -10v-4v-6q0 -16 12 -22t37 -6q11 0 31 2z" />
    <glyph glyph-name="ccedilla" unicode="&#xe7;" horiz-adv-x="475" 
d="M539 565v-1l-24 -136q-2 -8 -9 -14.5t-15 -6.5h-1q-15 0 -50.5 3t-56.5 3q-30 0 -44.5 -19.5t-23.5 -65.5l-12 -66q-4 -20 -4 -40q0 -45 42 -45q21 0 57.5 3t51.5 3h1q7 0 12.5 -5.5t5.5 -12.5v-2v-1l-24 -136q-2 -14 -24 -19q-77 -17 -144 -17q-100 0 -151 57t-51 149
q0 32 6 66l12 66q25 138 97 205t195 67q72 0 138 -17q16 -5 16 -15v-3zM374 -50q0 -4 -6 -9l-151 -119q-13 -10 -27 -10h-150q-8 0 -8 6q0 5 6 11l109 112q15 15 31 15h185q11 0 11 -6z" />
    <glyph glyph-name="egrave" unicode="&#xe8;" horiz-adv-x="614" 
d="M641 387q0 -33 -6 -68l-11 -61q-4 -21 -25 -21h-302q-2 -16 -2 -22q0 -24 17 -33t60 -9q105 0 189 7h4q16 0 16 -13l-1 -2v-3l-19 -105q-2 -13 -7 -18.5t-17 -10.5q-42 -16 -109 -27t-127 -11q-100 0 -163.5 54t-63.5 154q0 28 6 60l11 61q27 149 110.5 215t217.5 66
q112 0 167 -58.5t55 -154.5zM434 383q0 49 -47 49q-30 0 -46 -20t-24 -63h113q4 26 4 34zM511 644q0 -9 -10 -9h-142q-14 0 -23 10l-109 119q-3 4 -3 7q0 8 12 8h177q17 0 27 -15l69 -112q2 -3 2 -8z" />
    <glyph glyph-name="eacute" unicode="&#xe9;" horiz-adv-x="614" 
d="M641 387q0 -33 -6 -68l-11 -61q-4 -21 -25 -21h-302q-2 -16 -2 -22q0 -24 17 -33t60 -9q105 0 189 7h4q16 0 16 -13l-1 -2v-3l-19 -105q-2 -13 -7 -18.5t-17 -10.5q-42 -16 -109 -27t-127 -11q-100 0 -163.5 54t-63.5 154q0 28 6 60l11 61q27 149 110.5 215t217.5 66
q112 0 167 -58.5t55 -154.5zM434 383q0 49 -47 49q-30 0 -46 -20t-24 -63h113q4 26 4 34zM665 773q0 -5 -6 -9l-151 -119q-13 -10 -27 -10h-154q-8 0 -8 6q0 5 6 11l107 112q15 15 31 15h191q11 0 11 -6z" />
    <glyph glyph-name="ecircumflex" unicode="&#xea;" horiz-adv-x="614" 
d="M641 387q0 -33 -6 -68l-11 -61q-4 -21 -25 -21h-302q-2 -16 -2 -22q0 -24 17 -33t60 -9q105 0 189 7h4q16 0 16 -13l-1 -2v-3l-19 -105q-2 -13 -7 -18.5t-17 -10.5q-42 -16 -109 -27t-127 -11q-100 0 -163.5 54t-63.5 154q0 28 6 60l11 61q27 149 110.5 215t217.5 66
q112 0 167 -58.5t55 -154.5zM434 383q0 49 -47 49q-30 0 -46 -20t-24 -63h113q4 26 4 34zM654 644q0 -9 -10 -9h-138q-14 0 -23 10l-40 49l-56 -49q-11 -10 -27 -10h-150q-8 0 -8 6q0 5 6 11l103 112q14 15 31 15h220q18 0 27 -15l63 -112q2 -3 2 -8z" />
    <glyph glyph-name="edieresis" unicode="&#xeb;" horiz-adv-x="614" 
d="M641 387q0 -33 -6 -68l-11 -61q-4 -21 -25 -21h-302q-2 -16 -2 -22q0 -24 17 -33t60 -9q105 0 189 7h4q16 0 16 -13l-1 -2v-3l-19 -105q-2 -13 -7 -18.5t-17 -10.5q-42 -16 -109 -27t-127 -11q-100 0 -163.5 54t-63.5 154q0 28 6 60l11 61q27 149 110.5 215t217.5 66
q112 0 167 -58.5t55 -154.5zM434 383q0 49 -47 49q-30 0 -46 -20t-24 -63h113q4 26 4 34zM652 761v-3l-18 -102q-1 -9 -9.5 -15t-17.5 -6h-139q-8 0 -13.5 5t-5.5 13v3l18 102q1 9 9 15t17 6h139q8 0 14 -5.5t6 -12.5zM422 761v-3l-18 -102q-1 -9 -9.5 -15t-17.5 -6h-139
q-8 0 -13.5 5t-5.5 13v3l18 102q1 9 9 15t17 6h139q8 0 14 -5.5t6 -12.5z" />
    <glyph glyph-name="igrave" unicode="&#xec;" horiz-adv-x="329" 
d="M377 573v-4l-96 -547q-1 -9 -9 -15.5t-17 -6.5h-179q-19 0 -19 19v3l96 547q1 9 9.5 15t17.5 6h179q18 0 18 -17zM398 644q0 -9 -10 -9h-142q-14 0 -23 10l-109 119q-3 4 -3 7q0 8 12 8h177q17 0 27 -15l69 -112q2 -3 2 -8z" />
    <glyph glyph-name="iacute" unicode="&#xed;" horiz-adv-x="329" 
d="M377 573v-4l-96 -547q-1 -9 -9 -15.5t-17 -6.5h-179q-19 0 -19 19v3l96 547q1 9 9.5 15t17.5 6h179q18 0 18 -17zM514 773q0 -5 -6 -9l-151 -119q-13 -10 -27 -10h-154q-8 0 -8 6q0 5 6 11l107 112q15 15 31 15h191q11 0 11 -6z" />
    <glyph glyph-name="icircumflex" unicode="&#xee;" horiz-adv-x="329" 
d="M377 573v-4l-96 -547q-1 -9 -9 -15.5t-17 -6.5h-179q-19 0 -19 19v3l96 547q1 9 9.5 15t17.5 6h179q18 0 18 -17zM509 644q0 -9 -10 -9h-138q-14 0 -23 10l-40 49l-56 -49q-11 -10 -27 -10h-150q-8 0 -8 6q0 5 6 11l103 112q14 15 31 15h220q18 0 27 -15l63 -112
q2 -3 2 -8z" />
    <glyph glyph-name="idieresis" unicode="&#xef;" horiz-adv-x="329" 
d="M377 573v-4l-96 -547q-1 -9 -9 -15.5t-17 -6.5h-179q-19 0 -19 19v3l96 547q1 9 9.5 15t17.5 6h179q18 0 18 -17zM512 761v-3l-18 -102q-1 -9 -9.5 -15t-17.5 -6h-139q-8 0 -13.5 5t-5.5 13v3l18 102q1 9 9 15t17 6h139q8 0 14 -5.5t6 -12.5zM282 761v-3l-18 -102
q-1 -9 -9.5 -15t-17.5 -6h-139q-8 0 -13.5 5t-5.5 13v3l18 102q1 9 9 15t17 6h139q8 0 14 -5.5t6 -12.5z" />
    <glyph glyph-name="eth" unicode="&#xf0;" horiz-adv-x="620" 
d="M644 387q0 -49 -9 -103l-2 -12q-47 -282 -325 -282q-111 0 -171.5 56t-60.5 157q0 25 7 69l2 11q52 282 325 282h4q-29 26 -77 51l-71 -48q-9 -6 -14 -6q-6 0 -10 6l-19 27q-2 4 -2 6q0 9 13 18l38 25q-13 5 -41 15q-13 4 -13 12q0 5 2 8l47 88q5 11 15 11q4 0 10 -2
q65 -18 116 -40l75 50q8 5 15 5q8 0 10 -5l19 -27q2 -2 2 -6q0 -9 -12 -16l-48 -32q175 -102 175 -318zM418 331q0 28 -10 39t-31 11q-27 0 -43.5 -21t-26.5 -77l-2 -11q-5 -32 -5 -48q0 -28 10 -39t31 -11q27 0 43.5 21t26.5 77l2 11q5 32 5 48z" />
    <glyph glyph-name="ntilde" unicode="&#xf1;" horiz-adv-x="652" 
d="M674 438q0 -30 -7 -70l-61 -346q-4 -22 -25 -22h-180q-18 0 -18 18v4l61 346q1 4 1 12q0 37 -43 37q-28 0 -58 -15l-67 -380q-4 -22 -24 -22h-180q-19 0 -19 19v3l97 548q4 20 23 20h165q17 0 17 -17v-3l-5 -28q44 32 79 45t92 13q82 0 117 -45t35 -117zM679 780v-4
l-6 -40q-9 -57 -46 -86t-95 -29q-50 0 -92 24l-36 20q-23 12 -35 12q-14 0 -16 -13l-3 -16q-3 -17 -21 -17h-96q-15 0 -15 13v4l5 33q9 60 47 91t91 31q55 0 97 -24l36 -20q25 -13 36 -13q12 0 15 14l3 16q3 17 21 17h95q15 0 15 -13z" />
    <glyph glyph-name="ograve" unicode="&#xf2;" horiz-adv-x="620" 
d="M648 389q0 -27 -7 -71l-8 -46q-27 -152 -108 -217t-217 -65q-112 0 -171.5 56.5t-59.5 157.5q0 32 6 68l8 46q26 150 108 216t217 66q111 0 171.5 -54.5t60.5 -156.5zM424 365q0 51 -41 51q-53 0 -70 -98l-8 -46q-5 -32 -5 -47q0 -51 41 -51q27 0 43.5 21t26.5 77l8 46
q5 32 5 47zM534 644q0 -9 -10 -9h-142q-14 0 -23 10l-109 119q-3 4 -3 7q0 8 12 8h177q17 0 27 -15l69 -112q2 -3 2 -8z" />
    <glyph glyph-name="oacute" unicode="&#xf3;" horiz-adv-x="620" 
d="M648 389q0 -27 -7 -71l-8 -46q-27 -152 -108 -217t-217 -65q-112 0 -171.5 56.5t-59.5 157.5q0 32 6 68l8 46q26 150 108 216t217 66q111 0 171.5 -54.5t60.5 -156.5zM424 365q0 51 -41 51q-53 0 -70 -98l-8 -46q-5 -32 -5 -47q0 -51 41 -51q27 0 43.5 21t26.5 77l8 46
q5 32 5 47zM651 773q0 -5 -6 -9l-151 -119q-13 -10 -27 -10h-154q-8 0 -8 6q0 5 6 11l107 112q15 15 31 15h191q11 0 11 -6z" />
    <glyph glyph-name="ocircumflex" unicode="&#xf4;" horiz-adv-x="620" 
d="M648 389q0 -27 -7 -71l-8 -46q-27 -152 -108 -217t-217 -65q-112 0 -171.5 56.5t-59.5 157.5q0 32 6 68l8 46q26 150 108 216t217 66q111 0 171.5 -54.5t60.5 -156.5zM424 365q0 51 -41 51q-53 0 -70 -98l-8 -46q-5 -32 -5 -47q0 -51 41 -51q27 0 43.5 21t26.5 77l8 46
q5 32 5 47zM649 644q0 -9 -10 -9h-138q-14 0 -23 10l-40 49l-56 -49q-11 -10 -27 -10h-150q-8 0 -8 6q0 5 6 11l103 112q14 15 31 15h220q18 0 27 -15l63 -112q2 -3 2 -8z" />
    <glyph glyph-name="otilde" unicode="&#xf5;" horiz-adv-x="620" 
d="M648 389q0 -27 -7 -71l-8 -46q-27 -152 -108 -217t-217 -65q-112 0 -171.5 56.5t-59.5 157.5q0 32 6 68l8 46q26 150 108 216t217 66q111 0 171.5 -54.5t60.5 -156.5zM424 365q0 51 -41 51q-53 0 -70 -98l-8 -46q-5 -32 -5 -47q0 -51 41 -51q27 0 43.5 21t26.5 77l8 46
q5 32 5 47zM665 780v-4l-6 -40q-9 -57 -46 -86t-95 -29q-50 0 -92 24l-36 20q-23 12 -35 12q-14 0 -16 -13l-3 -16q-3 -17 -21 -17h-96q-15 0 -15 13v4l5 33q9 60 47 91t91 31q55 0 97 -24l36 -20q25 -13 36 -13q12 0 15 14l3 16q3 17 21 17h95q15 0 15 -13z" />
    <glyph glyph-name="odieresis" unicode="&#xf6;" horiz-adv-x="620" 
d="M648 389q0 -27 -7 -71l-8 -46q-27 -152 -108 -217t-217 -65q-112 0 -171.5 56.5t-59.5 157.5q0 32 6 68l8 46q26 150 108 216t217 66q111 0 171.5 -54.5t60.5 -156.5zM424 365q0 51 -41 51q-53 0 -70 -98l-8 -46q-5 -32 -5 -47q0 -51 41 -51q27 0 43.5 21t26.5 77l8 46
q5 32 5 47zM651 761v-3l-18 -102q-1 -9 -9.5 -15t-17.5 -6h-139q-8 0 -13.5 5t-5.5 13v3l18 102q4 21 26 21h139q8 0 14 -5.5t6 -12.5zM421 761v-3l-18 -102q-1 -9 -9.5 -15t-17.5 -6h-139q-8 0 -13.5 5t-5.5 13v3l18 102q4 21 26 21h139q8 0 14 -5.5t6 -12.5z" />
    <glyph glyph-name="divide" unicode="&#xf7;" horiz-adv-x="640" 
d="M500 572q0 -8 -6.5 -14t-14.5 -6h-174q-8 0 -14.5 6t-6.5 14v132q0 8 6.5 14t14.5 6h174q8 0 14.5 -6t6.5 -14v-132zM635 326q0 -16 -20 -16h-445q-20 0 -20 16v130q0 16 20 16h445q20 0 20 -16v-130zM500 57q0 -8 -6.5 -14t-14.5 -6h-174q-8 0 -14.5 6t-6.5 14v132
q0 8 6.5 14t14.5 6h174q8 0 14.5 -6t6.5 -14v-132z" />
    <glyph glyph-name="oslash" unicode="&#xf8;" horiz-adv-x="620" 
d="M695 619q0 -7 -6 -13l-79 -86q38 -54 38 -131q0 -27 -7 -71l-8 -46q-27 -152 -108 -217t-217 -65q-92 0 -148 38l-48 -53q-9 -10 -18 -10h-58q-7 0 -7 6q0 7 6 13l80 87q-38 53 -38 133q0 32 6 68l8 46q26 150 108 216t217 66q90 0 149 -37l47 52q9 10 18 10h58q7 0 7 -6
zM416 401q-10 15 -33 15q-54 0 -70 -98l-6 -37zM417 309l-109 -120q10 -15 33 -15q27 0 44 21t26 77z" />
    <glyph glyph-name="ugrave" unicode="&#xf9;" horiz-adv-x="652" 
d="M702 571v-3l-97 -548q-4 -20 -23 -20h-165q-17 0 -17 17v3l5 28q-29 -20 -47 -30.5t-49.5 -19t-69.5 -8.5q-80 0 -118 48t-38 123q0 31 6 61l61 346q4 22 25 22h180q18 0 18 -18v-4l-61 -346q-1 -4 -1 -12q0 -37 43 -37q28 0 58 15l67 380q4 22 24 22h180q19 0 19 -19z
M544 644q0 -9 -10 -9h-142q-14 0 -23 10l-109 119q-3 4 -3 7q0 8 12 8h177q17 0 27 -15l69 -112q2 -3 2 -8z" />
    <glyph glyph-name="uacute" unicode="&#xfa;" horiz-adv-x="652" 
d="M702 571v-3l-97 -548q-4 -20 -23 -20h-165q-17 0 -17 17v3l5 28q-29 -20 -47 -30.5t-49.5 -19t-69.5 -8.5q-80 0 -118 48t-38 123q0 31 6 61l61 346q4 22 25 22h180q18 0 18 -18v-4l-61 -346q-1 -4 -1 -12q0 -37 43 -37q28 0 58 15l67 380q4 22 24 22h180q19 0 19 -19z
M681 773q0 -5 -6 -9l-151 -119q-13 -10 -27 -10h-154q-8 0 -8 6q0 5 6 11l107 112q15 15 31 15h191q11 0 11 -6z" />
    <glyph glyph-name="ucircumflex" unicode="&#xfb;" horiz-adv-x="652" 
d="M702 571v-3l-97 -548q-4 -20 -23 -20h-165q-17 0 -17 17v3l5 28q-29 -20 -47 -30.5t-49.5 -19t-69.5 -8.5q-80 0 -118 48t-38 123q0 31 6 61l61 346q4 22 25 22h180q18 0 18 -18v-4l-61 -346q-1 -4 -1 -12q0 -37 43 -37q28 0 58 15l67 380q4 22 24 22h180q19 0 19 -19z
M664 644q0 -9 -10 -9h-138q-14 0 -23 10l-40 49l-56 -49q-11 -10 -27 -10h-150q-8 0 -8 6q0 5 6 11l103 112q14 15 31 15h220q18 0 27 -15l63 -112q2 -3 2 -8z" />
    <glyph glyph-name="udieresis" unicode="&#xfc;" horiz-adv-x="652" 
d="M702 571v-3l-97 -548q-4 -20 -23 -20h-165q-17 0 -17 17v3l5 28q-29 -20 -47 -30.5t-49.5 -19t-69.5 -8.5q-80 0 -118 48t-38 123q0 31 6 61l61 346q4 22 25 22h180q18 0 18 -18v-4l-61 -346q-1 -4 -1 -12q0 -37 43 -37q28 0 58 15l67 380q4 22 24 22h180q19 0 19 -19z
M670 761v-3l-18 -102q-1 -9 -9.5 -15t-17.5 -6h-139q-8 0 -13.5 5t-5.5 13v3l18 102q1 9 9 15t17 6h139q8 0 14 -5.5t6 -12.5zM440 761v-3l-18 -102q-1 -9 -9.5 -15t-17.5 -6h-139q-8 0 -13.5 5t-5.5 13v3l18 102q1 9 9 15t17 6h139q8 0 14 -5.5t6 -12.5z" />
    <glyph glyph-name="yacute" unicode="&#xfd;" horiz-adv-x="656" 
d="M741 575q0 -4 -1 -6l-276 -600q-20 -43 -41.5 -72.5t-53.5 -54t-78 -36.5t-107 -12q-34 0 -80.5 6.5t-66.5 14.5q-19 8 -19 17v3l20 114q2 8 10 15t16 7h1q98 -7 149 -7q33 0 44 23l15 34h-13q-34 0 -55.5 16t-27.5 62l-61 470v3q0 18 26 18h191q16 0 16 -21l13 -312
q0 -14 7 -14h7l121 326q8 21 26 21h200q18 0 18 -15zM685 773q0 -5 -6 -9l-151 -119q-13 -10 -27 -10h-154q-8 0 -8 6q0 5 6 11l107 112q15 15 31 15h191q11 0 11 -6z" />
    <glyph glyph-name="thorn" unicode="&#xfe;" horiz-adv-x="636" 
d="M666 397q0 -30 -6 -63l-14 -78q-47 -266 -322 -266q-27 0 -53 6l-29 -164q-4 -21 -23 -21h-179q-8 0 -14 5.5t-6 12.5v2v1l164 927q4 20 23 20h182q7 0 12 -5t5 -12v-2v-1l-28 -160q18 1 54 1q111 0 172.5 -51t61.5 -152zM441 366q0 50 -42 50q-26 0 -54 -3l-42 -236
q17 -3 54 -3q53 0 67 82l14 78q3 18 3 32z" />
    <glyph glyph-name="ydieresis" unicode="&#xff;" horiz-adv-x="656" 
d="M741 575q0 -4 -1 -6l-276 -600q-20 -43 -41.5 -72.5t-53.5 -54t-78 -36.5t-107 -12q-34 0 -80.5 6.5t-66.5 14.5q-19 8 -19 17v3l20 114q2 8 10 15t16 7h1q98 -7 149 -7q33 0 44 23l15 34h-13q-34 0 -55.5 16t-27.5 62l-61 470v3q0 18 26 18h191q16 0 16 -21l13 -312
q0 -14 7 -14h7l121 326q8 21 26 21h200q18 0 18 -15zM668 761v-3l-18 -102q-1 -9 -9.5 -15t-17.5 -6h-139q-8 0 -13.5 5t-5.5 13v3l18 102q1 9 9 15t17 6h139q8 0 14 -5.5t6 -12.5zM438 761v-3l-18 -102q-1 -9 -9.5 -15t-17.5 -6h-139q-8 0 -13.5 5t-5.5 13v3l18 102
q1 9 9 15t17 6h139q8 0 14 -5.5t6 -12.5z" />
    <glyph glyph-name="Amacron" unicode="&#x100;" horiz-adv-x="716" 
d="M699 19q0 -19 -19 -19h-207q-17 0 -17 20l1 112h-152l-37 -112q-7 -20 -25 -20h-209q-13 0 -13 11q0 3 2 9l225 604q27 73 86 101t157 28t146 -28t49 -101l13 -604v-1zM464 554q0 8 -7 8q-2 0 -3.5 -0.5t-3 -2t-2 -2.5t-1.5 -4t-1 -4l-78 -233h92l4 233v5zM727 921v-3
l-19 -104q-4 -20 -23 -20h-354q-17 0 -17 17v3l19 104q4 20 23 20h354q17 0 17 -17z" />
    <glyph glyph-name="amacron" unicode="&#x101;" horiz-adv-x="642" 
d="M688 550q0 -6 -1 -9l-91 -521q-4 -20 -20 -20h-143q-8 0 -14 5t-6 12v3l4 28q-67 -58 -150 -58q-80 0 -134.5 52.5t-54.5 147.5q0 21 5 51l16 93q26 151 107.5 208.5t216.5 57.5q91 0 231 -24q18 -3 26 -8.5t8 -17.5zM442 413q-24 3 -43 3q-34 0 -51 -17t-26 -65
l-20 -112q-1 -5 -1 -14q0 -21 9 -28.5t30 -7.5q28 0 62 16zM693 762v-3l-19 -104q-4 -20 -23 -20h-354q-17 0 -17 17v3l19 104q4 20 23 20h354q17 0 17 -17z" />
    <glyph glyph-name="Abreve" unicode="&#x102;" horiz-adv-x="716" 
d="M699 19q0 -19 -19 -19h-207q-17 0 -17 20l1 112h-152l-37 -112q-7 -20 -25 -20h-209q-13 0 -13 11q0 3 2 9l225 604q27 73 86 101t157 28t146 -28t49 -101l13 -604v-1zM464 554q0 8 -7 8q-2 0 -3.5 -0.5t-3 -2t-2 -2.5t-1.5 -4t-1 -4l-78 -233h92l4 233v5zM519 898
q48 0 71 33q1 1 2 4q6 9 16 9h126q13 0 13 -9q0 -11 -8 -25q-69 -124 -228 -124q-158 0 -208 124q-5 15 -5 21q0 13 14 13h125q13 0 20 -13q9 -18 22 -25.5t40 -7.5z" />
    <glyph glyph-name="abreve" unicode="&#x103;" horiz-adv-x="642" 
d="M688 550q0 -6 -1 -9l-91 -521q-4 -20 -20 -20h-143q-8 0 -14 5t-6 12v3l4 28q-67 -58 -150 -58q-80 0 -134.5 52.5t-54.5 147.5q0 21 5 51l16 93q26 151 107.5 208.5t216.5 57.5q91 0 231 -24q18 -3 26 -8.5t8 -17.5zM442 413q-24 3 -43 3q-34 0 -51 -17t-26 -65
l-20 -112q-1 -5 -1 -14q0 -21 9 -28.5t30 -7.5q28 0 62 16zM461 741q48 0 71 33q1 1 2 4q6 9 16 9h126q13 0 13 -9q0 -11 -8 -25q-69 -124 -228 -124q-158 0 -208 124q-5 15 -5 21q0 13 14 13h125q13 0 20 -13q9 -18 22 -25.5t40 -7.5z" />
    <glyph glyph-name="Aogonek" unicode="&#x104;" horiz-adv-x="716" 
d="M699 19q0 -16 -16 -19l-100 -21q-47 -10 -47 -41q0 -16 9.5 -20.5t27.5 -4.5q14 0 39.5 3.5t29.5 3.5q10 0 8 -12l-13 -73q-3 -13 -13 -16q-50 -20 -137 -20q-66 0 -99.5 23t-33.5 65q0 39 23 65.5t79 55.5l1 124h-152l-37 -112q-7 -20 -25 -20h-209q-13 0 -13 11
q0 3 2 9l225 604q27 73 86 101t157 28t146 -28t49 -101l13 -604v-1zM464 554q0 8 -7 8q-2 0 -3.5 -0.5t-3 -2t-2 -2.5t-1.5 -4t-1 -4l-78 -233h92l4 233v5z" />
    <glyph glyph-name="aogonek" unicode="&#x105;" horiz-adv-x="642" 
d="M423 600q91 0 231 -24q19 -3 27.5 -10.5t5.5 -24.5l-91 -521q-2 -12 -10 -17l-37 -24q-47 -30 -47 -51q0 -9 7 -12t26 -3q17 0 43.5 3.5t29.5 3.5q10 0 8 -12l-13 -73q-1 -11 -13 -16q-13 -5 -54.5 -12.5t-82.5 -7.5q-66 0 -99.5 23t-33.5 65q0 76 90 122l7 39
q-67 -58 -150 -58q-80 0 -134.5 52.5t-54.5 147.5q0 21 5 51l16 93q26 151 107.5 208.5t216.5 57.5zM442 413q-24 3 -43 3q-34 0 -51 -17t-26 -65l-20 -112q-1 -5 -1 -14q0 -21 9 -28.5t30 -7.5q28 0 62 16z" />
    <glyph glyph-name="Cacute" unicode="&#x106;" horiz-adv-x="548" 
d="M640 717v-2q-1 -2 -1 -3l-28 -158q-3 -18 -20 -18h-2h-1q-72 9 -131 9q-18 0 -30.5 -3.5t-27.5 -16t-27 -41t-20 -72.5l-15 -81q-7 -38 -7 -65q0 -43 16.5 -55.5t49.5 -12.5q38 0 134 9h1h3q13 0 13 -12q0 -1 -0.5 -3t-0.5 -3l-28 -158q-1 -10 -5.5 -13.5t-18.5 -8.5
q-59 -19 -135 -19q-134 0 -202 66t-68 184q0 43 9 91l15 81q34 186 123 263.5t251 77.5q83 0 134 -19q18 -10 19 -17zM702 932q0 -4 -6 -9l-151 -119q-13 -10 -27 -10h-154q-8 0 -8 6q0 5 6 11l107 112q15 15 31 15h191q11 0 11 -6z" />
    <glyph glyph-name="cacute" unicode="&#x107;" horiz-adv-x="475" 
d="M539 565v-1l-24 -136q-2 -8 -9 -14.5t-15 -6.5h-1q-15 0 -50.5 3t-56.5 3q-30 0 -44.5 -19.5t-23.5 -65.5l-12 -66q-4 -20 -4 -40q0 -45 42 -45q21 0 57.5 3t51.5 3h1q7 0 12.5 -5.5t5.5 -12.5v-2v-1l-24 -136q-2 -14 -24 -19q-77 -17 -144 -17q-100 0 -151 57t-51 149
q0 32 6 66l12 66q25 138 97 205t195 67q72 0 138 -17q16 -5 16 -15v-3zM615 773q0 -5 -6 -9l-151 -119q-13 -10 -27 -10h-154q-8 0 -8 6q0 5 6 11l107 112q15 15 31 15h191q11 0 11 -6z" />
    <glyph glyph-name="Ccircumflex" unicode="&#x108;" horiz-adv-x="548" 
d="M640 717v-2q-1 -2 -1 -3l-28 -158q-3 -18 -20 -18h-2h-1q-72 9 -131 9q-18 0 -30.5 -3.5t-27.5 -16t-27 -41t-20 -72.5l-15 -81q-7 -38 -7 -65q0 -43 16.5 -55.5t49.5 -12.5q38 0 134 9h1h3q13 0 13 -12q0 -1 -0.5 -3t-0.5 -3l-28 -158q-1 -10 -5.5 -13.5t-18.5 -8.5
q-59 -19 -135 -19q-134 0 -202 66t-68 184q0 43 9 91l15 81q34 186 123 263.5t251 77.5q83 0 134 -19q18 -10 19 -17zM658 803q0 -9 -10 -9h-138q-14 0 -23 10l-40 49l-56 -49q-11 -10 -27 -10h-150q-8 0 -8 6q0 5 6 11l103 112q14 15 31 15h220q18 0 27 -15l63 -112
q2 -3 2 -8z" />
    <glyph glyph-name="ccircumflex" unicode="&#x109;" horiz-adv-x="475" 
d="M539 565v-1l-24 -136q-2 -8 -9 -14.5t-15 -6.5h-1q-15 0 -50.5 3t-56.5 3q-30 0 -44.5 -19.5t-23.5 -65.5l-12 -66q-4 -20 -4 -40q0 -45 42 -45q21 0 57.5 3t51.5 3h1q7 0 12.5 -5.5t5.5 -12.5v-2v-1l-24 -136q-2 -14 -24 -19q-77 -17 -144 -17q-100 0 -151 57t-51 149
q0 32 6 66l12 66q25 138 97 205t195 67q72 0 138 -17q16 -5 16 -15v-3zM584 644q0 -9 -10 -9h-138q-14 0 -23 10l-40 49l-56 -49q-11 -10 -27 -10h-150q-8 0 -8 6q0 5 6 11l103 112q14 15 31 15h220q18 0 27 -15l63 -112q2 -3 2 -8z" />
    <glyph glyph-name="Cdotaccent" unicode="&#x10a;" horiz-adv-x="548" 
d="M640 717v-2q-1 -2 -1 -3l-28 -158q-3 -18 -20 -18h-2h-1q-72 9 -131 9q-18 0 -30.5 -3.5t-27.5 -16t-27 -41t-20 -72.5l-15 -81q-7 -38 -7 -65q0 -43 16.5 -55.5t49.5 -12.5q38 0 134 9h1h3q13 0 13 -12q0 -1 -0.5 -3t-0.5 -3l-28 -158q-1 -10 -5.5 -13.5t-18.5 -8.5
q-59 -19 -135 -19q-134 0 -202 66t-68 184q0 43 9 91l15 81q34 186 123 263.5t251 77.5q83 0 134 -19q18 -10 19 -17zM592 933v-3l-21 -116q-4 -20 -24 -20h-174q-18 0 -18 17v3l21 116q4 20 24 20h174q18 0 18 -17z" />
    <glyph glyph-name="cdotaccent" unicode="&#x10b;" horiz-adv-x="475" 
d="M539 565v-1l-24 -136q-2 -8 -9 -14.5t-15 -6.5h-1q-15 0 -50.5 3t-56.5 3q-30 0 -44.5 -19.5t-23.5 -65.5l-12 -66q-4 -20 -4 -40q0 -45 42 -45q21 0 57.5 3t51.5 3h1q7 0 12.5 -5.5t5.5 -12.5v-2v-1l-24 -136q-2 -14 -24 -19q-77 -17 -144 -17q-100 0 -151 57t-51 149
q0 32 6 66l12 66q25 138 97 205t195 67q72 0 138 -17q16 -5 16 -15v-3zM518 774v-3l-21 -116q-4 -20 -24 -20h-174q-18 0 -18 17v3l21 116q4 20 24 20h174q18 0 18 -17z" />
    <glyph glyph-name="Ccaron" unicode="&#x10c;" horiz-adv-x="548" 
d="M640 717v-2q-1 -2 -1 -3l-28 -158q-3 -18 -20 -18h-2h-1q-72 9 -131 9q-18 0 -30.5 -3.5t-27.5 -16t-27 -41t-20 -72.5l-15 -81q-7 -38 -7 -65q0 -43 16.5 -55.5t49.5 -12.5q38 0 134 9h1h3q13 0 13 -12q0 -1 -0.5 -3t-0.5 -3l-28 -158q-1 -10 -5.5 -13.5t-18.5 -8.5
q-59 -19 -135 -19q-134 0 -202 66t-68 184q0 43 9 91l15 81q34 186 123 263.5t251 77.5q83 0 134 -19q18 -10 19 -17zM706 932q0 -5 -6 -11l-108 -112q-15 -15 -32 -15h-220q-11 0 -15.5 3t-10.5 12l-70 112q-3 5 -3 8q0 9 11 9h150q15 0 24 -10l40 -45l56 45q13 10 26 10
h150q8 0 8 -6z" />
    <glyph glyph-name="ccaron" unicode="&#x10d;" horiz-adv-x="475" 
d="M539 565v-1l-24 -136q-2 -8 -9 -14.5t-15 -6.5h-1q-15 0 -50.5 3t-56.5 3q-30 0 -44.5 -19.5t-23.5 -65.5l-12 -66q-4 -20 -4 -40q0 -45 42 -45q21 0 57.5 3t51.5 3h1q7 0 12.5 -5.5t5.5 -12.5v-2v-1l-24 -136q-2 -14 -24 -19q-77 -17 -144 -17q-100 0 -151 57t-51 149
q0 32 6 66l12 66q25 138 97 205t195 67q72 0 138 -17q16 -5 16 -15v-3zM636 773q0 -5 -6 -11l-108 -112q-15 -15 -32 -15h-220q-11 0 -15.5 3t-10.5 12l-70 112q-3 4 -3 8q0 9 11 9h150q15 0 24 -10l40 -45l56 45q13 10 26 10h150q8 0 8 -6z" />
    <glyph glyph-name="Dcaron" unicode="&#x10e;" horiz-adv-x="706" 
d="M748 502q0 -45 -8 -85l-17 -91q-35 -184 -129.5 -260t-258.5 -76q-139 0 -243 19q-29 6 -29 29q0 9 1 14l113 639q4 22 13 31t29 12q111 19 249 19q127 0 203.5 -65t76.5 -186zM509 484q0 38 -18 52.5t-59 14.5h-44l-63 -359h44q53 0 76 26t39 108l17 91q8 43 8 67z
M751 932q0 -5 -6 -11l-108 -112q-15 -15 -32 -15h-220q-11 0 -15.5 3t-10.5 12l-70 112q-3 5 -3 8q0 9 11 9h150q15 0 24 -10l40 -45l56 45q13 10 26 10h150q8 0 8 -6z" />
    <glyph glyph-name="dcaron" unicode="&#x10f;" horiz-adv-x="881" 
d="M720 761v-3l-125 -709q-5 -27 -47 -35q-131 -24 -240 -24q-107 0 -170 60.5t-63 155.5q0 22 5 50l14 78q25 140 103 203t219 63q27 0 53 -6l29 164q4 21 23 21h179q8 0 14 -5.5t6 -12.5zM437 413q-48 3 -54 3q-30 0 -44.5 -19t-22.5 -63l-14 -78q-4 -20 -4 -38
q0 -44 43 -44q25 0 54 3zM1025 768l-4 -8l-140 -230q-10 -19 -22 -19h-109q-11 0 -11 9q0 6 3 10l105 230q8 19 24 19h144q10 0 10 -9v-2z" />
    <glyph glyph-name="Dcroat" unicode="&#x110;" horiz-adv-x="706" 
d="M748 502q0 -45 -8 -85l-17 -91q-35 -184 -129.5 -260t-258.5 -76q-139 0 -243 19q-29 6 -29 29q0 9 1 14l41 232h-48q-16 0 -16 16v3v1l24 141q4 20 24 20h48l40 226q4 22 13 31t29 12q111 19 249 19q127 0 203.5 -65t76.5 -186zM509 484q0 38 -18 52.5t-59 14.5h-44
l-15 -86h44q16 0 16 -16v-3v-1l-24 -141q-4 -20 -24 -20h-44l-16 -92h44q53 0 76 26t39 108l17 91q8 43 8 67z" />
    <glyph glyph-name="dcroat" unicode="&#x111;" horiz-adv-x="636" 
d="M727 635h-29l-103 -586q-5 -27 -47 -35q-131 -24 -240 -24q-107 0 -170 60.5t-63 155.5q0 22 5 50l14 78q25 140 103 203t219 63q27 0 53 -6l7 41h-140q-8 0 -13 6t-3 14l10 60q4 20 24 20h140l4 23q4 21 23 21h179q8 0 14 -5.5t6 -12.5v-3l-4 -23h29q8 0 13 -6t3 -14
l-10 -60q-4 -20 -24 -20zM437 413q-48 3 -54 3q-30 0 -44.5 -19t-22.5 -63l-14 -78q-4 -20 -4 -38q0 -44 43 -44q25 0 54 3z" />
    <glyph glyph-name="Emacron" unicode="&#x112;" horiz-adv-x="595" 
d="M667 726v-4l-26 -151q-4 -20 -24 -20h-201q-19 0 -26.5 -6.5t-11.5 -25.5l-10 -54h234q16 0 16 -16v-4l-24 -141q-4 -20 -24 -20h-234l-11 -60q-1 -5 -1 -12q0 -20 29 -20h201q16 0 16 -16v-4l-26 -151q-3 -18 -24 -20q-92 -11 -203 -11q-104 0 -168.5 42t-64.5 137
q0 30 5 55l53 295q8 47 23.5 83.5t33 61t43 41.5t47.5 26.5t53.5 14.5t54 6t55.5 1q109 0 199 -11q16 -2 16 -16zM669 921v-3l-19 -104q-4 -20 -23 -20h-354q-17 0 -17 17v3l19 104q4 20 23 20h354q17 0 17 -17z" />
    <glyph glyph-name="emacron" unicode="&#x113;" horiz-adv-x="614" 
d="M641 387q0 -33 -6 -68l-11 -61q-4 -21 -25 -21h-302q-2 -16 -2 -22q0 -24 17 -33t60 -9q105 0 189 7h4q16 0 16 -13l-1 -2v-3l-19 -105q-2 -13 -7 -18.5t-17 -10.5q-42 -16 -109 -27t-127 -11q-100 0 -163.5 54t-63.5 154q0 28 6 60l11 61q27 149 110.5 215t217.5 66
q112 0 167 -58.5t55 -154.5zM434 383q0 49 -47 49q-30 0 -46 -20t-24 -63h113q4 26 4 34zM648 762v-3l-19 -104q-4 -20 -23 -20h-354q-17 0 -17 17v3l19 104q4 20 23 20h354q17 0 17 -17z" />
    <glyph glyph-name="Ebreve" unicode="&#x114;" horiz-adv-x="595" 
d="M667 726v-4l-26 -151q-4 -20 -24 -20h-201q-19 0 -26.5 -6.5t-11.5 -25.5l-10 -54h234q16 0 16 -16v-4l-24 -141q-4 -20 -24 -20h-234l-11 -60q-1 -5 -1 -12q0 -20 29 -20h201q16 0 16 -16v-4l-26 -151q-3 -18 -24 -20q-92 -11 -203 -11q-104 0 -168.5 42t-64.5 137
q0 30 5 55l53 295q8 47 23.5 83.5t33 61t43 41.5t47.5 26.5t53.5 14.5t54 6t55.5 1q109 0 199 -11q16 -2 16 -16zM469 895q48 0 71 33q1 1 2 4q6 9 16 9h126q13 0 13 -9q0 -11 -8 -25q-69 -124 -228 -124q-158 0 -208 124q-5 15 -5 21q0 13 14 13h125q13 0 20 -13
q9 -18 22 -25.5t40 -7.5z" />
    <glyph glyph-name="ebreve" unicode="&#x115;" horiz-adv-x="614" 
d="M641 387q0 -33 -6 -68l-11 -61q-4 -21 -25 -21h-302q-2 -16 -2 -22q0 -24 17 -33t60 -9q105 0 189 7h4q16 0 16 -13l-1 -2v-3l-19 -105q-2 -13 -7 -18.5t-17 -10.5q-42 -16 -109 -27t-127 -11q-100 0 -163.5 54t-63.5 154q0 28 6 60l11 61q27 149 110.5 215t217.5 66
q112 0 167 -58.5t55 -154.5zM434 383q0 49 -47 49q-30 0 -46 -20t-24 -63h113q4 26 4 34zM439 740q48 0 71 33q1 1 2 4q6 9 16 9h126q13 0 13 -9q0 -11 -8 -25q-69 -124 -228 -124q-158 0 -208 124q-5 15 -5 21q0 13 14 13h125q13 0 20 -13q9 -18 22 -25.5t40 -7.5z" />
    <glyph glyph-name="Edotaccent" unicode="&#x116;" horiz-adv-x="595" 
d="M667 726v-4l-26 -151q-4 -20 -24 -20h-201q-19 0 -26.5 -6.5t-11.5 -25.5l-10 -54h234q16 0 16 -16v-4l-24 -141q-4 -20 -24 -20h-234l-11 -60q-1 -5 -1 -12q0 -20 29 -20h201q16 0 16 -16v-4l-26 -151q-3 -18 -24 -20q-92 -11 -203 -11q-104 0 -168.5 42t-64.5 137
q0 30 5 55l53 295q8 47 23.5 83.5t33 61t43 41.5t47.5 26.5t53.5 14.5t54 6t55.5 1q109 0 199 -11q16 -2 16 -16zM581 927v-3l-21 -116q-4 -20 -24 -20h-174q-18 0 -18 17v3l21 116q4 20 24 20h174q18 0 18 -17z" />
    <glyph glyph-name="edotaccent" unicode="&#x117;" horiz-adv-x="614" 
d="M641 387q0 -33 -6 -68l-11 -61q-4 -21 -25 -21h-302q-2 -16 -2 -22q0 -24 17 -33t60 -9q105 0 189 7h4q16 0 16 -13l-1 -2v-3l-19 -105q-2 -13 -7 -18.5t-17 -10.5q-42 -16 -109 -27t-127 -11q-100 0 -163.5 54t-63.5 154q0 28 6 60l11 61q27 149 110.5 215t217.5 66
q112 0 167 -58.5t55 -154.5zM434 383q0 49 -47 49q-30 0 -46 -20t-24 -63h113q4 26 4 34zM567 768v-3l-21 -116q-4 -20 -24 -20h-174q-18 0 -18 17v3l21 116q4 20 24 20h174q18 0 18 -17z" />
    <glyph glyph-name="Eogonek" unicode="&#x118;" horiz-adv-x="595" 
d="M667 726v-4l-26 -151q-4 -20 -24 -20h-201q-19 0 -26.5 -6.5t-11.5 -25.5l-10 -54h234q16 0 16 -16v-4l-24 -141q-4 -20 -24 -20h-234l-11 -60q-1 -5 -1 -12q0 -20 29 -20h201q16 0 16 -16v-4l-26 -151q-3 -18 -24 -20q-3 0 -15.5 -1.5t-19.5 -2.5l-31 -18
q-47 -27 -47 -51q0 -9 7 -12t26 -3q17 0 43.5 3.5t29.5 3.5q7 0 8.5 -2t-0.5 -10l-13 -73v-1q-1 -9 -13 -15q-50 -20 -137 -20q-66 0 -99.5 23t-33.5 65q0 35 16.5 59t52.5 45q-95 4 -152.5 46t-57.5 132q0 30 5 55l53 295q8 47 23.5 83.5t33 61t43 41.5t47.5 26.5
t53.5 14.5t54 6t55.5 1q109 0 199 -11q16 -2 16 -16z" />
    <glyph glyph-name="eogonek" unicode="&#x119;" horiz-adv-x="614" 
d="M641 387q0 -33 -6 -68l-11 -61q-4 -21 -25 -21h-302q-2 -16 -2 -22q0 -24 17 -33t60 -9q105 0 189 7h4q16 0 16 -13l-1 -2v-3l-19 -105q-5 -27 -18 -35l-73 -43q-47 -27 -47 -51q0 -9 7 -12t26 -3q17 0 43.5 3.5t29.5 3.5q7 0 8.5 -2t-0.5 -10l-13 -73v-1q-1 -9 -13 -15
q-50 -20 -137 -20q-66 0 -99.5 23t-33.5 65q0 63 68 103h-8q-100 0 -163.5 54t-63.5 154q0 28 6 60l11 61q27 149 110.5 215t217.5 66q112 0 167 -58.5t55 -154.5zM434 383q0 49 -47 49q-30 0 -46 -20t-24 -63h113q4 26 4 34z" />
    <glyph glyph-name="Ecaron" unicode="&#x11a;" horiz-adv-x="595" 
d="M667 726v-4l-26 -151q-4 -20 -24 -20h-201q-19 0 -26.5 -6.5t-11.5 -25.5l-10 -54h234q16 0 16 -16v-4l-24 -141q-4 -20 -24 -20h-234l-11 -60q-1 -5 -1 -12q0 -20 29 -20h201q16 0 16 -16v-4l-26 -151q-3 -18 -24 -20q-92 -11 -203 -11q-104 0 -168.5 42t-64.5 137
q0 30 5 55l53 295q8 47 23.5 83.5t33 61t43 41.5t47.5 26.5t53.5 14.5t54 6t55.5 1q109 0 199 -11q16 -2 16 -16zM695 932q0 -5 -6 -11l-108 -112q-15 -15 -32 -15h-220q-11 0 -15.5 3t-10.5 12l-70 112q-3 5 -3 8q0 9 11 9h150q15 0 24 -10l40 -45l56 45q13 10 26 10h150
q8 0 8 -6z" />
    <glyph glyph-name="ecaron" unicode="&#x11b;" horiz-adv-x="614" 
d="M641 387q0 -33 -6 -68l-11 -61q-4 -21 -25 -21h-302q-2 -16 -2 -22q0 -24 17 -33t60 -9q105 0 189 7h4q16 0 16 -13l-1 -2v-3l-19 -105q-2 -13 -7 -18.5t-17 -10.5q-42 -16 -109 -27t-127 -11q-100 0 -163.5 54t-63.5 154q0 28 6 60l11 61q27 149 110.5 215t217.5 66
q112 0 167 -58.5t55 -154.5zM434 383q0 49 -47 49q-30 0 -46 -20t-24 -63h113q4 26 4 34zM678 773q0 -5 -6 -11l-108 -112q-15 -15 -32 -15h-220q-11 0 -15.5 3t-10.5 12l-70 112q-3 4 -3 8q0 9 11 9h150q15 0 24 -10l40 -45l56 45q13 10 26 10h150q8 0 8 -6z" />
    <glyph glyph-name="Gcircumflex" unicode="&#x11c;" horiz-adv-x="673" 
d="M742 709q0 -5 -1 -9l-25 -147q-3 -18 -18 -18h-3q-93 10 -175 10q-85 0 -119.5 -25.5t-48.5 -105.5l-15 -87q-6 -36 -6 -59q0 -26 5.5 -42.5t16.5 -23t19 -8.5t20 -2q20 0 33 3l32 180q4 20 24 20h187q16 0 16 -16v-4l-59 -335q-2 -12 -6 -15.5t-19 -6.5
q-136 -28 -244 -28q-47 0 -90 12t-84.5 38.5t-66.5 78.5t-25 124q0 45 8 86l15 85q16 88 47.5 152.5t68 99.5t87 55.5t91.5 26t94 5.5q123 0 223 -31q17 -8 18 -13zM718 803q0 -9 -10 -9h-138q-14 0 -23 10l-40 49l-56 -49q-11 -10 -27 -10h-150q-8 0 -8 6q0 5 6 11l103 112
q14 15 31 15h220q18 0 27 -15l63 -112q2 -3 2 -8z" />
    <glyph glyph-name="gcircumflex" unicode="&#x11d;" horiz-adv-x="637" 
d="M416 600q154 0 232 -21q25 -7 30.5 -12.5t3.5 -19.5l-95 -542q-19 -111 -95.5 -161t-219.5 -50q-116 0 -195 33q-18 7 -14 29l17 97q4 22 23 20q132 -12 198 -12q35 0 51 9t20 35l4 22q-28 -6 -62 -6q-116 0 -174.5 57.5t-58.5 152.5q0 24 5 56l8 47q23 135 108 200.5
t214 65.5zM444 413q-28 3 -51 3q-41 0 -55.5 -19.5t-21.5 -62.5l-8 -47q-3 -18 -3 -37q0 -22 10.5 -33.5t42.5 -11.5q19 0 50 3zM656 644q0 -9 -10 -9h-138q-14 0 -23 10l-40 49l-56 -49q-11 -10 -27 -10h-150q-8 0 -8 6q0 5 6 11l103 112q14 15 31 15h220q18 0 27 -15
l63 -112q2 -3 2 -8z" />
    <glyph glyph-name="Gbreve" unicode="&#x11e;" horiz-adv-x="673" 
d="M742 709q0 -5 -1 -9l-25 -147q-3 -18 -18 -18h-3q-93 10 -175 10q-85 0 -119.5 -25.5t-48.5 -105.5l-15 -87q-6 -36 -6 -59q0 -26 5.5 -42.5t16.5 -23t19 -8.5t20 -2q20 0 33 3l32 180q4 20 24 20h187q16 0 16 -16v-4l-59 -335q-2 -12 -6 -15.5t-19 -6.5
q-136 -28 -244 -28q-47 0 -90 12t-84.5 38.5t-66.5 78.5t-25 124q0 45 8 86l15 85q16 88 47.5 152.5t68 99.5t87 55.5t91.5 26t94 5.5q123 0 223 -31q17 -8 18 -13zM508 899q48 0 71 33q1 1 2 4q6 9 16 9h126q13 0 13 -9q0 -11 -8 -25q-69 -124 -228 -124q-158 0 -208 124
q-5 15 -5 21q0 13 14 13h125q14 0 20 -13q9 -18 22 -25.5t40 -7.5z" />
    <glyph glyph-name="gbreve" unicode="&#x11f;" horiz-adv-x="637" 
d="M416 600q154 0 232 -21q25 -7 30.5 -12.5t3.5 -19.5l-95 -542q-19 -111 -95.5 -161t-219.5 -50q-116 0 -195 33q-18 7 -14 29l17 97q4 22 23 20q132 -12 198 -12q35 0 51 9t20 35l4 22q-28 -6 -62 -6q-116 0 -174.5 57.5t-58.5 152.5q0 24 5 56l8 47q23 135 108 200.5
t214 65.5zM444 413q-28 3 -51 3q-41 0 -55.5 -19.5t-21.5 -62.5l-8 -47q-3 -18 -3 -37q0 -22 10.5 -33.5t42.5 -11.5q19 0 50 3zM443 743q48 0 71 33q1 1 2 4q6 9 16 9h126q13 0 13 -9q0 -11 -8 -25q-69 -124 -228 -124q-158 0 -208 124q-5 15 -5 21q0 13 14 13h125
q13 0 20 -13q9 -18 22 -25.5t40 -7.5z" />
    <glyph glyph-name="Gdotaccent" unicode="&#x120;" horiz-adv-x="673" 
d="M742 709q0 -5 -1 -9l-25 -147q-3 -18 -18 -18h-3q-93 10 -175 10q-85 0 -119.5 -25.5t-48.5 -105.5l-15 -87q-6 -36 -6 -59q0 -26 5.5 -42.5t16.5 -23t19 -8.5t20 -2q20 0 33 3l32 180q4 20 24 20h187q16 0 16 -16v-4l-59 -335q-2 -12 -6 -15.5t-19 -6.5
q-136 -28 -244 -28q-47 0 -90 12t-84.5 38.5t-66.5 78.5t-25 124q0 45 8 86l15 85q16 88 47.5 152.5t68 99.5t87 55.5t91.5 26t94 5.5q123 0 223 -31q17 -8 18 -13zM642 934v-3l-21 -116q-4 -20 -24 -20h-174q-18 0 -18 17v3l21 116q4 20 24 20h174q18 0 18 -17z" />
    <glyph glyph-name="gdotaccent" unicode="&#x121;" horiz-adv-x="637" 
d="M416 600q154 0 232 -21q25 -7 30.5 -12.5t3.5 -19.5l-95 -542q-19 -111 -95.5 -161t-219.5 -50q-116 0 -195 33q-18 7 -14 29l17 97q4 22 23 20q132 -12 198 -12q35 0 51 9t20 35l4 22q-28 -6 -62 -6q-116 0 -174.5 57.5t-58.5 152.5q0 24 5 56l8 47q23 135 108 200.5
t214 65.5zM444 413q-28 3 -51 3q-41 0 -55.5 -19.5t-21.5 -62.5l-8 -47q-3 -18 -3 -37q0 -22 10.5 -33.5t42.5 -11.5q19 0 50 3zM593 774v-3l-21 -116q-4 -20 -24 -20h-174q-18 0 -18 17v3l21 116q4 20 24 20h174q18 0 18 -17z" />
    <glyph glyph-name="Gcommaaccent" unicode="&#x122;" horiz-adv-x="673" 
d="M742 709q0 -5 -1 -9l-25 -147q-3 -18 -18 -18h-3q-93 10 -175 10q-85 0 -119.5 -25.5t-48.5 -105.5l-15 -87q-6 -36 -6 -59q0 -26 5.5 -42.5t16.5 -23t19 -8.5t20 -2q20 0 33 3l32 180q4 20 24 20h187q16 0 16 -16v-4l-59 -335q-2 -12 -6 -15.5t-19 -6.5
q-136 -28 -244 -28q-47 0 -90 12t-84.5 38.5t-66.5 78.5t-25 124q0 45 8 86l15 85q16 88 47.5 152.5t68 99.5t87 55.5t91.5 26t94 5.5q123 0 223 -31q17 -8 18 -13zM302 -45h146q11 0 11 -9q0 -4 -3 -10l-76 -108q-12 -20 -25 -20h-112q-13 0 -13 9q0 3 2 11l46 108
q8 19 24 19z" />
    <glyph glyph-name="gcommaaccent" unicode="&#x123;" horiz-adv-x="637" 
d="M416 600q154 0 232 -21q25 -7 30.5 -12.5t3.5 -19.5l-95 -542q-19 -111 -95.5 -161t-219.5 -50q-116 0 -195 33q-18 7 -14 29l17 97q4 22 23 20q132 -12 198 -12q35 0 51 9t20 35l4 22q-28 -6 -62 -6q-116 0 -174.5 57.5t-58.5 152.5q0 24 5 56l8 47q23 135 108 200.5
t214 65.5zM444 413q-28 3 -51 3q-41 0 -55.5 -19.5t-21.5 -62.5l-8 -47q-3 -18 -3 -37q0 -22 10.5 -33.5t42.5 -11.5q19 0 50 3zM458 782h112q14 0 14 -9q0 -5 -3 -11l-46 -108q-9 -19 -24 -19h-146q-11 0 -11 9q0 4 3 10l76 108q12 20 25 20z" />
    <glyph glyph-name="Hcircumflex" unicode="&#x124;" horiz-adv-x="753" 
d="M825 727v-4l-123 -703q-4 -20 -24 -20h-195q-17 0 -17 17v3l44 255h-171l-44 -255q-4 -20 -24 -20h-195q-17 0 -17 17v3l123 703q1 8 9 14t16 6h195q16 0 16 -16v-4l-43 -246h171l43 246q1 8 9 14t16 6h195q16 0 16 -16zM735 803q0 -9 -10 -9h-138q-14 0 -23 10l-40 49
l-56 -49q-11 -10 -27 -10h-150q-8 0 -8 6q0 5 6 11l103 112q14 15 31 15h220q18 0 27 -15l63 -112q2 -3 2 -8z" />
    <glyph glyph-name="hcircumflex" unicode="&#x125;" horiz-adv-x="652" 
d="M672 425q0 -33 -5 -59l-61 -344q-4 -22 -25 -22h-180q-22 0 -18 22l60 341q2 14 2 18q0 18 -11 25t-36 7t-53 -6l-68 -385q-1 -7 -3 -11t-7 -7.5t-14 -3.5h-180q-23 0 -19 22l130 737q4 20 23 20h183q21 0 17 -20l-31 -177q77 18 118 18q87 0 132.5 -46.5t45.5 -128.5z
M694 803q0 -9 -10 -9h-138q-14 0 -23 10l-40 49l-56 -49q-11 -10 -27 -10h-150q-8 0 -8 6q0 5 6 11l103 112q14 15 31 15h220q18 0 27 -15l63 -112q2 -3 2 -8z" />
    <glyph glyph-name="Hbar" unicode="&#x126;" horiz-adv-x="753" 
d="M137 664h35l10 59q1 8 9 14t16 6h195q8 0 13 -6t3 -14l-10 -59h171l10 59q1 8 9 14t16 6h195q8 0 13 -6t3 -14l-10 -59h35q8 0 13 -6t3 -14l-10 -59q-4 -20 -24 -20h-35l-96 -545q-4 -20 -23 -20h-195q-8 0 -13.5 6t-4.5 14l45 255h-171l-45 -255q-4 -20 -23 -20h-195
q-22 0 -18 20l96 545h-35q-8 0 -13 6t-3 14l10 59q4 20 24 20zM375 477h171l15 88h-171z" />
    <glyph glyph-name="hbar" unicode="&#x127;" horiz-adv-x="652" 
d="M144 734h35l4 25q1 7 3 10.5t7 6.5t14 3h180q22 0 18 -20l-4 -25h141q20 0 16 -20l-10 -59q-4 -20 -24 -20h-141l-13 -77q66 42 154 42q150 0 150 -152q0 -35 -8 -80l-61 -346q-4 -22 -24 -22h-180q-23 0 -19 22l58 328q4 22 4 30q0 37 -43 37q-28 0 -58 -15l-67 -380
q-4 -22 -23 -22h-180q-24 0 -20 22l108 613h-35q-20 0 -16 20l10 59q4 20 24 20z" />
    <glyph glyph-name="Itilde" unicode="&#x128;" horiz-adv-x="356" 
d="M423 727v-4l-123 -703q-4 -20 -24 -20h-195q-17 0 -17 17v3l123 703q1 8 9 14t16 6h195q16 0 16 -16zM554 943v-4l-6 -40q-9 -57 -46 -86t-95 -29q-50 0 -92 24l-36 20q-23 12 -35 12q-14 0 -16 -13l-3 -16q-3 -17 -21 -17h-96q-15 0 -15 13v4l5 33q9 60 47 91t91 31
q55 0 97 -24l36 -20q25 -13 36 -13q12 0 15 14l3 16q3 17 21 17h95q15 0 15 -13z" />
    <glyph glyph-name="itilde" unicode="&#x129;" horiz-adv-x="329" 
d="M377 573v-4l-96 -547q-1 -9 -9 -15.5t-17 -6.5h-179q-19 0 -19 19v3l96 547q1 9 9.5 15t17.5 6h179q18 0 18 -17zM522 777v-4l-6 -40q-9 -57 -46 -86t-95 -29q-50 0 -92 24l-36 20q-23 12 -35 12q-14 0 -16 -13l-3 -16q-3 -17 -21 -17h-96q-15 0 -15 13v4l5 33
q9 60 47 91t91 31q55 0 97 -24l36 -20q25 -13 36 -13q12 0 15 14l3 16q3 17 21 17h95q15 0 15 -13z" />
    <glyph glyph-name="Imacron" unicode="&#x12a;" horiz-adv-x="356" 
d="M423 727v-4l-123 -703q-4 -20 -24 -20h-195q-17 0 -17 17v3l123 703q1 8 9 14t16 6h195q16 0 16 -16zM535 921v-3l-19 -104q-4 -20 -23 -20h-354q-17 0 -17 17v3l19 104q4 20 23 20h354q17 0 17 -17z" />
    <glyph glyph-name="imacron" unicode="&#x12b;" horiz-adv-x="329" 
d="M377 573v-4l-96 -547q-1 -9 -9 -15.5t-17 -6.5h-179q-19 0 -19 19v3l96 547q1 9 9.5 15t17.5 6h179q18 0 18 -17zM489 762v-3l-19 -104q-4 -20 -23 -20h-354q-17 0 -17 17v3l19 104q4 20 23 20h354q17 0 17 -17z" />
    <glyph glyph-name="Ibreve" unicode="&#x12c;" horiz-adv-x="356" 
d="M423 727v-4l-123 -703q-4 -20 -24 -20h-195q-17 0 -17 17v3l123 703q1 8 9 14t16 6h195q16 0 16 -16zM328 891q48 0 71 33q8 11 11 12t7 1h126q13 0 13 -9q0 -11 -8 -25q-69 -124 -228 -124q-158 0 -208 124q-5 15 -5 21q0 13 14 13h125q14 0 20 -13q9 -18 22 -25.5
t40 -7.5z" />
    <glyph glyph-name="ibreve" unicode="&#x12d;" horiz-adv-x="329" 
d="M377 573v-4l-96 -547q-1 -9 -9 -15.5t-17 -6.5h-179q-19 0 -19 19v3l96 547q1 9 9.5 15t17.5 6h179q18 0 18 -17zM285 740q48 0 71 33q8 11 11 12t7 1h126q13 0 13 -9q0 -11 -8 -25q-69 -124 -228 -124q-158 0 -208 124q-5 15 -5 21q0 13 14 13h125q13 0 20 -13
q9 -18 22 -25.5t40 -7.5z" />
    <glyph glyph-name="Iogonek" unicode="&#x12e;" horiz-adv-x="356" 
d="M299 20q-2 -13 -19 -20l-55 -21q-43 -17 -43 -46q0 -20 35 -20q15 0 40.5 3.5t29.5 3.5q7 0 8.5 -2t-0.5 -10l-13 -74q-1 -9 -13 -15q-50 -20 -137 -20q-137 0 -137 100q0 69 65 104l127 720q1 8 9 14t16 6h195q8 0 13 -6t3 -14z" />
    <glyph glyph-name="iogonek" unicode="&#x12f;" horiz-adv-x="329" 
d="M280 22q-3 -18 -21 -24l-49 -19q-46 -17 -46 -43q0 -23 39 -23q22 0 56 6q14 2 17 2q9 0 9 -5l-3 -18l-11 -68q-3 -12 -14 -15q-67 -16 -131 -16q-143 0 -143 100q0 63 70 104l100 566q1 9 9.5 15t17.5 6h179q9 0 14 -6t4 -15zM416 761v-3l-18 -102q-1 -9 -9.5 -15
t-17.5 -6h-189q-8 0 -13.5 5t-5.5 13v3l18 102q1 9 9 15t17 6h189q8 0 14 -5.5t6 -12.5z" />
    <glyph glyph-name="Idotaccent" unicode="&#x130;" horiz-adv-x="356" 
d="M423 727v-4l-123 -703q-4 -20 -24 -20h-195q-17 0 -17 17v3l123 703q1 8 9 14t16 6h195q16 0 16 -16zM449 927v-3l-21 -116q-4 -20 -24 -20h-174q-18 0 -18 17v3l21 116q4 20 24 20h174q18 0 18 -17z" />
    <glyph glyph-name="dotlessi" unicode="&#x131;" horiz-adv-x="329" 
d="M377 573v-4l-96 -547q-1 -9 -9 -15.5t-17 -6.5h-179q-19 0 -19 19v3l96 547q1 9 9.5 15t17.5 6h179q18 0 18 -17z" />
    <glyph glyph-name="IJ" unicode="&#x132;" horiz-adv-x="712" 
d="M423 727v-4l-123 -703q-4 -20 -24 -20h-195q-17 0 -17 17v3l123 703q1 8 9 14t16 6h195q16 0 16 -16zM779 727v-4l-126 -718q-38 -211 -227 -211q-72 0 -110 6q-17 3 -17 17v3l24 134q4 20 23 20h43q14 0 19.5 6t8.5 25l126 718q1 8 9 14t16 6h195q16 0 16 -16z" />
    <glyph glyph-name="ij" unicode="&#x133;" horiz-adv-x="658" 
d="M416 761v-3l-18 -102q-1 -9 -9.5 -15t-17.5 -6h-189q-8 0 -13.5 5t-5.5 13v3l18 102q1 9 9 15t17 6h189q8 0 14 -5.5t6 -12.5zM377 573v-4l-96 -547q-1 -9 -9 -15.5t-17 -6.5h-179q-19 0 -19 19v3l96 547q1 9 9.5 15t17.5 6h179q18 0 18 -17zM745 761v-3l-18 -102
q-1 -9 -9.5 -15t-17.5 -6h-189q-8 0 -13.5 5t-5.5 13v3l18 102q4 21 26 21h189q8 0 14 -5.5t6 -12.5zM706 573v-4l-102 -580q-19 -109 -74.5 -154t-140.5 -45q-44 0 -105 11q-17 3 -17 18v4l19 108q4 21 25 21h42q20 0 27 37l102 580q1 9 9.5 15t17.5 6h179q18 0 18 -17z
" />
    <glyph glyph-name="Jcircumflex" unicode="&#x134;" horiz-adv-x="356" 
d="M423 727v-4l-126 -718q-38 -211 -227 -211q-72 0 -110 6q-17 3 -17 17v3l24 134q4 20 23 20h43q14 0 19.5 6t8.5 25l126 718q1 8 9 14t16 6h195q16 0 16 -16zM534 803q0 -9 -10 -9h-138q-14 0 -23 10l-40 49l-56 -49q-11 -10 -27 -10h-150q-8 0 -8 6q0 5 6 11l103 112
q14 15 31 15h220q18 0 27 -15l63 -112q2 -3 2 -8z" />
    <glyph glyph-name="jcircumflex" unicode="&#x135;" horiz-adv-x="329" 
d="M377 573v-4l-102 -580q-19 -109 -74.5 -154t-140.5 -45q-44 0 -105 11q-17 3 -17 18v4l19 108q1 9 8.5 15t16.5 6h42q20 0 27 37l102 580q1 9 9.5 15t17.5 6h179q18 0 18 -17zM496 644q0 -9 -10 -9h-138q-14 0 -23 10l-40 49l-56 -49q-11 -10 -27 -10h-150q-8 0 -8 6
q0 5 6 11l103 112q14 15 31 15h220q18 0 27 -15l63 -112q2 -3 2 -8z" />
    <glyph glyph-name="Kcommaaccent" unicode="&#x136;" horiz-adv-x="744" 
d="M849 734q0 -6 -4 -11l-258 -353l136 -350q1 -2 1 -6q0 -14 -15 -14h-236q-10 0 -16 20l-107 314l-55 -314q-4 -20 -24 -20h-195q-17 0 -17 17v3l123 703q1 8 9 14t16 6h195q16 0 16 -16v-4l-56 -319l214 319q14 20 25 20h238q10 0 10 -9zM301 -44h146q11 0 11 -9
q0 -4 -3 -10l-76 -108q-12 -20 -25 -20h-112q-13 0 -13 9q0 3 2 11l46 108q8 19 24 19z" />
    <glyph glyph-name="kcommaaccent" unicode="&#x137;" horiz-adv-x="669" 
d="M522 590h204q12 0 14 -10t-5 -16l-206 -264l115 -274q4 -9 -1 -17.5t-17 -8.5h-204q-21 0 -28 22l-77 237l-41 -237q-4 -22 -24 -22h-179q-23 0 -19 22l130 736q4 21 26 21h175q25 0 21 -21l-72 -412l152 223q14 21 36 21zM270 -45h146q11 0 11 -9q0 -4 -3 -10l-76 -108
q-12 -20 -25 -20h-112q-13 0 -13 9q0 3 2 11l46 108q8 19 24 19z" />
    <glyph glyph-name="kgreenlandic" unicode="&#x138;" horiz-adv-x="669" 
d="M726 590q10 0 12.5 -9.5t-3.5 -16.5l-206 -264l115 -274q4 -8 0.5 -17t-14.5 -9h-208q-21 0 -28 22l-77 237l-41 -237q-4 -22 -24 -22h-179q-22 0 -19 22l98 547q4 21 26 21h179q20 0 17 -21l-40 -223l152 223q14 21 36 21h204z" />
    <glyph glyph-name="Lacute" unicode="&#x139;" horiz-adv-x="520" 
d="M525 173v-1l-26 -151q-3 -16 -24 -20q-64 -11 -153 -11q-233 0 -233 176q0 32 5 58l88 499q1 8 9 14t16 6h195q16 0 16 -16v-3v-1l-88 -499q-1 -4 -1 -12q0 -12 6.5 -16t22.5 -4h151q16 0 16 -16v-3zM633 932q0 -4 -6 -9l-151 -119q-13 -10 -27 -10h-154q-8 0 -8 6
q0 5 6 11l107 112q15 15 31 15h191q11 0 11 -6z" />
    <glyph glyph-name="lacute" unicode="&#x13a;" horiz-adv-x="324" 
d="M390 779q22 0 18 -21l-130 -736q-4 -22 -25 -22h-180q-23 0 -19 22l130 736q4 21 26 21h180zM535 932q0 -4 -6 -9l-151 -119q-13 -10 -27 -10h-154q-8 0 -8 6q0 5 6 11l107 112q15 15 31 15h191q11 0 11 -6z" />
    <glyph glyph-name="Lcommaaccent" unicode="&#x13b;" horiz-adv-x="520" 
d="M525 173v-1l-26 -151q-3 -16 -24 -20q-64 -11 -153 -11q-233 0 -233 176q0 32 5 58l88 499q1 8 9 14t16 6h195q16 0 16 -16v-3v-1l-88 -499q-1 -4 -1 -12q0 -12 6.5 -16t22.5 -4h151q16 0 16 -16v-3zM203 -45h146q11 0 11 -9q0 -4 -3 -10l-76 -108q-12 -20 -25 -20h-112
q-13 0 -13 9q0 3 2 11l46 108q8 19 24 19z" />
    <glyph glyph-name="lcommaaccent" unicode="&#x13c;" horiz-adv-x="324" 
d="M390 779q22 0 18 -21l-130 -736q-4 -22 -25 -22h-180q-23 0 -19 22l130 736q4 21 26 21h180zM78 -45h146q11 0 11 -9q0 -4 -3 -10l-76 -108q-12 -20 -25 -20h-112q-13 0 -13 9q0 3 2 11l46 108q8 19 24 19z" />
    <glyph glyph-name="Lcaron" unicode="&#x13d;" horiz-adv-x="520" 
d="M525 173v-1l-26 -151q-3 -16 -24 -20q-64 -11 -153 -11q-233 0 -233 176q0 32 5 58l88 499q1 8 9 14t16 6h195q16 0 16 -16v-3v-1l-88 -499q-1 -4 -1 -12q0 -12 6.5 -16t22.5 -4h151q16 0 16 -16v-3zM739 767l-4 -8l-140 -230q-10 -19 -22 -19h-109q-11 0 -11 9q0 5 3 10
l105 230q8 19 24 19h144q10 0 10 -9v-2z" />
    <glyph glyph-name="lcaron" unicode="&#x13e;" horiz-adv-x="569" 
d="M408 762v-4l-130 -736q-4 -22 -25 -22h-180q-19 0 -19 19v3l130 736q4 21 26 21h180q18 0 18 -17zM713 768l-4 -8l-140 -230q-10 -19 -22 -19h-109q-11 0 -11 9q0 6 3 10l105 230q8 19 24 19h144q10 0 10 -9v-2z" />
    <glyph glyph-name="Ldot" unicode="&#x13f;" horiz-adv-x="579" 
d="M525 173v-1l-26 -151q-3 -16 -24 -20q-64 -11 -153 -11q-233 0 -233 176q0 32 5 58l88 499q1 8 9 14t16 6h195q16 0 16 -16v-3v-1l-88 -499q-1 -4 -1 -12q0 -12 6.5 -16t22.5 -4h151q16 0 16 -16v-3zM646 471v-3l-21 -116q-4 -20 -24 -20h-174q-18 0 -18 17v3l21 116
q4 20 24 20h174q18 0 18 -17z" />
    <glyph glyph-name="ldot" unicode="&#x140;" horiz-adv-x="557" 
d="M390 779q10 0 15 -6t3 -15l-130 -736q-4 -22 -25 -22h-180q-23 0 -19 22l130 736q4 21 26 21h180zM605 488q21 0 18 -20l-21 -116q-4 -20 -24 -20h-174q-22 0 -18 20l21 116q4 20 24 20h174z" />
    <glyph glyph-name="Lslash" unicode="&#x141;" horiz-adv-x="520" 
d="M525 176v-4l-26 -151q-3 -16 -24 -20q-64 -11 -153 -11q-234 0 -234 174q0 13 1 20l-35 -26q-4 -3 -7 -3q-7 0 -7 10v3l33 187q3 12 8 16l45 33l56 319q1 8 9 14t16 6h195q16 0 16 -16v-4l-20 -118l57 43q6 4 8 4q7 0 7 -11v-4l-34 -186q-1 -11 -11 -18l-66 -49l-29 -160
q-1 -5 -1 -12q0 -20 29 -20h151q16 0 16 -16z" />
    <glyph glyph-name="lslash" unicode="&#x142;" horiz-adv-x="324" 
d="M448 641v-5l-33 -185q-1 -11 -11 -18l-62 -46l-64 -365q-4 -22 -25 -22h-180q-19 0 -19 19v3l31 174l-52 -38q-5 -3 -7 -3q-7 0 -7 11v3l33 186q3 12 8 16l64 47l60 340q4 21 26 21h180q18 0 18 -17v-4l-27 -149l53 39q4 3 8 3q6 0 6 -10z" />
    <glyph glyph-name="Nacute" unicode="&#x143;" horiz-adv-x="763" 
d="M830 727v-4l-121 -688q-2 -14 -14.5 -24.5t-26.5 -10.5h-171q-19 0 -28 22l-117 275q-3 8 -7 8h-1q-6 0 -7 -9l-48 -276q-1 -8 -9 -14t-16 -6h-183q-17 0 -17 17v3l121 688q2 14 14.5 24.5t26.5 10.5h164q21 0 33 -28l119 -276q4 -9 9 -9q4 0 6 9l50 284q4 20 24 20h183
q16 0 16 -16zM755 932q0 -4 -6 -9l-151 -119q-13 -10 -27 -10h-154q-8 0 -8 6q0 5 6 11l107 112q15 15 31 15h191q11 0 11 -6z" />
    <glyph glyph-name="nacute" unicode="&#x144;" horiz-adv-x="652" 
d="M674 438q0 -30 -7 -70l-61 -346q-2 -11 -6.5 -16.5t-18.5 -5.5h-180q-22 0 -18 22l61 346q1 6 1 18q0 31 -43 31q-28 0 -58 -15l-67 -380q-1 -8 -2.5 -11.5t-7 -7t-14.5 -3.5h-180q-23 0 -19 22l97 548q4 20 23 20h165q21 0 17 -20l-5 -28q81 58 171 58q152 0 152 -162z
M657 773q0 -5 -6 -9l-151 -119q-13 -10 -27 -10h-154q-8 0 -8 6q0 5 6 11l107 112q15 15 31 15h191q11 0 11 -6z" />
    <glyph glyph-name="Ncommaaccent" unicode="&#x145;" horiz-adv-x="763" 
d="M830 727v-4l-121 -688q-2 -14 -14.5 -24.5t-26.5 -10.5h-171q-19 0 -28 22l-117 275q-3 8 -7 8h-1q-6 0 -7 -9l-48 -276q-1 -8 -9 -14t-16 -6h-183q-17 0 -17 17v3l121 688q2 14 14.5 24.5t26.5 10.5h164q21 0 33 -28l119 -276q4 -9 9 -9q4 0 6 9l50 284q4 20 24 20h183
q16 0 16 -16zM326 -44h146q11 0 11 -9q0 -4 -3 -10l-76 -108q-12 -20 -25 -20h-112q-13 0 -13 9q0 3 2 11l46 108q8 19 24 19z" />
    <glyph glyph-name="ncommaaccent" unicode="&#x146;" horiz-adv-x="652" 
d="M674 438q0 -30 -7 -70l-61 -346q-2 -11 -6.5 -16.5t-18.5 -5.5h-180q-22 0 -18 22l61 346q1 6 1 18q0 31 -43 31q-28 0 -58 -15l-67 -380q-1 -8 -2.5 -11.5t-7 -7t-14.5 -3.5h-180q-23 0 -19 22l97 548q4 20 23 20h165q21 0 17 -20l-5 -28q81 58 171 58q152 0 152 -162z
M257 -44h146q11 0 11 -9q0 -4 -3 -10l-76 -108q-12 -20 -25 -20h-112q-13 0 -13 9q0 3 2 11l46 108q8 19 24 19z" />
    <glyph glyph-name="Ncaron" unicode="&#x147;" horiz-adv-x="763" 
d="M830 727v-4l-121 -688q-2 -14 -14.5 -24.5t-26.5 -10.5h-171q-19 0 -28 22l-117 275q-3 8 -7 8h-1q-6 0 -7 -9l-48 -276q-1 -8 -9 -14t-16 -6h-183q-17 0 -17 17v3l121 688q2 14 14.5 24.5t26.5 10.5h164q21 0 33 -28l119 -276q4 -9 9 -9q4 0 6 9l50 284q4 20 24 20h183
q16 0 16 -16zM779 932q0 -5 -6 -11l-108 -112q-15 -15 -32 -15h-220q-11 0 -15.5 3t-10.5 12l-70 112q-3 5 -3 8q0 9 11 9h150q15 0 24 -10l40 -45l56 45q13 10 26 10h150q8 0 8 -6z" />
    <glyph glyph-name="ncaron" unicode="&#x148;" horiz-adv-x="652" 
d="M674 438q0 -30 -7 -70l-61 -346q-2 -11 -6.5 -16.5t-18.5 -5.5h-180q-22 0 -18 22l61 346q1 6 1 18q0 31 -43 31q-28 0 -58 -15l-67 -380q-1 -8 -2.5 -11.5t-7 -7t-14.5 -3.5h-180q-23 0 -19 22l97 548q4 20 23 20h165q21 0 17 -20l-5 -28q81 58 171 58q152 0 152 -162z
M687 773q0 -5 -6 -11l-108 -112q-15 -15 -32 -15h-220q-11 0 -15.5 3t-10.5 12l-70 112q-3 4 -3 8q0 9 11 9h150q15 0 24 -10l40 -45l56 45q13 10 26 10h150q8 0 8 -6z" />
    <glyph glyph-name="napostrophe" unicode="&#x149;" horiz-adv-x="890" 
d="M402 770q0 -4 -3 -10l-131 -242q-10 -19 -22 -19h-145q-8 0 -8 7q0 6 3 12l104 242q8 19 23 19h169q10 0 10 -9zM912 438q0 -30 -7 -70l-61 -346q-2 -11 -6.5 -16.5t-18.5 -5.5h-180q-22 0 -18 22l61 346q1 6 1 18q0 31 -43 31q-28 0 -58 -15l-67 -380q-1 -8 -2.5 -11.5
t-7 -7t-14.5 -3.5h-180q-23 0 -19 22l97 548q4 20 23 20h165q21 0 17 -20l-5 -28q81 58 171 58q152 0 152 -162z" />
    <glyph glyph-name="Eng" unicode="&#x14a;" horiz-adv-x="763" 
d="M814 743q20 0 16 -20l-126 -718q-38 -211 -227 -211q-72 0 -110 6q-17 3 -17 17v3l24 134q4 20 23 20h43q14 0 19.5 6t8.5 25l2 14l-118 278q-3 8 -8 8q-6 0 -7 -9l-48 -276q-1 -8 -9 -14t-16 -6h-183q-17 0 -17 17v3l121 688q2 14 14.5 24.5t26.5 10.5h164q21 0 33 -28
l119 -276q4 -9 9 -9q4 0 6 9l50 284q4 20 24 20h183z" />
    <glyph glyph-name="eng" unicode="&#x14b;" horiz-adv-x="652" 
d="M674 438q0 -30 -7 -70l-67 -379q-19 -109 -74.5 -154t-140.5 -45q-44 0 -105 11q-20 3 -17 22l19 108q4 21 25 21h42q21 0 28 37l67 379q2 12 2 15q0 34 -44 34q-28 0 -58 -15l-67 -380q-4 -22 -24 -22h-180q-19 0 -19 19v3l97 548q4 20 23 20h165q17 0 17 -17v-3l-5 -28
q44 32 79 45t92 13q82 0 117 -45t35 -117z" />
    <glyph glyph-name="Omacron" unicode="&#x14c;" horiz-adv-x="716" 
d="M757 499q0 -36 -8 -84l-15 -87q-58 -338 -378 -338q-117 0 -191.5 63.5t-74.5 191.5q0 35 8 83l15 87q59 338 378 338q117 0 191.5 -63t74.5 -191zM516 474q0 38 -15 54.5t-47 16.5q-42 0 -66 -30t-36 -100l-15 -87q-6 -34 -6 -59q0 -38 15 -54.5t47 -16.5q43 0 66.5 30
t35.5 100l15 87q6 34 6 59zM712 921v-3l-19 -104q-4 -20 -23 -20h-354q-17 0 -17 17v3l19 104q4 20 23 20h354q17 0 17 -17z" />
    <glyph glyph-name="omacron" unicode="&#x14d;" horiz-adv-x="620" 
d="M648 389q0 -27 -7 -71l-8 -46q-27 -152 -108 -217t-217 -65q-112 0 -171.5 56.5t-59.5 157.5q0 32 6 68l8 46q26 150 108 216t217 66q111 0 171.5 -54.5t60.5 -156.5zM424 365q0 51 -41 51q-53 0 -70 -98l-8 -46q-5 -32 -5 -47q0 -51 41 -51q27 0 43.5 21t26.5 77l8 46
q5 32 5 47zM640 762v-3l-19 -104q-4 -20 -23 -20h-354q-17 0 -17 17v3l19 104q4 20 23 20h354q17 0 17 -17z" />
    <glyph glyph-name="Obreve" unicode="&#x14e;" horiz-adv-x="716" 
d="M757 499q0 -36 -8 -84l-15 -87q-58 -338 -378 -338q-117 0 -191.5 63.5t-74.5 191.5q0 35 8 83l15 87q59 338 378 338q117 0 191.5 -63t74.5 -191zM516 474q0 38 -15 54.5t-47 16.5q-42 0 -66 -30t-36 -100l-15 -87q-6 -34 -6 -59q0 -38 15 -54.5t47 -16.5q43 0 66.5 30
t35.5 100l15 87q6 34 6 59zM508 900q48 0 71 33q1 1 2 4q6 9 16 9h126q13 0 13 -9q0 -11 -8 -25q-69 -124 -228 -124q-158 0 -208 124q-5 15 -5 21q0 13 14 13h125q14 0 20 -13q9 -18 22 -25.5t40 -7.5z" />
    <glyph glyph-name="obreve" unicode="&#x14f;" horiz-adv-x="620" 
d="M648 389q0 -27 -7 -71l-8 -46q-27 -152 -108 -217t-217 -65q-112 0 -171.5 56.5t-59.5 157.5q0 32 6 68l8 46q26 150 108 216t217 66q111 0 171.5 -54.5t60.5 -156.5zM424 365q0 51 -41 51q-53 0 -70 -98l-8 -46q-5 -32 -5 -47q0 -51 41 -51q27 0 43.5 21t26.5 77l8 46
q5 32 5 47zM435 739q48 0 71 33q1 1 2 4q6 9 16 9h126q13 0 13 -9q0 -11 -8 -25q-69 -124 -228 -124q-158 0 -208 124q-5 15 -5 21q0 13 14 13h125q13 0 20 -13q9 -18 22 -25.5t40 -7.5z" />
    <glyph glyph-name="Ohungarumlaut" unicode="&#x150;" horiz-adv-x="716" 
d="M757 499q0 -36 -8 -84l-15 -87q-58 -338 -378 -338q-117 0 -191.5 63.5t-74.5 191.5q0 35 8 83l15 87q59 338 378 338q117 0 191.5 -63t74.5 -191zM516 474q0 38 -15 54.5t-47 16.5q-42 0 -66 -30t-36 -100l-15 -87q-6 -34 -6 -59q0 -38 15 -54.5t47 -16.5q43 0 66.5 30
t35.5 100l15 87q6 34 6 59zM869 932q0 -4 -6 -9l-151 -119q-13 -10 -27 -10h-150q-8 0 -8 6q0 5 6 11l109 112q15 15 31 15h185q11 0 11 -6zM589 932q0 -4 -6 -9l-151 -119q-13 -10 -27 -10h-150q-8 0 -8 6q0 5 6 11l109 112q15 15 31 15h185q11 0 11 -6z" />
    <glyph glyph-name="ohungarumlaut" unicode="&#x151;" horiz-adv-x="620" 
d="M648 389q0 -27 -7 -71l-8 -46q-27 -152 -108 -217t-217 -65q-112 0 -171.5 56.5t-59.5 157.5q0 32 6 68l8 46q26 150 108 216t217 66q111 0 171.5 -54.5t60.5 -156.5zM424 365q0 51 -41 51q-53 0 -70 -98l-8 -46q-5 -32 -5 -47q0 -51 41 -51q27 0 43.5 21t26.5 77l8 46
q5 32 5 47zM821 773q0 -5 -6 -9l-151 -119q-13 -10 -27 -10h-150q-8 0 -8 6q0 5 6 11l109 112q15 15 31 15h185q11 0 11 -6zM541 773q0 -5 -6 -9l-151 -119q-13 -10 -27 -10h-150q-8 0 -8 6q0 5 6 11l109 112q15 15 31 15h185q11 0 11 -6z" />
    <glyph glyph-name="OE" unicode="&#x152;" horiz-adv-x="980" 
d="M1057 726v-4l-26 -151q-4 -20 -24 -20h-201q-19 0 -26.5 -6.5t-11.5 -25.5l-10 -54h234q16 0 16 -16v-4l-24 -141q-4 -20 -24 -20h-234l-11 -60q-1 -4 -1 -12q0 -20 29 -20h201q16 0 16 -16v-4l-26 -151q-3 -18 -24 -20q-92 -11 -203 -11q-116 0 -172 39
q-79 -39 -179 -39q-119 0 -193 59t-74 188q0 41 9 91l15 87q13 74 40.5 132.5t63.5 96.5t82 63t93 35.5t99 10.5q99 0 165 -39q69 39 186 39q109 0 199 -11q16 -2 16 -16zM516 474q0 38 -15 54.5t-47 16.5q-42 0 -66 -30t-36 -100l-15 -87q-6 -34 -6 -59q0 -38 15 -54.5
t47 -16.5q43 0 66.5 30t35.5 100l15 87q6 34 6 59z" />
    <glyph glyph-name="oe" unicode="&#x153;" horiz-adv-x="944" 
d="M971 387q0 -33 -6 -68l-11 -61q-4 -21 -25 -21h-302q-2 -16 -2 -22q0 -24 17 -33t60 -9q105 0 189 7h4q16 0 16 -13l-1 -2v-3l-19 -105q-2 -13 -7 -18.5t-17 -10.5q-99 -38 -236 -38q-91 0 -149 50q-80 -50 -174 -50q-110 0 -170.5 56.5t-60.5 158.5q0 33 6 67l8 46
q27 151 108.5 216.5t216.5 65.5q88 0 154 -53q64 53 179 53q112 0 167 -58.5t55 -154.5zM763 381q0 51 -46 51q-56 0 -70 -83h113q3 17 3 32zM424 365q0 51 -41 51q-27 0 -43.5 -21t-26.5 -77l-8 -46q-5 -32 -5 -47q0 -51 41 -51q27 0 43.5 21t26.5 77l8 46q5 32 5 47z" />
    <glyph glyph-name="Racute" unicode="&#x154;" horiz-adv-x="731" 
d="M765 559q0 -27 -6 -55l-4 -20q-30 -145 -149 -194l92 -261q1 -3 1 -8q0 -9 -7 -15t-14 -6h-210q-10 0 -16 20l-78 235h-38l-41 -235q-4 -20 -24 -20h-195q-17 0 -17 17v3l112 636q8 45 25 61.5t60 23.5q84 12 221 12q138 0 213 -49.5t75 -144.5zM525 516q0 40 -61 40h-75
l-22 -126h75q35 0 54.5 15t23.5 38l4 20q1 5 1 13zM739 932q0 -4 -6 -9l-151 -119q-13 -10 -27 -10h-154q-8 0 -8 6q0 5 6 11l107 112q15 15 31 15h191q11 0 11 -6z" />
    <glyph glyph-name="racute" unicode="&#x155;" horiz-adv-x="439" 
d="M487 600h7q13 0 18 -4.5t3 -15.5l-25 -141q-4 -20 -23 -20h-7q-82 0 -116 -17l-67 -380q-4 -22 -24 -22h-180q-23 0 -19 22l97 548q4 20 23 20h158q21 0 17 -20l-6 -29q50 59 144 59zM577 773q0 -5 -6 -9l-151 -119q-13 -10 -27 -10h-154q-8 0 -8 6q0 5 6 11l107 112
q15 15 31 15h191q11 0 11 -6z" />
    <glyph glyph-name="Rcommaaccent" unicode="&#x156;" horiz-adv-x="731" 
d="M765 559q0 -27 -6 -55l-4 -20q-30 -145 -149 -194l92 -261q1 -3 1 -8q0 -9 -7 -15t-14 -6h-210q-10 0 -16 20l-78 235h-38l-41 -235q-4 -20 -24 -20h-195q-17 0 -17 17v3l112 636q8 45 25 61.5t60 23.5q84 12 221 12q138 0 213 -49.5t75 -144.5zM525 516q0 40 -61 40h-75
l-22 -126h75q35 0 54.5 15t23.5 38l4 20q1 5 1 13zM303 -45h146q11 0 11 -9q0 -4 -3 -10l-76 -108q-12 -20 -25 -20h-112q-13 0 -13 9q0 3 2 11l46 108q8 19 24 19z" />
    <glyph glyph-name="rcommaaccent" unicode="&#x157;" horiz-adv-x="439" 
d="M487 600h7q13 0 18 -4.5t3 -15.5l-25 -141q-4 -20 -23 -20h-7q-82 0 -116 -17l-67 -380q-4 -22 -24 -22h-180q-23 0 -19 22l97 548q4 20 23 20h158q21 0 17 -20l-6 -29q50 59 144 59zM185 -44h146q11 0 11 -9q0 -4 -3 -10l-76 -108q-12 -20 -25 -20h-112q-13 0 -13 9
q0 3 2 11l46 108q8 19 24 19z" />
    <glyph glyph-name="Rcaron" unicode="&#x158;" horiz-adv-x="731" 
d="M765 559q0 -27 -6 -55l-4 -20q-30 -145 -149 -194l92 -261q1 -3 1 -8q0 -9 -7 -15t-14 -6h-210q-10 0 -16 20l-78 235h-38l-41 -235q-4 -20 -24 -20h-195q-17 0 -17 17v3l112 636q8 45 25 61.5t60 23.5q84 12 221 12q138 0 213 -49.5t75 -144.5zM525 516q0 40 -61 40h-75
l-22 -126h75q35 0 54.5 15t23.5 38l4 20q1 5 1 13zM748 932q0 -5 -6 -11l-108 -112q-15 -15 -32 -15h-220q-11 0 -15.5 3t-10.5 12l-70 112q-3 5 -3 8q0 9 11 9h150q15 0 24 -10l40 -45l56 45q13 10 26 10h150q8 0 8 -6z" />
    <glyph glyph-name="rcaron" unicode="&#x159;" horiz-adv-x="439" 
d="M487 600h7q13 0 18 -4.5t3 -15.5l-25 -141q-4 -20 -23 -20h-7q-82 0 -116 -17l-67 -380q-4 -22 -24 -22h-180q-23 0 -19 22l97 548q4 20 23 20h158q21 0 17 -20l-6 -29q50 59 144 59zM594 773q0 -5 -6 -11l-108 -112q-15 -15 -32 -15h-220q-11 0 -15.5 3t-10.5 12
l-70 112q-3 4 -3 8q0 9 11 9h150q15 0 24 -10l40 -45l56 45q13 10 26 10h150q8 0 8 -6z" />
    <glyph glyph-name="Sacute" unicode="&#x15a;" horiz-adv-x="624" 
d="M690 706v-1l-26 -149q-4 -20 -21 -20h-2q-156 15 -241 15q-24 0 -24 -19q0 -11 32 -29l128 -75q96 -57 96 -162q0 -70 -28 -124t-76.5 -86.5t-107.5 -49t-126 -16.5q-115 0 -209 30q-18 7 -18 17v3l26 149q4 20 23 20h2q174 -17 212 -17q42 0 42 35q0 13 -22 27l-135 87
q-87 57 -87 167q0 67 24 116t68 76.5t97 40t119 12.5q63 0 134.5 -8.5t103.5 -19.5q16 -5 16 -17v-2zM685 932q0 -4 -6 -9l-151 -119q-13 -10 -27 -10h-154q-8 0 -8 6q0 5 6 11l107 112q15 15 31 15h191q11 0 11 -6z" />
    <glyph glyph-name="sacute" unicode="&#x15b;" horiz-adv-x="540" 
d="M567 573q11 -3 14.5 -7t2.5 -14l-23 -130q-1 -9 -2.5 -13t-7 -7t-14.5 -1q-108 18 -175 18q-23 0 -23 -11q0 -10 22 -22l79 -42q61 -32 80.5 -68.5t19.5 -84.5q0 -104 -78 -152.5t-215 -48.5q-108 0 -182 26q-18 7 -15 22l22 125q5 27 30 23q123 -19 170 -19q39 0 39 23
q0 9 -19 20l-89 49q-89 50 -89 142q0 199 267 199q91 0 186 -27zM603 773q0 -5 -6 -9l-151 -119q-13 -10 -27 -10h-154q-8 0 -8 6q0 5 6 11l107 112q15 15 31 15h191q11 0 11 -6z" />
    <glyph glyph-name="Scircumflex" unicode="&#x15c;" horiz-adv-x="624" 
d="M690 706v-1l-26 -149q-4 -20 -21 -20h-2q-156 15 -241 15q-24 0 -24 -19q0 -11 32 -29l128 -75q96 -57 96 -162q0 -70 -28 -124t-76.5 -86.5t-107.5 -49t-126 -16.5q-115 0 -209 30q-18 7 -18 17v3l26 149q4 20 23 20h2q174 -17 212 -17q42 0 42 35q0 13 -22 27l-135 87
q-87 57 -87 167q0 67 24 116t68 76.5t97 40t119 12.5q63 0 134.5 -8.5t103.5 -19.5q16 -5 16 -17v-2zM657 803q0 -9 -10 -9h-138q-14 0 -23 10l-40 49l-56 -49q-11 -10 -27 -10h-150q-8 0 -8 6q0 5 6 11l103 112q14 15 31 15h220q18 0 27 -15l63 -112q2 -3 2 -8z" />
    <glyph glyph-name="scircumflex" unicode="&#x15d;" horiz-adv-x="540" 
d="M567 573q11 -3 14.5 -7t2.5 -14l-23 -130q-1 -9 -2.5 -13t-7 -7t-14.5 -1q-108 18 -175 18q-23 0 -23 -11q0 -10 22 -22l79 -42q61 -32 80.5 -68.5t19.5 -84.5q0 -104 -78 -152.5t-215 -48.5q-108 0 -182 26q-18 7 -15 22l22 125q5 27 30 23q123 -19 170 -19q39 0 39 23
q0 9 -19 20l-89 49q-89 50 -89 142q0 199 267 199q91 0 186 -27zM586 644q0 -9 -10 -9h-138q-14 0 -23 10l-40 49l-56 -49q-11 -10 -27 -10h-150q-8 0 -8 6q0 5 6 11l103 112q14 15 31 15h220q18 0 27 -15l63 -112q2 -3 2 -8z" />
    <glyph glyph-name="uni015E" unicode="&#x15e;" horiz-adv-x="624" 
d="M690 706v-1l-26 -149q-4 -20 -21 -20h-2q-156 15 -241 15q-24 0 -24 -19q0 -11 32 -29l128 -75q96 -57 96 -162q0 -70 -28 -124t-76.5 -86.5t-107.5 -49t-126 -16.5q-115 0 -209 30q-18 7 -18 17v3l26 149q4 20 23 20h2q174 -17 212 -17q42 0 42 35q0 13 -22 27l-135 87
q-87 57 -87 167q0 67 24 116t68 76.5t97 40t119 12.5q63 0 134.5 -8.5t103.5 -19.5q16 -5 16 -17v-2zM434 -65q0 -5 -6 -9l-151 -119q-13 -10 -27 -10h-150q-8 0 -8 6q0 5 6 11l109 112q15 15 31 15h185q11 0 11 -6z" />
    <glyph glyph-name="uni015F" unicode="&#x15f;" horiz-adv-x="540" 
d="M567 573q11 -3 14.5 -7t2.5 -14l-23 -130q-1 -9 -2.5 -13t-7 -7t-14.5 -1q-108 18 -175 18q-23 0 -23 -11q0 -10 22 -22l79 -42q61 -32 80.5 -68.5t19.5 -84.5q0 -104 -78 -152.5t-215 -48.5q-108 0 -182 26q-18 7 -15 22l22 125q5 27 30 23q123 -19 170 -19q39 0 39 23
q0 9 -19 20l-89 49q-89 50 -89 142q0 199 267 199q91 0 186 -27zM388 -65q0 -5 -6 -9l-151 -119q-13 -10 -27 -10h-150q-8 0 -8 6q0 5 6 11l109 112q15 15 31 15h185q11 0 11 -6z" />
    <glyph glyph-name="Scaron" unicode="&#x160;" horiz-adv-x="624" 
d="M690 706v-1l-26 -149q-4 -20 -21 -20h-2q-156 15 -241 15q-24 0 -24 -19q0 -11 32 -29l128 -75q96 -57 96 -162q0 -70 -28 -124t-76.5 -86.5t-107.5 -49t-126 -16.5q-115 0 -209 30q-18 7 -18 17v3l26 149q4 20 23 20h2q174 -17 212 -17q42 0 42 35q0 13 -22 27l-135 87
q-87 57 -87 167q0 67 24 116t68 76.5t97 40t119 12.5q63 0 134.5 -8.5t103.5 -19.5q16 -5 16 -17v-2zM694 932q0 -5 -6 -11l-108 -112q-15 -15 -32 -15h-220q-11 0 -15.5 3t-10.5 12l-70 112q-3 5 -3 8q0 9 11 9h150q15 0 24 -10l40 -45l56 45q13 10 26 10h150q8 0 8 -6z
" />
    <glyph glyph-name="scaron" unicode="&#x161;" horiz-adv-x="540" 
d="M584 555v-3l-23 -130q-3 -21 -21 -21h-2h-1q-104 18 -175 18q-23 0 -23 -14q0 -7 10 -12l101 -54q43 -23 63.5 -60.5t20.5 -76.5q0 -59 -25 -102t-68 -66t-91 -33.5t-103 -10.5q-106 0 -182 26q-15 5 -15 18v4l22 125q4 23 25 23h3h2q133 -19 170 -19q39 0 39 23
q0 9 -19 20l-104 58q-33 18 -53.5 53t-20.5 80q0 199 267 199q91 0 186 -27q17 -6 17 -18zM639 773q0 -5 -6 -11l-108 -112q-15 -15 -32 -15h-220q-11 0 -15.5 3t-10.5 12l-70 112q-3 4 -3 8q0 9 11 9h150q15 0 24 -10l40 -45l56 45q13 10 26 10h150q8 0 8 -6z" />
    <glyph glyph-name="Tcommaaccent" unicode="&#x162;" horiz-adv-x="602" 
d="M704 726v-3l-26 -152q-1 -8 -9 -14t-16 -6h-136l-93 -531q-4 -20 -24 -20h-195q-16 0 -16 16v4l93 531h-140q-16 0 -16 16v4l26 152q4 20 24 20h511q17 0 17 -17zM224 -44h146q11 0 11 -9q0 -4 -3 -10l-76 -108q-12 -20 -25 -20h-112q-13 0 -13 9q0 3 2 11l46 108
q8 19 24 19z" />
    <glyph glyph-name="tcommaaccent" unicode="&#x163;" horiz-adv-x="440" 
d="M426 590h68q13 0 18 -4.5t3 -16.5l-21 -121q-4 -22 -25 -22h-72l-43 -245q-2 -12 -2 -15q0 -14 18 -14h48q12 0 15.5 -4t1.5 -17l-19 -109q-3 -19 -25 -22q-60 -10 -108 -10q-29 0 -54.5 6.5t-49.5 22t-38.5 45.5t-14.5 71q0 20 5 50l42 241l-55 10q-21 4 -18 22l19 111
q3 21 26 21h57l14 82q3 18 26 21l186 31q10 1 15 -5t3 -16zM184 -45h146q11 0 11 -9q0 -4 -3 -10l-76 -108q-12 -20 -25 -20h-112q-13 0 -13 9q0 3 2 11l46 108q8 19 24 19z" />
    <glyph glyph-name="Tcaron" unicode="&#x164;" horiz-adv-x="602" 
d="M704 726v-3l-26 -152q-1 -8 -9 -14t-16 -6h-136l-93 -531q-4 -20 -24 -20h-195q-16 0 -16 16v4l93 531h-140q-16 0 -16 16v4l26 152q4 20 24 20h511q17 0 17 -17zM699 932q0 -5 -6 -11l-108 -112q-15 -15 -32 -15h-220q-11 0 -15.5 3t-10.5 12l-70 112q-3 5 -3 8
q0 9 11 9h150q15 0 24 -10l40 -45l56 45q13 10 26 10h150q8 0 8 -6z" />
    <glyph glyph-name="tcaron" unicode="&#x165;" horiz-adv-x="672" 
d="M515 573v-4l-21 -121q-4 -22 -25 -22h-72l-43 -245q-2 -12 -2 -15q0 -14 18 -14h48q17 0 17 -17v-4l-19 -109q-3 -18 -25 -22q-60 -10 -108 -10q-29 0 -54.5 6.5t-49.5 22t-38.5 45.5t-14.5 71q0 20 5 50l42 241l-55 10q-18 4 -18 19v3l19 111q1 9 9 15t17 6h57l14 82
q3 17 26 21l186 31h3q15 0 15 -17v-4l-20 -113h72q17 0 17 -17zM829 768l-4 -8l-140 -230q-10 -19 -22 -19h-109q-11 0 -11 9q0 6 3 10l105 230q8 19 24 19h144q10 0 10 -9v-2z" />
    <glyph glyph-name="Tbar" unicode="&#x166;" horiz-adv-x="602" 
d="M607 294h-136l-48 -274q-4 -20 -23 -20h-195q-8 0 -13 6t-4 14l48 274h-140q-8 0 -13 6t-3 14l27 152q4 20 23 20h140l12 65h-140q-8 0 -13 6t-4 14l27 152q4 20 24 20h511q8 0 13 -6t4 -14l-27 -152q-4 -20 -24 -20h-136l-12 -65h136q8 0 13.5 -6t4.5 -14l-27 -152
q-1 -8 -9 -14t-16 -6z" />
    <glyph glyph-name="tbar" unicode="&#x167;" horiz-adv-x="429" 
d="M488 448q-4 -22 -24 -22h-72l-8 -41h72q9 0 14 -6t4 -15l-22 -121q-4 -22 -25 -22h-72l-7 -40q-1 -6 -1 -14q0 -15 17 -15h48q9 0 14 -6t4 -15l-20 -109q-3 -19 -24 -22q-60 -10 -108 -10q-74 0 -116.5 30.5t-42.5 105.5q0 26 6 59l6 36l-55 10q-21 4 -18 22l20 111
q4 21 25 21h57l8 41l-56 10q-21 4 -18 22l20 111q4 21 26 21h57l14 82q3 17 26 21l185 31h3q7 0 12 -6.5t3 -14.5l-19 -113h72q9 0 14 -6t3 -15z" />
    <glyph glyph-name="Utilde" unicode="&#x168;" horiz-adv-x="752" 
d="M819 726v-3l-77 -437q-29 -168 -116 -232t-249 -64q-53 0 -99.5 13t-86 39.5t-62.5 74t-23 110.5q0 33 6 70l75 426q1 8 9 14t16 6h195q16 0 16 -17v-3l-77 -437q-4 -19 -4 -37q0 -33 16.5 -46t51.5 -13q42 0 64 20t32 76l77 437q4 20 24 20h195q7 0 12 -5t5 -12z
M759 943v-4l-6 -40q-9 -57 -46 -86t-95 -29q-50 0 -92 24l-36 20q-23 12 -35 12q-14 0 -16 -13l-3 -16q-3 -17 -21 -17h-96q-15 0 -15 13v4l5 33q9 60 47 91t91 31q55 0 97 -24l36 -20q25 -13 36 -13q12 0 15 14l3 16q3 17 21 17h95q15 0 15 -13z" />
    <glyph glyph-name="utilde" unicode="&#x169;" horiz-adv-x="652" 
d="M683 590q23 0 19 -22l-97 -548q-4 -20 -23 -20h-165q-21 0 -17 20l5 28q-29 -20 -47 -30.5t-49.5 -19t-69.5 -8.5q-80 0 -118 48t-38 123q0 31 6 61l61 346q4 22 25 22h180q22 0 18 -22l-58 -330q-4 -22 -4 -30q0 -35 43 -35q28 0 58 15l67 380q4 22 24 22h180zM676 784
v-4l-6 -40q-9 -57 -46 -86t-95 -29q-50 0 -92 24l-36 20q-23 12 -35 12q-14 0 -16 -13l-3 -16q-3 -17 -21 -17h-96q-15 0 -15 13v4l5 33q9 60 47 91t91 31q55 0 97 -24l36 -20q25 -13 36 -13q12 0 15 14l3 16q3 17 21 17h95q15 0 15 -13z" />
    <glyph glyph-name="Umacron" unicode="&#x16a;" horiz-adv-x="752" 
d="M819 726v-3l-77 -437q-29 -168 -116 -232t-249 -64q-53 0 -99.5 13t-86 39.5t-62.5 74t-23 110.5q0 33 6 70l75 426q1 8 9 14t16 6h195q16 0 16 -17v-3l-77 -437q-4 -19 -4 -37q0 -33 16.5 -46t51.5 -13q42 0 64 20t32 76l77 437q4 20 24 20h195q7 0 12 -5t5 -12z
M740 921v-3l-19 -104q-4 -20 -23 -20h-354q-17 0 -17 17v3l19 104q4 20 23 20h354q17 0 17 -17z" />
    <glyph glyph-name="umacron" unicode="&#x16b;" horiz-adv-x="652" 
d="M683 590q23 0 19 -22l-97 -548q-4 -20 -23 -20h-165q-21 0 -17 20l5 28q-29 -20 -47 -30.5t-49.5 -19t-69.5 -8.5q-80 0 -118 48t-38 123q0 31 6 61l61 346q4 22 25 22h180q22 0 18 -22l-58 -330q-4 -22 -4 -30q0 -35 43 -35q28 0 58 15l67 380q4 22 24 22h180zM654 762
v-3l-19 -104q-4 -20 -23 -20h-354q-17 0 -17 17v3l19 104q4 20 23 20h354q17 0 17 -17z" />
    <glyph glyph-name="Ubreve" unicode="&#x16c;" horiz-adv-x="752" 
d="M819 726v-3l-77 -437q-29 -168 -116 -232t-249 -64q-53 0 -99.5 13t-86 39.5t-62.5 74t-23 110.5q0 33 6 70l75 426q1 8 9 14t16 6h195q16 0 16 -17v-3l-77 -437q-4 -19 -4 -37q0 -33 16.5 -46t51.5 -13q42 0 64 20t32 76l77 437q4 20 24 20h195q7 0 12 -5t5 -12z
M529 899q48 0 71 33q1 1 2 4q6 9 16 9h126q13 0 13 -9q0 -11 -8 -25q-69 -124 -228 -124q-158 0 -208 124q-5 15 -5 21q0 13 14 13h125q13 0 20 -13q9 -18 22 -25.5t40 -7.5z" />
    <glyph glyph-name="ubreve" unicode="&#x16d;" horiz-adv-x="652" 
d="M683 590q23 0 19 -22l-97 -548q-4 -20 -23 -20h-165q-21 0 -17 20l5 28q-29 -20 -47 -30.5t-49.5 -19t-69.5 -8.5q-80 0 -118 48t-38 123q0 31 6 61l61 346q4 22 25 22h180q22 0 18 -22l-58 -330q-4 -22 -4 -30q0 -35 43 -35q28 0 58 15l67 380q4 22 24 22h180zM445 740
q48 0 71 33q1 1 2 4q6 9 16 9h126q13 0 13 -9q0 -11 -8 -25q-69 -124 -228 -124q-158 0 -208 124q-5 15 -5 21q0 13 14 13h125q13 0 20 -13q9 -18 22 -25.5t40 -7.5z" />
    <glyph glyph-name="Uring" unicode="&#x16e;" horiz-adv-x="752" 
d="M819 726v-3l-77 -437q-29 -168 -116 -232t-249 -64q-53 0 -99.5 13t-86 39.5t-62.5 74t-23 110.5q0 33 6 70l75 426q1 8 9 14t16 6h195q16 0 16 -17v-3l-77 -437q-4 -19 -4 -37q0 -33 16.5 -46t51.5 -13q42 0 64 20t32 76l77 437q4 20 24 20h195q7 0 12 -5t5 -12z
M640 889q0 -53 -37.5 -90.5t-90.5 -37.5t-90.5 37.5t-37.5 90.5t37.5 90.5t90.5 37.5t90.5 -37.5t37.5 -90.5zM550 890q0 15 -11 26t-26 11t-25.5 -10.5t-10.5 -26.5t10.5 -26.5t25.5 -10.5t26 11t11 26z" />
    <glyph glyph-name="uring" unicode="&#x16f;" horiz-adv-x="652" 
d="M683 590q23 0 19 -22l-97 -548q-4 -20 -23 -20h-165q-21 0 -17 20l5 28q-29 -20 -47 -30.5t-49.5 -19t-69.5 -8.5q-80 0 -118 48t-38 123q0 31 6 61l61 346q4 22 25 22h180q22 0 18 -22l-58 -330q-4 -22 -4 -30q0 -35 43 -35q28 0 58 15l67 380q4 22 24 22h180zM566 742
q0 -53 -37.5 -90.5t-90.5 -37.5t-90.5 37.5t-37.5 90.5t37.5 90.5t90.5 37.5t90.5 -37.5t37.5 -90.5zM476 743q0 15 -11 26t-26 11t-25.5 -11t-10.5 -26t10.5 -26t25.5 -11t26 11t11 26z" />
    <glyph glyph-name="Uhungarumlaut" unicode="&#x170;" horiz-adv-x="752" 
d="M819 726v-3l-77 -437q-29 -168 -116 -232t-249 -64q-53 0 -99.5 13t-86 39.5t-62.5 74t-23 110.5q0 33 6 70l75 426q1 8 9 14t16 6h195q16 0 16 -17v-3l-77 -437q-4 -19 -4 -37q0 -33 16.5 -46t51.5 -13q42 0 64 20t32 76l77 437q4 20 24 20h195q7 0 12 -5t5 -12z
M887 932q0 -4 -6 -9l-151 -119q-13 -10 -27 -10h-150q-8 0 -8 6q0 5 6 11l109 112q15 15 31 15h185q11 0 11 -6zM607 932q0 -4 -6 -9l-151 -119q-13 -10 -27 -10h-150q-8 0 -8 6q0 5 6 11l109 112q15 15 31 15h185q11 0 11 -6z" />
    <glyph glyph-name="uhungarumlaut" unicode="&#x171;" horiz-adv-x="652" 
d="M683 590q23 0 19 -22l-97 -548q-4 -20 -23 -20h-165q-21 0 -17 20l5 28q-29 -20 -47 -30.5t-49.5 -19t-69.5 -8.5q-80 0 -118 48t-38 123q0 31 6 61l61 346q4 22 25 22h180q22 0 18 -22l-58 -330q-4 -22 -4 -30q0 -35 43 -35q28 0 58 15l67 380q4 22 24 22h180zM837 773
q0 -5 -6 -9l-151 -119q-13 -10 -27 -10h-150q-8 0 -8 6q0 5 6 11l109 112q15 15 31 15h185q11 0 11 -6zM557 773q0 -5 -6 -9l-151 -119q-13 -10 -27 -10h-150q-8 0 -8 6q0 5 6 11l109 112q15 15 31 15h185q11 0 11 -6z" />
    <glyph glyph-name="Uogonek" unicode="&#x172;" horiz-adv-x="752" 
d="M819 726v-3l-77 -437q-19 -106 -56.5 -164t-108.5 -100l-73 -43q-47 -27 -47 -51q0 -9 7 -12t26 -3q17 0 43.5 3.5t29.5 3.5q7 0 8.5 -2t-0.5 -10l-13 -73v-1q-1 -9 -13 -15q-50 -20 -137 -20q-66 0 -99.5 23t-33.5 65q0 64 70 104q-103 8 -171 65.5t-68 170.5q0 33 6 70
l75 426q1 8 9 14t16 6h195q16 0 16 -17v-3l-77 -437q-4 -19 -4 -37q0 -33 16.5 -46t51.5 -13q42 0 64 20t32 76l77 437q4 20 24 20h195q7 0 12 -5t5 -12z" />
    <glyph glyph-name="uogonek" unicode="&#x173;" horiz-adv-x="652" 
d="M702 571v-3l-97 -548q-3 -15 -21 -20l-68 -21q-47 -15 -47 -51q0 -9 7 -12t26 -3q17 0 43.5 3.5t29.5 3.5q10 0 8 -12l-13 -73v-1q-1 -9 -13 -15q-50 -20 -137 -20q-66 0 -99.5 23t-33.5 65q0 39 21.5 65t68.5 50l21 11l2 7l5 28q-29 -20 -47 -30.5t-49.5 -19t-69.5 -8.5
q-80 0 -118 48t-38 123q0 31 6 61l61 346q4 22 25 22h180q18 0 18 -18v-4l-61 -346q-1 -4 -1 -12q0 -37 43 -37q28 0 58 15l67 380q4 22 24 22h180q19 0 19 -19z" />
    <glyph glyph-name="Wcircumflex" unicode="&#x174;" horiz-adv-x="945" 
d="M1046 727q0 -3 -2 -9l-208 -655q-13 -41 -35 -57t-59 -16h-103q-36 0 -50.5 13t-20.5 52l-37 228q-2 11 -7 11t-11 -11l-117 -228q-18 -36 -38.5 -50.5t-56.5 -14.5h-103q-68 0 -68 68v3v2l23 655q1 25 26 25h184q19 0 19 -20v-2l-21 -351v-5q0 -7 5 -7q4 0 11 12l69 133
q11 22 23.5 30t38.5 8h110q26 0 36.5 -8.5t13.5 -29.5l21 -133q3 -12 6 -12q7 0 10 12l103 353q5 20 22 20h199q17 0 17 -16zM831 803q0 -9 -10 -9h-138q-14 0 -23 10l-40 49l-56 -49q-11 -10 -27 -10h-150q-8 0 -8 6q0 5 6 11l103 112q14 15 31 15h220q18 0 27 -15l63 -112
q2 -3 2 -8z" />
    <glyph glyph-name="wcircumflex" unicode="&#x175;" horiz-adv-x="898" 
d="M965 590q17 0 12 -15l-181 -502q-20 -56 -40 -69.5t-65 -13.5h-94q-41 0 -55.5 14t-22.5 64l-24 144q-1 9 -7 9t-11 -9l-74 -144q-25 -49 -45 -63.5t-61 -14.5h-94q-45 0 -59.5 13.5t-15.5 69.5l-5 502q0 15 18 15h199q11 0 11 -16l-14 -298q0 -9 6 -9q5 0 10 9l73 138
q11 21 21.5 28.5t30.5 7.5h100q20 0 28 -7.5t12 -28.5l25 -138q2 -13 8 -13q4 0 8 13l90 298q5 16 17 16h199zM772 644q0 -9 -10 -9h-138q-14 0 -23 10l-40 49l-56 -49q-11 -10 -27 -10h-150q-8 0 -8 6q0 5 6 11l103 112q14 15 31 15h220q18 0 27 -15l63 -112q2 -3 2 -8z
" />
    <glyph glyph-name="Ycircumflex" unicode="&#x176;" horiz-adv-x="709" 
d="M824 732q0 -4 -3 -9l-207 -344q-44 -74 -91 -92l-47 -267q-1 -8 -9 -14t-16 -6h-195q-16 0 -16 16v4l47 267q-40 18 -59 92l-86 344v4q0 16 16 16h211q13 0 17 -20l41 -248q1 -6 5 -6t7 6l128 248q10 20 25 20h220q12 0 12 -11zM707 803q0 -9 -10 -9h-138q-14 0 -23 10
l-40 49l-56 -49q-11 -10 -27 -10h-150q-8 0 -8 6q0 5 6 11l103 112q14 15 31 15h220q18 0 27 -15l63 -112q2 -3 2 -8z" />
    <glyph glyph-name="ycircumflex" unicode="&#x177;" horiz-adv-x="656" 
d="M726 590q23 0 14 -21l-276 -600q-20 -43 -41.5 -72.5t-53.5 -54t-78 -36.5t-107 -12q-33 0 -80 6.5t-67 14.5q-13 5 -16.5 8.5t-2.5 11.5l20 114q1 8 2.5 11.5t7.5 7.5t17 3q98 -7 149 -7q33 0 44 23l15 34h-13q-34 0 -55.5 16t-27.5 62l-61 470q-1 12 5 16.5t21 4.5h191
q16 0 16 -21l13 -312q0 -14 7 -14h7l121 326q8 21 26 21h203zM653 644q0 -9 -10 -9h-138q-14 0 -23 10l-40 49l-56 -49q-11 -10 -27 -10h-150q-8 0 -8 6q0 5 6 11l103 112q14 15 31 15h220q18 0 27 -15l63 -112q2 -3 2 -8z" />
    <glyph glyph-name="Ydieresis" unicode="&#x178;" horiz-adv-x="709" 
d="M824 732q0 -4 -3 -9l-207 -344q-44 -74 -91 -92l-47 -267q-1 -8 -9 -14t-16 -6h-195q-16 0 -16 16v4l47 267q-40 18 -59 92l-86 344v4q0 16 16 16h211q13 0 17 -20l41 -248q1 -6 5 -6t7 6l128 248q10 20 25 20h220q12 0 12 -11zM733 920v-3l-18 -102q-1 -9 -9.5 -15
t-17.5 -6h-139q-8 0 -13.5 5t-5.5 13v3l18 102q4 21 26 21h139q8 0 14 -5.5t6 -12.5zM503 920v-3l-18 -102q-1 -9 -9.5 -15t-17.5 -6h-139q-8 0 -13.5 5t-5.5 13v3l18 102q4 21 26 21h139q8 0 14 -5.5t6 -12.5z" />
    <glyph glyph-name="Zacute" unicode="&#x179;" horiz-adv-x="629" 
d="M702 727v-4l-24 -140q-5 -25 -33 -59l-249 -302q-6 -7 -6 -13q0 -7 12 -7h192q17 0 17 -17v-3l-28 -162q-1 -8 -9 -14t-16 -6h-488q-16 0 -16 16v4l22 130q4 24 30 55l256 315q7 8 7 14q0 7 -11 7h-190q-16 0 -16 16v4l28 162q4 20 24 20h482q16 0 16 -16zM688 932
q0 -4 -6 -9l-151 -119q-13 -10 -27 -10h-154q-8 0 -8 6q0 5 6 11l107 112q15 15 31 15h191q11 0 11 -6z" />
    <glyph glyph-name="zacute" unicode="&#x17a;" horiz-adv-x="567" 
d="M600 590q21 0 17 -20l-19 -107q-3 -17 -8.5 -26.5t-26.5 -31.5l-193 -211q-7 -9 -7 -12q0 -7 10 -7h158q16 0 14 -16l-24 -139q-4 -20 -24 -20h-427q-19 0 -16 20l18 105q5 28 25 50l205 222q7 9 7 12q0 6 -10 6h-155q-16 0 -13 16l25 139q4 20 23 20h421zM657 773
q0 -5 -6 -9l-151 -119q-13 -10 -27 -10h-154q-8 0 -8 6q0 5 6 11l107 112q15 15 31 15h191q11 0 11 -6z" />
    <glyph glyph-name="Zdotaccent" unicode="&#x17b;" horiz-adv-x="629" 
d="M702 727v-4l-24 -140q-5 -25 -33 -59l-249 -302q-6 -7 -6 -13q0 -7 12 -7h192q17 0 17 -17v-3l-28 -162q-1 -8 -9 -14t-16 -6h-488q-16 0 -16 16v4l22 130q4 24 30 55l256 315q7 8 7 14q0 7 -11 7h-190q-16 0 -16 16v4l28 162q4 20 24 20h482q16 0 16 -16zM586 933v-3
l-21 -116q-4 -20 -24 -20h-174q-18 0 -18 17v3l21 116q4 20 24 20h174q18 0 18 -17z" />
    <glyph glyph-name="zdotaccent" unicode="&#x17c;" horiz-adv-x="567" 
d="M600 590q21 0 17 -20l-19 -107q-3 -17 -8.5 -26.5t-26.5 -31.5l-193 -211q-7 -9 -7 -12q0 -7 10 -7h158q16 0 14 -16l-24 -139q-4 -20 -24 -20h-427q-19 0 -16 20l18 105q5 28 25 50l205 222q7 9 7 12q0 6 -10 6h-155q-16 0 -13 16l25 139q4 20 23 20h421zM529 773v-3
l-21 -116q-4 -20 -24 -20h-174q-18 0 -18 17v3l21 116q4 20 24 20h174q18 0 18 -17z" />
    <glyph glyph-name="Zcaron" unicode="&#x17d;" horiz-adv-x="629" 
d="M702 727v-4l-24 -140q-5 -25 -33 -59l-249 -302q-6 -7 -6 -13q0 -7 12 -7h192q17 0 17 -17v-3l-28 -162q-1 -8 -9 -14t-16 -6h-488q-16 0 -16 16v4l22 130q4 24 30 55l256 315q7 8 7 14q0 7 -11 7h-190q-16 0 -16 16v4l28 162q4 20 24 20h482q16 0 16 -16zM723 932
q0 -5 -6 -11l-108 -112q-15 -15 -32 -15h-220q-11 0 -15.5 3t-10.5 12l-70 112q-3 5 -3 8q0 9 11 9h150q15 0 24 -10l40 -45l56 45q13 10 26 10h150q8 0 8 -6z" />
    <glyph glyph-name="zcaron" unicode="&#x17e;" horiz-adv-x="567" 
d="M617 573v-3l-19 -107q-3 -17 -8.5 -26.5t-26.5 -31.5l-193 -211q-7 -9 -7 -12q0 -7 10 -7h158q14 0 14 -13v-3l-24 -139q-4 -20 -24 -20h-427q-16 0 -16 16v4l18 105q5 28 25 50l205 222q7 9 7 12q0 6 -10 6h-155q-13 0 -13 13v3l25 139q4 20 23 20h421q17 0 17 -17z
M656 773q0 -5 -6 -11l-108 -112q-15 -15 -32 -15h-220q-11 0 -15.5 3t-10.5 12l-70 112q-3 4 -3 8q0 9 11 9h150q15 0 24 -10l40 -45l56 45q13 10 26 10h150q8 0 8 -6z" />
    <glyph glyph-name="florin" unicode="&#x192;" 
d="M727 775q0 -4 -1 -7l-24 -109q-5 -21 -26 -21h-72q-36 0 -46.5 -6.5t-15.5 -27.5l-29 -129h126q17 0 17 -16q0 -1 -0.5 -2.5t-0.5 -2.5l-28 -121q-2 -9 -9.5 -15.5t-16.5 -6.5h-126l-69 -301q-45 -196 -270 -196q-74 0 -122 11q-17 4 -17 14q0 4 1 7l24 109q5 21 26 21
h72q36 0 46.5 6.5t15.5 27.5l69 301h-125q-7 0 -12 5t-5 12q0 1 0.5 2.5t0.5 2.5l28 121q5 21 26 21h125l29 129q44 196 269 196q75 0 123 -11q17 -4 17 -14z" />
    <glyph glyph-name="AEacute" unicode="&#x1fc;" horiz-adv-x="968" 
d="M1040 727v-4l-28 -162q-4 -20 -24 -20h-214l-13 -76h214q16 0 16 -16v-4l-24 -141q-4 -20 -24 -20h-214l-11 -60q-1 -4 -1 -12q0 -20 29 -20h181q16 0 16 -16v-4l-26 -151q-3 -18 -24 -20q-92 -11 -183 -11q-44 0 -78.5 5.5t-68.5 19.5t-55.5 43.5t-27.5 73.5h-174
l-38 -112q-7 -20 -25 -20h-208q-13 0 -13 12q0 2 2 8l223 594q27 73 85.5 101t156.5 28h535q16 0 16 -16zM538 541h-78q-13 0 -20 -21l-70 -204h129zM929 932q0 -4 -6 -9l-151 -119q-13 -10 -27 -10h-154q-8 0 -8 6q0 5 6 11l107 112q15 15 31 15h191q11 0 11 -6z" />
    <glyph glyph-name="aeacute" unicode="&#x1fd;" horiz-adv-x="903" 
d="M930 385q0 -31 -6 -66l-11 -61q-1 -9 -8.5 -15t-16.5 -6h-302q-2 -16 -2 -22q0 -24 17 -33t60 -9q105 0 189 7h1h3q16 0 16 -12q0 -1 -0.5 -3t-0.5 -3l-19 -105q-3 -19 -24 -29q-83 -38 -214 -38q-75 0 -130 31q-109 -31 -187 -31q-113 0 -171.5 43.5t-58.5 113.5v9
q0 15 2 24l2 10q10 50 35 82.5t66.5 49t85 22t106.5 5.5h24l3 22q1 4 1 11q0 21 -10.5 28t-31.5 7q-59 0 -179 -6h-1q-13 0 -13 17v4l20 114q3 17 25 25q82 29 180 29q109 0 167 -45q37 23 71.5 34t89.5 11q111 0 166.5 -59t55.5 -156zM723 385q0 47 -47 47q-31 0 -46.5 -20
t-23.5 -63h113q4 26 4 36zM373 237h-31q-54 0 -64 -47l-2 -10v-4v-6q0 -16 12 -22t37 -6q11 0 31 2zM817 773q0 -5 -6 -9l-151 -119q-13 -10 -27 -10h-154q-8 0 -8 6q0 5 6 11l107 112q15 15 31 15h191q11 0 11 -6z" />
    <glyph glyph-name="Oslashacute" unicode="&#x1fe;" horiz-adv-x="716" 
d="M832 745q0 -6 -5 -11l-96 -108q26 -54 26 -127q0 -36 -8 -84l-15 -87q-58 -338 -378 -338q-92 0 -159 40l-19 -21q-17 -19 -30 -19h-124q-9 0 -9 8q0 6 5 11l97 108q-27 56 -27 128q0 35 8 83l15 87q59 338 378 338q95 0 160 -39l18 20q17 19 30 19h124q9 0 9 -8z
M492 536q-15 9 -38 9q-43 0 -67 -30t-35 -100l-7 -44zM503 371l-148 -164q15 -9 38 -9q42 0 65.5 29.5t36.5 100.5zM724 932q0 -4 -6 -9l-151 -119q-13 -10 -27 -10h-154q-8 0 -8 6q0 5 6 11l107 112q15 15 31 15h191q11 0 11 -6z" />
    <glyph glyph-name="oslashacute" unicode="&#x1ff;" horiz-adv-x="620" 
d="M695 619q0 -7 -6 -13l-79 -86q38 -54 38 -131q0 -27 -7 -71l-8 -46q-27 -152 -108 -217t-217 -65q-92 0 -148 38l-48 -53q-9 -10 -18 -10h-58q-7 0 -7 6q0 7 6 13l80 87q-38 53 -38 133q0 32 6 68l8 46q26 150 108 216t217 66q90 0 149 -37l47 52q9 10 18 10h58q7 0 7 -6
zM416 401q-10 15 -33 15q-54 0 -70 -98l-6 -37zM417 309l-109 -120q10 -15 33 -15q27 0 44 21t26 77zM657 773q0 -5 -6 -9l-151 -119q-13 -10 -27 -10h-154q-8 0 -8 6q0 5 6 11l107 112q15 15 31 15h191q11 0 11 -6z" />
    <glyph glyph-name="uni0218" unicode="&#x218;" horiz-adv-x="624" 
d="M690 706v-1l-26 -149q-4 -20 -21 -20h-2q-156 15 -241 15q-24 0 -24 -19q0 -11 32 -29l128 -75q96 -57 96 -162q0 -70 -28 -124t-76.5 -86.5t-107.5 -49t-126 -16.5q-115 0 -209 30q-18 7 -18 17v3l26 149q4 20 23 20h2q174 -17 212 -17q42 0 42 35q0 13 -22 27l-135 87
q-87 57 -87 167q0 67 24 116t68 76.5t97 40t119 12.5q63 0 134.5 -8.5t103.5 -19.5q16 -5 16 -17v-2zM254 -44h146q11 0 11 -9q0 -4 -3 -10l-76 -108q-12 -20 -25 -20h-112q-13 0 -13 9q0 3 2 11l46 108q8 19 24 19z" />
    <glyph glyph-name="uni0219" unicode="&#x219;" horiz-adv-x="540" 
d="M567 573q11 -3 14.5 -7t2.5 -14l-23 -130q-1 -9 -2.5 -13t-7 -7t-14.5 -1q-108 18 -175 18q-23 0 -23 -11q0 -10 22 -22l79 -42q61 -32 80.5 -68.5t19.5 -84.5q0 -104 -78 -152.5t-215 -48.5q-108 0 -182 26q-18 7 -15 22l22 125q5 27 30 23q123 -19 170 -19q39 0 39 23
q0 9 -19 20l-89 49q-89 50 -89 142q0 199 267 199q91 0 186 -27zM210 -44h146q11 0 11 -9q0 -4 -3 -10l-76 -108q-12 -20 -25 -20h-112q-13 0 -13 9q0 3 2 11l46 108q8 19 24 19z" />
    <glyph glyph-name="uni021A" unicode="&#x21a;" horiz-adv-x="602" 
d="M704 726v-3l-26 -152q-1 -8 -9 -14t-16 -6h-136l-93 -531q-4 -20 -24 -20h-195q-16 0 -16 16v4l93 531h-140q-16 0 -16 16v4l26 152q4 20 24 20h511q17 0 17 -17zM224 -44h146q11 0 11 -9q0 -4 -3 -10l-76 -108q-12 -20 -25 -20h-112q-13 0 -13 9q0 3 2 11l46 108
q8 19 24 19z" />
    <glyph glyph-name="uni021B" unicode="&#x21b;" horiz-adv-x="440" 
d="M426 590h68q13 0 18 -4.5t3 -16.5l-21 -121q-4 -22 -25 -22h-72l-43 -245q-2 -12 -2 -15q0 -14 18 -14h48q12 0 15.5 -4t1.5 -17l-19 -109q-3 -19 -25 -22q-60 -10 -108 -10q-29 0 -54.5 6.5t-49.5 22t-38.5 45.5t-14.5 71q0 20 5 50l42 241l-55 10q-21 4 -18 22l19 111
q3 21 26 21h57l14 82q3 18 26 21l186 31q10 1 15 -5t3 -16zM184 -45h146q11 0 11 -9q0 -4 -3 -10l-76 -108q-12 -20 -25 -20h-112q-13 0 -13 9q0 3 2 11l46 108q8 19 24 19z" />
    <glyph glyph-name="circumflex" unicode="&#x2c6;" horiz-adv-x="500" 
d="M589 644q0 -9 -10 -9h-138q-14 0 -23 10l-40 49l-56 -49q-11 -10 -27 -10h-150q-8 0 -8 6q0 5 6 11l103 112q14 15 31 15h220q18 0 27 -15l63 -112q2 -3 2 -8z" />
    <glyph glyph-name="caron" unicode="&#x2c7;" horiz-adv-x="500" 
d="M618 773q0 -5 -6 -11l-108 -112q-15 -15 -32 -15h-220q-11 0 -15.5 3t-10.5 12l-70 112q-3 4 -3 8q0 9 11 9h150q15 0 24 -10l40 -45l56 45q13 10 26 10h150q8 0 8 -6z" />
    <glyph glyph-name="uni02C9" unicode="&#x2c9;" horiz-adv-x="500" 
d="M581 762v-3l-19 -104q-4 -20 -23 -20h-354q-17 0 -17 17v3l19 104q4 20 23 20h354q17 0 17 -17z" />
    <glyph glyph-name="breve" unicode="&#x2d8;" horiz-adv-x="500" 
d="M379 733q48 0 71 33q8 11 11 12t7 1h126q13 0 13 -9q0 -11 -8 -25q-69 -124 -228 -124q-158 0 -208 124q-5 15 -5 21q0 13 14 13h125q13 0 20 -13q9 -18 22 -25.5t40 -7.5z" />
    <glyph glyph-name="dotaccent" unicode="&#x2d9;" horiz-adv-x="500" 
d="M493 768v-3l-21 -116q-4 -20 -24 -20h-174q-18 0 -18 17v3l21 116q4 20 24 20h174q18 0 18 -17z" />
    <glyph glyph-name="ring" unicode="&#x2da;" horiz-adv-x="500" 
d="M498 718q0 -53 -37.5 -90.5t-90.5 -37.5t-90.5 37.5t-37.5 90.5t37.5 90.5t90.5 37.5t90.5 -37.5t37.5 -90.5zM408 719q0 15 -11 26t-26 11t-25.5 -11t-10.5 -26t10.5 -26t25.5 -11t26 11t11 26z" />
    <glyph glyph-name="ogonek" unicode="&#x2db;" horiz-adv-x="500" 
d="M333 -165v-1q-1 -9 -13 -15q-50 -20 -137 -20q-66 0 -99.5 23t-33.5 65q0 39 21.5 65t68.5 50l53 28q11 7 30 7h128q8 0 8 -5.5t-7 -9.5l-73 -43q-47 -27 -47 -51q0 -9 7 -12t26 -3q17 0 43.5 3.5t29.5 3.5q7 0 8.5 -2t-0.5 -10z" />
    <glyph glyph-name="tilde" unicode="&#x2dc;" horiz-adv-x="500" 
d="M602 780v-4l-6 -40q-9 -57 -46 -86t-95 -29q-50 0 -92 24l-36 20q-23 12 -35 12q-14 0 -16 -13l-3 -16q-3 -17 -21 -17h-96q-15 0 -15 13v4l5 33q9 60 47 91t91 31q55 0 97 -24l36 -20q25 -13 36 -13q12 0 15 14l3 16q3 17 21 17h95q15 0 15 -13z" />
    <glyph glyph-name="hungarumlaut" unicode="&#x2dd;" horiz-adv-x="500" 
d="M684 773q0 -5 -6 -9l-151 -119q-13 -10 -27 -10h-150q-8 0 -8 6q0 5 6 11l109 112q15 15 31 15h185q11 0 11 -6zM404 773q0 -5 -6 -9l-151 -119q-13 -10 -27 -10h-150q-8 0 -8 6q0 5 6 11l109 112q15 15 31 15h185q11 0 11 -6z" />
    <glyph glyph-name="uni03A9" unicode="&#x3a9;" horiz-adv-x="733" 
d="M753 395q-16 -94 -57.5 -146t-119.5 -83l-1 -6h105q15 0 13 -14l-23 -132q-2 -14 -16 -14h-273q-16 0 -13 14l41 235q2 11 14 15q32 8 50 40.5t29 94.5l9 50q4 30 4 39q0 35 -16 50.5t-50 15.5q-41 0 -64 -24t-33 -81l-9 -50q-8 -43 -8 -69q0 -56 38 -66q11 -3 8 -15
l-41 -235q-3 -14 -17 -14h-273q-16 0 -13 14l23 132q2 14 18 14h107l1 6q-98 44 -98 183q0 37 8 85l9 48q26 149 117.5 212.5t249.5 63.5q297 0 297 -237q0 -39 -7 -78z" />
    <glyph glyph-name="uni03BC" unicode="&#x3bc;" horiz-adv-x="652" 
d="M702 571v-3l-92 -522q-2 -14 -11.5 -21.5t-34.5 -13.5q-99 -21 -239 -21q-27 0 -52 3l-29 -162q-4 -20 -23 -20h-184q-17 0 -17 17v3l130 737q4 22 25 22h179q18 0 18 -18v-4l-63 -359q0 -1 -0.5 -4t-0.5 -4q0 -32 48 -32q32 0 53 3l70 396q4 22 24 22h180q19 0 19 -19z
" />
    <glyph glyph-name="pi" unicode="&#x3c0;" horiz-adv-x="775" 
d="M791 391h-2q20 0 22 23l26 147q4 23 -16 23h-664q-9 0 -14.5 -4t-7 -7.5t-2.5 -11.5l-26 -147q-5 -23 14 -23h52l-64 -367q-4 -24 20 -24h185q25 0 29 24l64 366h96l-30 -169q-7 -38 -7 -77q0 -78 41 -119t134 -41q44 0 81 5q16 2 19 22l19 103q2 13 -3 17t-17 4h-8
q-34 0 -34 22q0 10 3 28l36 206h54z" />
    <glyph glyph-name="Wgrave" unicode="&#x1e80;" horiz-adv-x="945" 
d="M1046 727q0 -3 -2 -9l-208 -655q-13 -41 -35 -57t-59 -16h-103q-36 0 -50.5 13t-20.5 52l-37 228q-2 11 -7 11t-11 -11l-117 -228q-18 -36 -38.5 -50.5t-56.5 -14.5h-103q-68 0 -68 68v3v2l23 655q1 25 26 25h184q19 0 19 -20v-2l-21 -351v-5q0 -7 5 -7q4 0 11 12l69 133
q11 22 23.5 30t38.5 8h110q26 0 36.5 -8.5t13.5 -29.5l21 -133q3 -12 6 -12q7 0 10 12l103 353q5 20 22 20h199q17 0 17 -16zM698 803q0 -9 -10 -9h-142q-14 0 -23 10l-109 119q-3 4 -3 7q0 8 12 8h177q17 0 27 -15l69 -112q2 -3 2 -8z" />
    <glyph glyph-name="wgrave" unicode="&#x1e81;" horiz-adv-x="898" 
d="M965 590q17 0 12 -15l-181 -502q-20 -56 -40 -69.5t-65 -13.5h-94q-41 0 -55.5 14t-22.5 64l-24 144q-1 9 -7 9t-11 -9l-74 -144q-25 -49 -45 -63.5t-61 -14.5h-94q-45 0 -59.5 13.5t-15.5 69.5l-5 502q0 15 18 15h199q11 0 11 -16l-14 -298q0 -9 6 -9q5 0 10 9l73 138
q11 21 21.5 28.5t30.5 7.5h100q20 0 28 -7.5t12 -28.5l25 -138q2 -13 8 -13q4 0 8 13l90 298q5 16 17 16h199zM646 644q0 -9 -10 -9h-142q-14 0 -23 10l-109 119q-3 4 -3 7q0 8 12 8h177q17 0 27 -15l69 -112q2 -3 2 -8z" />
    <glyph glyph-name="Wacute" unicode="&#x1e82;" horiz-adv-x="945" 
d="M1046 727q0 -3 -2 -9l-208 -655q-13 -41 -35 -57t-59 -16h-103q-36 0 -50.5 13t-20.5 52l-37 228q-2 11 -7 11t-11 -11l-117 -228q-18 -36 -38.5 -50.5t-56.5 -14.5h-103q-68 0 -68 68v3v2l23 655q1 25 26 25h184q19 0 19 -20v-2l-21 -351v-5q0 -7 5 -7q4 0 11 12l69 133
q11 22 23.5 30t38.5 8h110q26 0 36.5 -8.5t13.5 -29.5l21 -133q3 -12 6 -12q7 0 10 12l103 353q5 20 22 20h199q17 0 17 -16zM830 932q0 -4 -6 -9l-151 -119q-13 -10 -27 -10h-154q-8 0 -8 6q0 5 6 11l107 112q15 15 31 15h191q11 0 11 -6z" />
    <glyph glyph-name="wacute" unicode="&#x1e83;" horiz-adv-x="898" 
d="M965 590q17 0 12 -15l-181 -502q-20 -56 -40 -69.5t-65 -13.5h-94q-41 0 -55.5 14t-22.5 64l-24 144q-1 9 -7 9t-11 -9l-74 -144q-25 -49 -45 -63.5t-61 -14.5h-94q-45 0 -59.5 13.5t-15.5 69.5l-5 502q0 15 18 15h199q11 0 11 -16l-14 -298q0 -9 6 -9q5 0 10 9l73 138
q11 21 21.5 28.5t30.5 7.5h100q20 0 28 -7.5t12 -28.5l25 -138q2 -13 8 -13q4 0 8 13l90 298q5 16 17 16h199zM808 773q0 -5 -6 -9l-151 -119q-13 -10 -27 -10h-154q-8 0 -8 6q0 5 6 11l107 112q15 15 31 15h191q11 0 11 -6z" />
    <glyph glyph-name="Wdieresis" unicode="&#x1e84;" horiz-adv-x="945" 
d="M1046 727q0 -3 -2 -9l-208 -655q-13 -41 -35 -57t-59 -16h-103q-36 0 -50.5 13t-20.5 52l-37 228q-2 11 -7 11t-11 -11l-117 -228q-18 -36 -38.5 -50.5t-56.5 -14.5h-103q-68 0 -68 68v3v2l23 655q1 25 26 25h184q19 0 19 -20v-2l-21 -351v-5q0 -7 5 -7q4 0 11 12l69 133
q11 22 23.5 30t38.5 8h110q26 0 36.5 -8.5t13.5 -29.5l21 -133q3 -12 6 -12q7 0 10 12l103 353q5 20 22 20h199q17 0 17 -16zM831 920v-3l-18 -102q-1 -9 -9.5 -15t-17.5 -6h-139q-8 0 -13.5 5t-5.5 13v3l18 102q4 21 26 21h139q8 0 14 -5.5t6 -12.5zM601 920v-3l-18 -102
q-1 -9 -9.5 -15t-17.5 -6h-139q-8 0 -13.5 5t-5.5 13v3l18 102q4 21 26 21h139q8 0 14 -5.5t6 -12.5z" />
    <glyph glyph-name="wdieresis" unicode="&#x1e85;" horiz-adv-x="898" 
d="M965 590q17 0 12 -15l-181 -502q-20 -56 -40 -69.5t-65 -13.5h-94q-41 0 -55.5 14t-22.5 64l-24 144q-1 9 -7 9t-11 -9l-74 -144q-25 -49 -45 -63.5t-61 -14.5h-94q-45 0 -59.5 13.5t-15.5 69.5l-5 502q0 15 18 15h199q11 0 11 -16l-14 -298q0 -9 6 -9q5 0 10 9l73 138
q11 21 21.5 28.5t30.5 7.5h100q20 0 28 -7.5t12 -28.5l25 -138q2 -13 8 -13q4 0 8 13l90 298q5 16 17 16h199zM789 761v-3l-18 -102q-1 -9 -9.5 -15t-17.5 -6h-139q-8 0 -13.5 5t-5.5 13v3l18 102q4 21 26 21h139q8 0 14 -5.5t6 -12.5zM559 761v-3l-18 -102q-1 -9 -9.5 -15
t-17.5 -6h-139q-8 0 -13.5 5t-5.5 13v3l18 102q4 21 26 21h139q8 0 14 -5.5t6 -12.5z" />
    <glyph glyph-name="Ygrave" unicode="&#x1ef2;" horiz-adv-x="709" 
d="M824 732q0 -4 -3 -9l-207 -344q-44 -74 -91 -92l-47 -267q-1 -8 -9 -14t-16 -6h-195q-16 0 -16 16v4l47 267q-40 18 -59 92l-86 344v4q0 16 16 16h211q13 0 17 -20l41 -248q1 -6 5 -6t7 6l128 248q10 20 25 20h220q12 0 12 -11zM594 803q0 -9 -10 -9h-142q-14 0 -23 10
l-109 119q-3 4 -3 7q0 8 12 8h177q17 0 27 -15l69 -112q2 -3 2 -8z" />
    <glyph glyph-name="ygrave" unicode="&#x1ef3;" horiz-adv-x="656" 
d="M726 590q23 0 14 -21l-276 -600q-20 -43 -41.5 -72.5t-53.5 -54t-78 -36.5t-107 -12q-33 0 -80 6.5t-67 14.5q-13 5 -16.5 8.5t-2.5 11.5l20 114q1 8 2.5 11.5t7.5 7.5t17 3q98 -7 149 -7q33 0 44 23l15 34h-13q-34 0 -55.5 16t-27.5 62l-61 470q-1 12 5 16.5t21 4.5h191
q16 0 16 -21l13 -312q0 -14 7 -14h7l121 326q8 21 26 21h203zM536 644q0 -9 -10 -9h-142q-14 0 -23 10l-109 119q-3 4 -3 7q0 8 12 8h177q17 0 27 -15l69 -112q2 -3 2 -8z" />
    <glyph glyph-name="endash" unicode="&#x2013;" horiz-adv-x="339" 
d="M397 244q-4 -20 -24 -20h-329q-8 0 -13 6t-3 14l18 106q4 20 24 20h329q8 0 13 -6t3 -14z" />
    <glyph glyph-name="emdash" unicode="&#x2014;" horiz-adv-x="662" 
d="M720 244q-4 -20 -24 -20h-652q-8 0 -13 6t-3 14l18 106q4 20 24 20h652q8 0 13 -6t3 -14z" />
    <glyph glyph-name="quoteleft" unicode="&#x2018;" horiz-adv-x="290" 
d="M412 772q0 -6 -3 -12l-104 -242q-8 -19 -23 -19h-169q-10 0 -10 9q0 4 3 10l131 242q10 19 22 19h145q8 0 8 -7z" />
    <glyph glyph-name="quoteright" unicode="&#x2019;" horiz-adv-x="290" 
d="M412 770q0 -4 -3 -10l-131 -242q-10 -19 -22 -19h-145q-8 0 -8 7q0 6 3 12l104 242q8 19 23 19h169q10 0 10 -9z" />
    <glyph glyph-name="quotesinglbase" unicode="&#x201a;" horiz-adv-x="290" 
d="M317 180q0 -4 -3 -8l-156 -252q-12 -20 -24 -20h-127q-17 0 -17 14q0 4 1 6l114 252q9 20 25 20h173q14 0 14 -12z" />
    <glyph glyph-name="quotedblleft" unicode="&#x201c;" horiz-adv-x="547" 
d="M669 772q0 -6 -3 -12l-104 -242q-8 -19 -23 -19h-169q-10 0 -10 9q0 4 3 10l131 242q10 19 22 19h145q8 0 8 -7zM412 772q0 -6 -3 -12l-104 -242q-8 -19 -23 -19h-169q-10 0 -10 9q0 4 3 10l131 242q10 19 22 19h145q8 0 8 -7z" />
    <glyph glyph-name="quotedblright" unicode="&#x201d;" horiz-adv-x="547" 
d="M669 770q0 -4 -3 -10l-131 -242q-10 -19 -22 -19h-145q-8 0 -8 7q0 6 3 12l104 242q8 19 23 19h169q10 0 10 -9zM412 770q0 -4 -3 -10l-131 -242q-10 -19 -22 -19h-145q-8 0 -8 7q0 6 3 12l104 242q8 19 23 19h169q10 0 10 -9z" />
    <glyph glyph-name="quotedblbase" unicode="&#x201e;" horiz-adv-x="547" 
d="M585 180q0 -5 -2 -8l-156 -252q-12 -20 -24 -20h-127q-17 0 -17 14q0 4 1 6l114 252q9 20 24 20h173q14 0 14 -12zM305 180q0 -5 -2 -8l-156 -252q-12 -20 -24 -20h-127q-17 0 -17 14q0 4 1 6l114 252q9 20 24 20h173q14 0 14 -12z" />
    <glyph glyph-name="dagger" unicode="&#x2020;" horiz-adv-x="470" 
d="M549 595v-3l-26 -150q-3 -16 -22 -16h-79l-73 -412q-4 -20 -19 -20h-192q-13 0 -13 15v5l73 412h-79q-16 0 -16 13v3l26 150q3 15 22 15h79l27 153q4 19 20 19h191q13 0 13 -15v-4l-27 -153h79q16 0 16 -12z" />
    <glyph glyph-name="daggerdbl" unicode="&#x2021;" horiz-adv-x="470" 
d="M549 595v-3l-26 -150q-3 -16 -22 -16h-79l-12 -68h79q16 0 16 -12v-3l-26 -150q-3 -16 -22 -16h-79l-29 -163q-4 -20 -19 -20h-192q-13 0 -13 15v5l29 163h-79q-16 0 -16 13v3l26 150q3 15 22 15h79l12 68h-79q-16 0 -16 13v3l26 150q3 15 22 15h79l27 153q4 19 20 19
h191q13 0 13 -15v-4l-27 -153h79q16 0 16 -12z" />
    <glyph glyph-name="bullet" unicode="&#x2022;" horiz-adv-x="418" 
d="M443 367q0 -72 -51 -123t-123 -51t-123 51t-51 123t51 123t123 51t123 -51t51 -123z" />
    <glyph glyph-name="ellipsis" unicode="&#x2026;" horiz-adv-x="888" 
d="M878 175v-3l-26 -152q-1 -8 -9 -14t-16 -6h-174q-17 0 -17 17v3l26 152q1 8 9 14t16 6h174q17 0 17 -17zM582 175v-3l-26 -152q-1 -8 -9 -14t-16 -6h-174q-17 0 -17 17v3l26 152q1 8 9 14t16 6h174q17 0 17 -17zM286 175v-3l-26 -152q-1 -8 -9 -14t-16 -6h-174
q-17 0 -17 17v3l26 152q1 8 9 14t16 6h174q17 0 17 -17z" />
    <glyph glyph-name="perthousand" unicode="&#x2030;" horiz-adv-x="1256" 
d="M1266 282q0 -25 -4 -48l-10 -60q-16 -96 -63 -138t-127 -42q-64 0 -97 35.5t-33 98.5q0 25 4 46l10 60q16 97 63 138.5t127 41.5q64 0 97 -34.5t33 -97.5zM906 282q0 -25 -4 -48l-10 -60q-16 -96 -63 -138t-127 -42q-64 0 -97 35.5t-33 98.5q0 25 4 46l10 60
q16 97 63 138.5t127 41.5q64 0 97 -34.5t33 -97.5zM876 734q0 -5 -5 -12l-537 -700q-17 -22 -29 -22h-142q-11 0 -11 11q0 6 4 11l537 700q17 21 31 21h142q10 0 10 -9zM455 616q0 -25 -4 -48l-10 -60q-16 -96 -63 -138t-127 -42q-64 0 -97 35.5t-33 98.5q0 25 4 46l10 60
q16 97 63 138.5t127 41.5q64 0 97 -34.5t33 -97.5zM1135 275q0 17 -4.5 22.5t-14.5 5.5q-15 0 -24 -13.5t-16 -55.5l-10 -60q-4 -24 -4 -42q0 -17 4.5 -22.5t14.5 -5.5q14 0 23.5 14t16.5 56l10 60q4 24 4 41zM775 275q0 17 -4.5 22.5t-14.5 5.5q-15 0 -24 -13.5t-16 -55.5
l-10 -60q-4 -24 -4 -42q0 -17 4.5 -22.5t14.5 -5.5q14 0 23.5 14t16.5 56l10 60q4 24 4 41zM324 609q0 17 -4.5 22.5t-14.5 5.5q-15 0 -24 -13.5t-16 -55.5l-10 -60q-4 -24 -4 -42q0 -17 4.5 -22.5t14.5 -5.5q14 0 23.5 14t16.5 56l10 60q4 24 4 41z" />
    <glyph glyph-name="guilsinglleft" unicode="&#x2039;" horiz-adv-x="436" 
d="M503 523q0 -7 -8 -15l-219 -214l128 -214q4 -8 4 -11q0 -12 -14 -12h-160q-20 0 -26 10l-126 206q-8 13 -8 24q0 16 16 34l183 190q9 10 30 10h190q10 0 10 -8z" />
    <glyph glyph-name="guilsinglright" unicode="&#x203a;" horiz-adv-x="436" 
d="M463 291q0 -16 -16 -34l-183 -190q-9 -10 -30 -10h-190q-10 0 -10 8q0 7 8 15l219 214l-128 214q-4 8 -4 11q0 12 14 12h160q20 0 26 -10l126 -206q8 -13 8 -24z" />
    <glyph glyph-name="fraction" unicode="&#x2044;" horiz-adv-x="262" 
d="M559 734q0 -5 -5 -12l-542 -707q-12 -15 -24 -15h-142q-11 0 -11 11q0 6 4 11l542 706q11 15 26 15h142q10 0 10 -9z" />
    <glyph glyph-name="n.superior" unicode="&#x207f;" horiz-adv-x="375" 
d="M420 363q-4 -14 -16 -14h-98q-15 0 -12 14l32 183q2 9 2 15q0 16 -23 16q-15 0 -29 -7l-36 -207q-3 -14 -16 -14h-98q-14 0 -11 14l52 300q3 13 16 13h89q12 0 10 -13l-2 -11q40 29 85 29q92 0 92 -86q0 -23 -4 -43z" />
    <glyph glyph-name="franc" unicode="&#x20a3;" horiz-adv-x="590" 
d="M59 225h30l52 294q10 59 34.5 103t53.5 68.5t69 39t75 19t78 4.5q111 0 199 -11q20 -1 17 -20l-27 -151q-4 -20 -23 -20h-201q-19 0 -27.5 -7t-11.5 -25l-10 -54h234q8 0 13 -6t4 -14l-25 -141q-4 -20 -23 -20h-234l-11 -59h70q21 0 17 -20l-15 -81q-4 -20 -23 -20h-70
l-15 -84q-4 -20 -23 -20h-195q-22 0 -18 20l15 84h-30q-21 0 -17 20l15 81q4 20 23 20z" />
    <glyph glyph-name="lira" unicode="&#x20a4;" 
d="M609 20q-4 -20 -23 -20h-473q-8 0 -13 6t-4 14l19 110q3 14 15 26q12 11 26 34t17 41l3 13h-48q-8 0 -13 6t-4 14l10 56q4 20 23 20h48l7 39h-48q-8 0 -13 6t-3 14l10 56q4 20 23 20h48l2 9q26 149 105 209t225 60q87 0 166 -17q13 -3 16 -7.5t1 -14.5l-27 -158
q-4 -18 -21 -18h-3q-143 11 -168 11q-36 0 -48 -11t-19 -50l-3 -13h136q8 0 13 -6t4 -14l-10 -56q-4 -20 -24 -20h-136l-7 -39h136q8 0 13 -6t4 -14l-10 -56q-4 -20 -23 -20h-136l-3 -13q-5 -28 -21 -50h239q8 0 13 -6t4 -14z" />
    <glyph glyph-name="peseta" unicode="&#x20a7;" horiz-adv-x="1677" 
d="M757 536q0 -20 -3 -44l-1 -7q-9 -64 -37.5 -112t-64.5 -76t-84.5 -45t-90.5 -22.5t-89 -5.5q-4 0 -60 2l-36 -206q-4 -20 -24 -20h-192q-18 0 -18 13v3l113 640q8 45 25 61.5t60 23.5q77 12 221 12q54 0 101.5 -11.5t89 -35.5t66 -67.5t24.5 -102.5zM521 504q0 52 -75 52
h-61l-24 -135h61q40 0 66.5 16.5t30.5 47.5l1 7q1 4 1 12zM1212 573v-4l-21 -121q-4 -22 -25 -22h-72l-43 -245q-2 -12 -2 -15q0 -14 18 -14h48q17 0 17 -17v-4l-19 -109q-3 -18 -25 -22q-60 -10 -108 -10q-29 0 -54.5 6.5t-49.5 22t-38.5 45.5t-14.5 71q0 20 5 50l42 241
l-55 10q-18 4 -18 19v3l19 111q4 21 26 21h57l14 82q3 17 26 21l186 31h3q15 0 15 -17v-4l-20 -113h72q17 0 17 -17zM1721 555v-3l-23 -130q-4 -21 -21 -21h-2h-1q-104 18 -175 18q-23 0 -23 -14q0 -7 10 -12l101 -54q43 -23 63.5 -60.5t20.5 -76.5q0 -59 -25 -102t-68 -66
t-91 -33.5t-103 -10.5q-106 0 -182 26q-15 5 -15 18v4l22 125q4 23 25 23h3h2q133 -19 170 -19q39 0 39 23q0 9 -19 20l-104 58q-33 18 -53.5 53t-20.5 80q0 199 267 199q92 0 186 -27q17 -6 17 -18z" />
    <glyph glyph-name="Euro" unicode="&#x20ac;" 
d="M710 717v-2q-1 -2 -1 -3l-26 -145q-3 -18 -19 -18h-4q-81 11 -108 11q-43 0 -70 -15t-39 -60h157q14 0 14 -9q0 -5 -3 -11l-20 -47q-8 -20 -23 -20h-149l-9 -51h136q15 0 15 -10q0 -4 -3 -10l-20 -47q-9 -20 -22 -20h-114v-5v-10q0 -38 23 -50t65 -12q16 0 35.5 2t41.5 5
t30 4h4q14 0 14 -13l-1 -2v-3l-26 -145q-1 -10 -5.5 -13.5t-18.5 -8.5q-59 -19 -135 -19q-129 0 -199 70t-70 185v9v6h-58q-15 0 -15 16v4l9 47q4 20 20 20h55l9 51h-53q-15 0 -15 16v4l8 47q4 20 21 20h59q31 141 115.5 204.5t231.5 63.5q89 0 144 -19q18 -10 19 -17z" />
    <glyph glyph-name="afii61289" unicode="&#x2113;" horiz-adv-x="618" 
d="M581 61q4 -18 -13 -26q-112 -54 -210 -54q-87 0 -131 44t-44 126q0 29 4 54l4 27l-63 -33q-13 -6 -18 4l-22 53q-5 12 7 18l114 59l46 258q37 211 251 211q98 0 142 -36t44 -96q0 -89 -62.5 -167.5t-193.5 -156.5l-21 -115q-3 -17 -3 -29q0 -49 51 -49q24 0 71 15
q7 2 9.5 3t6 0.5t4.5 -3.5t3 -8zM454 453q144 101 144 211q0 44 -41 44q-37 0 -52 -28t-26 -89z" />
    <glyph glyph-name="trademark" unicode="&#x2122;" horiz-adv-x="863" 
d="M927 352q0 -10 -11 -10h-109q-11 0 -11 10v234v3q0 30 -5.5 36.5t-33.5 6.5v-280q0 -10 -11 -10h-109q-11 0 -11 10v280q-10 0 -40 -2v-278q0 -10 -11 -10h-108q-12 0 -12 10v342q0 25 8 34.5t30 11.5q98 8 198 8q54 0 88 -3t65 -12.5t47.5 -27.5t26 -47t9.5 -72v-234z
M427 648q0 -11 -11 -11h-70v-285q0 -10 -10 -10h-114q-11 0 -11 10v285h-71q-11 0 -11 11v84q0 11 11 11h276q11 0 11 -11v-84z" />
    <glyph glyph-name="Omega" unicode="&#x2126;" horiz-adv-x="733" 
d="M753 395q-16 -94 -57.5 -146t-119.5 -83l-1 -6h105q15 0 13 -14l-23 -132q-2 -14 -16 -14h-273q-16 0 -13 14l41 235q2 11 14 15q32 8 50 40.5t29 94.5l9 50q4 30 4 39q0 35 -16 50.5t-50 15.5q-41 0 -64 -24t-33 -81l-9 -50q-8 -43 -8 -69q0 -56 38 -66q11 -3 8 -15
l-41 -235q-3 -14 -17 -14h-273q-16 0 -13 14l23 132q2 14 18 14h107l1 6q-98 44 -98 183q0 37 8 85l9 48q26 149 117.5 212.5t249.5 63.5q297 0 297 -237q0 -39 -7 -78z" />
    <glyph glyph-name="estimated" unicode="&#x212e;" horiz-adv-x="606" 
d="M647 282h-429v-193q66 -63 152 -63q76 0 123 33t87 94l31 -19q-44 -68 -99 -104.5t-142 -36.5q-119 0 -195 84.5t-76 205.5q0 123 75 206.5t200 83.5q124 0 198.5 -84.5t74.5 -206.5zM527 315v163q-68 62 -153 62q-96 0 -156 -62v-163h309z" />
    <glyph glyph-name="onethird" unicode="&#x2153;" horiz-adv-x="836" 
d="M821 734q0 -5 -5 -12l-542 -707q-12 -15 -24 -15h-142q-11 0 -11 11q0 6 4 11l542 706q11 15 26 15h142q10 0 10 -9zM371 734v-2l-68 -387q-2 -11 -13 -11h-117q-9 0 -9 9v2l47 265l-60 -22q-6 -2 -7 -2q-4 0 -4 5v2l17 98q1 8 10 11l95 38q7 3 13 3h87q9 0 9 -9z
M587 110h1q67 -5 114 -5q38 0 38 33q0 17 -22 17h-92q-16 0 -14 16l13 69q2 16 18 16h85q38 0 38 29q0 19 -29 19q-42 0 -112 -5h-1q-15 0 -12 15l10 59q1 9 4 12t13 7q50 22 128 22q136 0 136 -94q0 -12 -3 -26q-8 -53 -61 -86q32 -21 32 -66q0 -73 -48.5 -110t-129.5 -37
q-83 0 -127 24q-9 5 -8 13l11 63q3 15 18 15z" />
    <glyph glyph-name="twothirds" unicode="&#x2154;" horiz-adv-x="836" 
d="M821 734q0 -5 -5 -12l-542 -707q-12 -15 -24 -15h-142q-11 0 -11 11q0 6 4 11l542 706q11 15 26 15h142q10 0 10 -9zM587 110h1q67 -5 114 -5q38 0 38 33q0 17 -22 17h-92q-16 0 -14 16l13 69q2 16 18 16h85q38 0 38 29q0 19 -29 19q-42 0 -112 -5h-1q-15 0 -12 15l10 59
q1 9 4 12t13 7q50 22 128 22q136 0 136 -94q0 -12 -3 -26q-8 -53 -61 -86q32 -21 32 -66q0 -73 -48.5 -110t-129.5 -37q-83 0 -127 24q-9 5 -8 13l11 63q3 15 18 15zM345 662q0 -90 -117 -151q-70 -38 -86 -61h146q16 0 13 -15l-15 -86q-3 -15 -19 -15h-259q-16 0 -13 15
l10 59q20 105 131 171q13 8 26.5 16.5t21.5 13t12 7.5q11 7 11 17t-37 10t-103 -6h-1q-7 0 -10.5 5t-1.5 11l11 62q1 9 16 15q65 23 131 23q133 0 133 -91z" />
    <glyph glyph-name="oneeighth" unicode="&#x215b;" horiz-adv-x="836" 
d="M821 734q0 -5 -5 -12l-542 -707q-12 -15 -24 -15h-142q-11 0 -11 11q0 6 4 11l542 706q11 15 26 15h142q10 0 10 -9zM371 734v-2l-68 -387q-2 -11 -13 -11h-117q-9 0 -9 9v2l47 265l-60 -22q-6 -2 -7 -2q-4 0 -4 5v2l17 98q1 8 10 11l95 38q7 3 13 3h87q9 0 9 -9zM691 -6
q-65 0 -100.5 30t-35.5 81q0 68 60 106q-27 25 -27 67q0 136 177 136h7q68 0 101.5 -25.5t33.5 -67.5q0 -36 -17 -67.5t-38 -42.5q28 -26 28 -75q0 -61 -44.5 -101.5t-137.5 -40.5h-7zM737 252h7q14 0 25.5 10t11.5 32q0 26 -25 26h-7q-17 0 -27 -12.5t-10 -31.5
q0 -24 25 -24zM708 88h7q16 0 27 13t11 40q0 26 -24 26h-7q-19 0 -29.5 -15.5t-10.5 -37.5q0 -26 26 -26z" />
    <glyph glyph-name="threeeighths" unicode="&#x215c;" horiz-adv-x="836" 
d="M821 734q0 -5 -5 -12l-542 -707q-12 -15 -24 -15h-142q-11 0 -11 11q0 6 4 11l542 706q11 15 26 15h142q10 0 10 -9zM691 -6q-65 0 -100.5 30t-35.5 81q0 68 60 106q-27 25 -27 67q0 136 177 136h7q68 0 101.5 -25.5t33.5 -67.5q0 -36 -17 -67.5t-38 -42.5q28 -26 28 -75
q0 -61 -44.5 -101.5t-137.5 -40.5h-7zM737 252h7q14 0 25.5 10t11.5 32q0 26 -25 26h-7q-17 0 -27 -12.5t-10 -31.5q0 -24 25 -24zM708 88h7q16 0 27 13t11 40q0 26 -24 26h-7q-19 0 -29.5 -15.5t-10.5 -37.5q0 -26 26 -26zM49 449h1q67 -5 114 -5q38 0 38 33q0 17 -22 17
h-92q-16 0 -14 16l13 69q2 16 18 16h85q38 0 38 29q0 19 -29 19q-42 0 -112 -5h-1q-15 0 -12 15l10 59q1 9 4 12t13 7q50 22 128 22q136 0 136 -94q0 -13 -3 -26q-8 -53 -61 -86q32 -21 32 -66q0 -73 -48.5 -110t-129.5 -37q-83 0 -127 24q-9 5 -8 13l11 63q3 15 18 15z" />
    <glyph glyph-name="fiveeighths" unicode="&#x215d;" horiz-adv-x="836" 
d="M821 734q0 -5 -5 -12l-542 -707q-12 -15 -24 -15h-142q-11 0 -11 11q0 6 4 11l542 706q11 15 26 15h142q10 0 10 -9zM691 -6q-65 0 -100.5 30t-35.5 81q0 68 60 106q-27 25 -27 67q0 136 177 136h7q68 0 101.5 -25.5t33.5 -67.5q0 -36 -17 -67.5t-38 -42.5q28 -26 28 -75
q0 -61 -44.5 -101.5t-137.5 -40.5h-7zM737 252h7q14 0 25.5 10t11.5 32q0 26 -25 26h-7q-17 0 -27 -12.5t-10 -31.5q0 -24 25 -24zM708 88h7q16 0 27 13t11 40q0 26 -24 26h-7q-19 0 -29.5 -15.5t-10.5 -37.5q0 -26 26 -26zM192 640l-12 -45h29q126 0 126 -89
q0 -85 -52 -131.5t-140 -46.5q-62 0 -110 21q-11 4 -10 11l12 66q2 11 13 11h1q45 -6 83 -6q43 0 55.5 9.5t12.5 37.5q0 20 -35 20h-107q-11 0 -9 10v1l57 223q2 11 13 11h241q11 0 9 -11l-15 -81q-2 -11 -13 -11h-149z" />
    <glyph glyph-name="seveneighths" unicode="&#x215e;" horiz-adv-x="836" 
d="M821 734q0 -5 -5 -12l-542 -707q-12 -15 -24 -15h-142q-11 0 -11 11q0 6 4 11l542 706q11 15 26 15h142q10 0 10 -9zM691 -6q-65 0 -100.5 30t-35.5 81q0 68 60 106q-27 25 -27 67q0 136 177 136h7q68 0 101.5 -25.5t33.5 -67.5q0 -36 -17 -67.5t-38 -42.5q28 -26 28 -75
q0 -61 -44.5 -101.5t-137.5 -40.5h-7zM737 252h7q14 0 25.5 10t11.5 32q0 26 -25 26h-7q-17 0 -27 -12.5t-10 -31.5q0 -24 25 -24zM708 88h7q16 0 27 13t11 40q0 26 -24 26h-7q-19 0 -29.5 -15.5t-10.5 -37.5q0 -26 26 -26zM438 671q-2 -10 -12 -25l-201 -301
q-7 -11 -13 -11h-117q-7 0 -7 6q1 1 1 2t0.5 1.5t0.5 1.5l201 295h-138q-11 0 -9 11l15 81q2 11 13 11h268q11 0 9 -11z" />
    <glyph glyph-name="partialdiff" unicode="&#x2202;" horiz-adv-x="668" 
d="M703 435q0 -99 -20 -190q-31 -134 -108 -197t-210 -63q-127 0 -193.5 59t-66.5 170q0 44 8 92q23 129 101.5 182.5t206.5 53.5q26 0 66 -14q-5 23 -9 35q-34 108 -178 108q-48 0 -93 -8q-8 -1 -11.5 2.5t-2.5 9.5l10 96q0 3 1 6l1.5 4.5t2.5 3t2.5 2.5t3 1.5t3 1t3.5 0.5
l4 1q57 12 121 12q173 0 265.5 -99t92.5 -269zM463 318q0 54 -49 54q-31 0 -48 -24t-25 -78q-5 -40 -5 -61q0 -30 11.5 -42.5t37.5 -12.5q30 0 47 24t25 78q6 36 6 62z" />
    <glyph glyph-name="Delta" unicode="&#x2206;" horiz-adv-x="716" 
d="M35 0q-20 0 -12 20l226 604q27 73 85 101t156 28q108 0 152 -33t46 -138l11 -562q0 -20 -18 -20h-646zM436 184l27 365q2 13 -6 13q-7 0 -12 -13l-101 -365h92z" />
    <glyph glyph-name="product" unicode="&#x220f;" horiz-adv-x="801" 
d="M836 578q0 -30 -27 -30h-40v-592q0 -30 -24 -30h-185q-28 0 -28 31v591h-123v-591q0 -31 -28 -31h-185q-24 0 -24 30v592h-40q-27 0 -27 30v139q0 26 22 26h687q22 0 22 -26v-139z" />
    <glyph glyph-name="summation" unicode="&#x2211;" horiz-adv-x="601" 
d="M636 -50q0 -14 -4.5 -18.5t-17.5 -4.5h-491q-18 0 -18 23v131q0 22 14 41l163 201q10 12 0 24l-163 201q-14 19 -14 41v131q0 23 18 23h491q13 0 17.5 -4.5t4.5 -18.5v-133q0 -21 -22 -21h-238q-4 0 -4.5 -4.5t2.5 -6.5l126 -161q11 -13 11 -32v-54q0 -19 -11 -32
l-126 -161q-3 -2 -2.5 -6.5t4.5 -4.5h238q22 0 22 -21v-133z" />
    <glyph glyph-name="minus" unicode="&#x2212;" horiz-adv-x="640" 
d="M635 326q0 -16 -20 -16h-445q-20 0 -20 16v130q0 16 20 16h445q20 0 20 -16v-130z" />
    <glyph glyph-name="uni2215" unicode="&#x2215;" horiz-adv-x="262" 
d="M559 734q0 -5 -5 -12l-542 -707q-12 -15 -24 -15h-142q-11 0 -11 11q0 6 4 11l542 706q11 15 26 15h142q10 0 10 -9z" />
    <glyph glyph-name="uni2219" unicode="&#x2219;" horiz-adv-x="296" 
d="M335 452v-3l-27 -152q-4 -20 -24 -20h-174q-18 0 -18 17v3l27 152q1 8 9 14t16 6h174q17 0 17 -17z" />
    <glyph glyph-name="radical" unicode="&#x221a;" horiz-adv-x="804" 
d="M916 848l-410 -891q-7 -15 -14.5 -19t-20.5 -4h-192q-12 0 -17.5 5t-8.5 19l-39 365q-2 23 -19 23h-76q-23 0 -20 20l23 128q4 25 26 25h205q24 0 27 -25l30 -337q1 -6 3.5 -6t4.5 6l308 693q10 21 28 21h153q20 0 9 -23z" />
    <glyph glyph-name="infinity" unicode="&#x221e;" horiz-adv-x="599" 
d="M649 368q0 -250 -172 -250h-6q-58 0 -103 40q-42 -42 -98 -42h-7q-173 0 -173 251v24q0 250 173 250h7q59 0 101 -39q36 40 100 40h6q172 0 172 -251v-23zM302 387q6 60 11 91q-20 25 -44 25h-5q-21 0 -27 -30.5t-6 -81.5v-24q0 -24 1 -39.5t3.5 -34.5t10 -28.5
t18.5 -9.5h5q13 0 19 27t14 105zM509 368v23q0 56 -5.5 84t-26.5 28h-4q-13 -1 -19.5 -29.5t-13.5 -95.5q-6 -58 -14 -101q19 -22 46 -22h4q21 0 27 29.5t6 83.5z" />
    <glyph glyph-name="integral" unicode="&#x222b;" horiz-adv-x="514" 
d="M549 668q0 -14 -15 -14q-12 0 -28.5 0.5t-20.5 0.5q-27 0 -34 -7.5t-7 -35.5v-638q0 -94 -44.5 -136.5t-135.5 -42.5q-79 0 -145 14q-14 3 -14 18v95q0 14 15 14q12 0 28.5 -0.5t20.5 -0.5q27 0 34 7.5t7 34.5v639q0 94 44.5 136.5t135.5 42.5q79 0 145 -14q14 -3 14 -18
v-95z" />
    <glyph glyph-name="approxequal" unicode="&#x2248;" horiz-adv-x="571" 
d="M576 559q0 -74 -32.5 -104t-101.5 -30q-44 0 -84 20l-39 20q-24 12 -37 12q-14 0 -14 -13v-16q0 -17 -18 -17h-97q-18 0 -18 17v16q0 72 33 103t102 31q45 0 83 -19l39 -20q26 -13 38 -13q13 0 13 14v16q0 17 18 17h97q18 0 18 -17v-17zM576 329q0 -74 -32.5 -104
t-101.5 -30q-44 0 -84 20l-39 20q-24 12 -37 12q-14 0 -14 -13v-16q0 -17 -18 -17h-97q-18 0 -18 17v16q0 72 33 103t102 31q45 0 83 -19l39 -20q26 -13 38 -13q13 0 13 14v16q0 17 18 17h97q18 0 18 -17v-17z" />
    <glyph glyph-name="notequal" unicode="&#x2260;" 
d="M572 743q28 0 21 -21l-31 -108h66q20 0 20 -16v-130q0 -16 -20 -16h-112l-35 -122h147q20 0 20 -16v-130q0 -16 -20 -16h-194l-41 -146q-6 -22 -21 -22h-150q-11 0 -18.5 5t-4.5 17l41 146h-57q-20 0 -20 16v130q0 16 20 16h104l35 122h-139q-20 0 -20 16v130q0 16 20 16
h185l31 108q6 21 23 21h150z" />
    <glyph glyph-name="lessequal" unicode="&#x2264;" horiz-adv-x="564" 
d="M650 145q0 -11 -13 -11h-197q-17 0 -28 10l-236 218q-15 15 -15 29t15 29l236 218q11 10 28 10h197q13 0 13 -11q0 -6 -7 -12l-256 -234l256 -234q7 -6 7 -12zM648 -14q0 -16 -20 -16h-445q-20 0 -20 16v101q0 16 20 16h445q20 0 20 -16v-101z" />
    <glyph glyph-name="greaterequal" unicode="&#x2265;" 
d="M649 391q0 -14 -15 -29l-236 -218q-11 -10 -28 -10h-197q-13 0 -13 11q0 6 7 12l256 234l-256 234q-7 6 -7 12q0 11 13 11h197q17 0 28 -10l236 -218q15 -15 15 -29zM648 -14q0 -16 -20 -16h-445q-20 0 -20 16v101q0 16 20 16h445q20 0 20 -16v-101z" />
    <glyph glyph-name="lozenge" unicode="&#x25ca;" horiz-adv-x="645" 
d="M669 355l-265 -322q-5 -7 -14 -7t-15 7l-261 322q-10 11 0 23l262 327q6 7 15.5 7.5t14.5 -6.5l264 -327q4 -5 4 -12t-5 -12zM470 367l-80 101l-80 -101l80 -97z" />
    <glyph glyph-name="j.dotless" unicode="&#xe008;" horiz-adv-x="329" 
d="M180 590h179q22 0 18 -21l-102 -580q-19 -109 -74.5 -154t-140.5 -45q-44 0 -105 11q-21 3 -17 22l19 108q3 21 25 21h42q20 0 27 37l102 580q3 21 27 21z" />
    <glyph glyph-name="uni2014.alt" unicode="&#xe009;" horiz-adv-x="662" 
d="M660 244q-4 -20 -24 -20h-532q-8 0 -13 6t-3 14l18 106q4 20 24 20h532q8 0 13 -6t3 -14z" />
    <glyph glyph-name="zero.fitted" unicode="&#xf639;" 
d="M708 525q0 -45 -9 -99l-19 -109q-57 -327 -345 -327q-238 0 -238 228q0 45 9 99l19 109q57 327 345 327q238 0 238 -228zM470 501q0 30 -9 40.5t-27 10.5q-26 0 -42.5 -24.5t-29.5 -101.5l-19 -109q-8 -43 -8 -75q0 -30 9 -40.5t27 -10.5q26 0 42.5 24.5t29.5 101.5
l19 109q8 43 8 75z" />
    <glyph glyph-name="two.fitted" unicode="&#xf63a;" 
d="M715 588q0 -12 -4 -40q-13 -76 -63 -126t-149 -103q-72 -38 -112 -64.5t-58 -55.5h287q18 0 18 -17v-3l-28 -159q-1 -8 -9 -14t-16 -6h-486q-17 0 -17 17v3l19 110q18 106 78.5 174t157.5 127q20 12 41 24.5t32.5 19t23.5 14t18 11.5t11.5 8.5t7.5 8.5t4 8.5t3 10.5
q0 2 0.5 4.5t0.5 3.5q0 12 -16 17t-63 5q-33 0 -98.5 -5t-96.5 -5h-1q-15 0 -15 16v3v1l20 115q2 12 23 20q119 42 245 42t184 -45t58 -120z" />
    <glyph glyph-name="three.fitted" unicode="&#xf63b;" 
d="M711 587q0 -75 -30 -123.5t-97 -86.5q67 -47 67 -130q0 -71 -26 -122.5t-72 -80t-101.5 -41.5t-122.5 -13q-62 0 -130.5 13t-98.5 28q-17 10 -17 17v3l20 116q4 20 24 20h1q25 0 102 -5t112 -5q83 0 83 69q0 43 -50 43h-173q-7 0 -12 5t-5 12v3l23 129q4 20 24 20h161
q35 0 58 17.5t23 51.5q0 39 -63 39q-35 0 -110.5 -5t-100.5 -5h-1q-16 0 -16 16v3v1l20 116q2 9 25 20q36 15 105.5 28t130.5 13q247 0 247 -166z" />
    <glyph glyph-name="four.fitted" unicode="&#xf63c;" 
d="M688 727v-4l-71 -404h50q17 0 17 -17v-3l-24 -137q-4 -20 -24 -20h-50l-21 -122q-4 -20 -24 -20h-195q-16 0 -16 16v4l21 122h-268q-16 0 -16 16v4l22 130q3 14 15 28l406 418q5 5 14 5h9h139q16 0 16 -16zM422 481l-157 -162h128z" />
    <glyph glyph-name="five.fitted" unicode="&#xf63d;" 
d="M711 724v-1l-25 -147q-4 -20 -24 -20h-272l-21 -81h45q127 0 181.5 -51.5t54.5 -128.5q0 -305 -348 -305q-113 0 -201 37q-18 7 -18 17v3l21 120q4 20 22 20h3q114 -10 160 -10q59 0 88 15t29 65q0 21 -16 31t-56 10h-184q-19 0 -19 19q0 4 1 6l100 400q5 20 24 20h439
q16 0 16 -16v-3z" />
    <glyph glyph-name="six.fitted" unicode="&#xf63e;" 
d="M705 703q0 -1 -0.5 -3.5t-0.5 -3.5l-22 -124q-3 -20 -22 -20h-5q-107 14 -184 14q-50 0 -68 -15t-29 -69l-1 -5q45 7 75 7q102 0 160.5 -42t58.5 -132q0 -155 -85 -237.5t-244 -82.5q-117 0 -178 61.5t-61 153.5q0 26 4 49l40 228q47 271 328 271q119 0 216 -31
q18 -6 18 -19zM435 288q0 42 -39 42q-19 0 -49 -3l-13 -73q-4 -23 -4 -42q0 -49 37 -49q68 0 68 125z" />
    <glyph glyph-name="seven.fitted" unicode="&#xf63f;" horiz-adv-x="620" 
d="M689 727v-4l-19 -111q-3 -17 -20 -44l-345 -548q-12 -20 -24 -20h-213q-14 0 -14 7q0 5 5 13l344 536h-230q-17 0 -17 17v3l25 147q1 8 9 14t16 6h467q16 0 16 -16z" />
    <glyph glyph-name="eight.fitted" unicode="&#xf640;" 
d="M723 573q0 -123 -100 -189q51 -48 51 -125q0 -68 -27 -121t-73 -84.5t-103.5 -47.5t-123.5 -16h-12q-123 0 -187.5 57t-64.5 135q0 125 110 202q-48 45 -48 117q0 252 320 252h12q125 0 185.5 -52t60.5 -128zM494 533q0 49 -45 49h-12q-33 0 -50.5 -21.5t-17.5 -57.5
q0 -44 46 -44h12q67 0 67 74zM445 257q0 46 -46 46h-12q-35 0 -53.5 -28.5t-18.5 -66.5q0 -22 12.5 -35t34.5 -13h12q36 0 53.5 29.5t17.5 67.5z" />
    <glyph glyph-name="nine.fitted" unicode="&#xf641;" 
d="M700 538q0 -26 -4 -49l-40 -228q-47 -271 -328 -271q-119 0 -216 31q-18 6 -18 19q0 1 0.5 3.5t0.5 3.5l22 124q3 20 22 20h5q107 -14 184 -14q50 0 68 15t29 69l1 5q-45 -7 -75 -7q-102 0 -160.5 42t-58.5 132q0 155 85 237.5t244 82.5q117 0 178 -61.5t61 -153.5z
M469 531q0 49 -37 49q-68 0 -68 -125q0 -42 39 -42q19 0 49 3l13 73q4 23 4 42z" />
    <glyph glyph-name="zero.taboldstyle" unicode="&#xf643;" 
d="M676 307q-30 -168 -112 -242.5t-231 -74.5q-113 0 -176 61t-63 174q0 36 8 82l1 9q31 172 113.5 245.5t229.5 73.5q111 0 175 -61.5t64 -175.5q0 -36 -8 -82zM439 307l1 9q7 39 7 67q0 30 -9 40.5t-27 10.5q-25 0 -41.5 -24t-29.5 -94l-1 -9q-7 -39 -7 -67q0 -29 9 -39
t27 -10q26 0 42.5 23t28.5 93z" />
    <glyph glyph-name="one.taboldstyle" unicode="&#xf644;" 
d="M141 199h121l34 193l-127 -39q-9 -3 -13 -3q-10 0 -8 12l30 169q3 15 18 20l193 69q13 5 23 5h140q8 0 13 -6t3 -14l-71 -406h121q8 0 13 -6t4 -14l-28 -159q-4 -20 -24 -20h-477q-8 0 -13.5 6t-4.5 14l28 159q1 8 9 14t16 6z" />
    <glyph glyph-name="two.taboldstyle" unicode="&#xf645;" 
d="M572 0h-486q-21 0 -18 20l19 110q22 121 72 176.5t180 87.5q95 23 97 24q10 5 10 16q0 14 -81 14q-68 0 -194 -10h-1q-7 0 -10 1t-5 5.5t-1 13.5l21 115q1 12 23 20q117 42 244 42q119 0 181 -41t62 -119q0 -88 -51.5 -145.5t-145.5 -77.5q-82 -17 -113.5 -26.5
t-48.5 -26.5h281q8 0 13 -6t4 -14l-28 -159q-4 -20 -24 -20z" />
    <glyph glyph-name="three.taboldstyle" unicode="&#xf646;" 
d="M682 469q0 -75 -30 -123.5t-97 -86.5q67 -47 67 -130q0 -71 -26 -122.5t-72 -80t-101.5 -41.5t-122.5 -13q-62 0 -130.5 13t-98.5 28q-17 10 -17 17v3l20 116q4 20 24 20h1q25 0 102 -5t112 -5q83 0 83 69q0 43 -50 43h-173q-7 0 -12 5t-5 12v3l23 129q4 20 24 20h161
q35 0 58 17.5t23 51.5q0 39 -63 39q-35 0 -110.5 -5t-100.5 -5h-1q-16 0 -16 16v3v1l20 116q2 9 25 20q36 15 105.5 28t130.5 13q247 0 247 -166z" />
    <glyph glyph-name="four.taboldstyle" unicode="&#xf647;" 
d="M669 619v-4l-71 -404h50q17 0 17 -17v-3l-24 -137q-4 -20 -24 -20h-50l-21 -122q-4 -20 -24 -20h-195q-16 0 -16 16v4l21 122h-268q-16 0 -16 16v4l22 130q3 14 15 28l406 418q5 5 14 5h9h139q16 0 16 -16zM403 373l-157 -162h128z" />
    <glyph glyph-name="five.taboldstyle" unicode="&#xf648;" 
d="M688 606v-1l-25 -147q-4 -20 -24 -20h-272l-21 -81h45q127 0 181.5 -51.5t54.5 -128.5q0 -305 -348 -305q-113 0 -201 37q-18 7 -18 17v3l21 120q4 20 22 20h3q114 -10 160 -10q59 0 88 15t29 65q0 21 -16 31t-56 10h-184q-19 0 -19 19q0 4 1 6l100 400q5 20 24 20h439
q16 0 16 -16v-3z" />
    <glyph glyph-name="six.taboldstyle" unicode="&#xf649;" 
d="M705 703q0 -1 -0.5 -3.5t-0.5 -3.5l-22 -124q-3 -20 -22 -20h-5q-107 14 -184 14q-50 0 -68 -15t-29 -69l-1 -5q45 7 75 7q102 0 160.5 -42t58.5 -132q0 -155 -85 -237.5t-244 -82.5q-117 0 -178 61.5t-61 153.5q0 26 4 49l40 228q47 271 328 271q119 0 216 -31
q18 -6 18 -19zM435 288q0 42 -39 42q-19 0 -49 -3l-13 -73q-4 -23 -4 -42q0 -49 37 -49q68 0 68 125z" />
    <glyph glyph-name="seven.taboldstyle" unicode="&#xf64a;" 
d="M686 609v-4l-19 -111q-3 -17 -20 -44l-345 -548q-12 -20 -24 -20h-213q-14 0 -14 7q0 5 5 13l344 536h-230q-17 0 -17 17v3l25 147q1 8 9 14t16 6h467q16 0 16 -16z" />
    <glyph glyph-name="eight.taboldstyle" unicode="&#xf64b;" 
d="M716 573q0 -123 -100 -189q51 -48 51 -125q0 -68 -27 -121t-73 -84.5t-103.5 -47.5t-123.5 -16h-12q-123 0 -187.5 57t-64.5 135q0 125 110 202q-48 45 -48 117q0 252 320 252h12q125 0 185.5 -52t60.5 -128zM487 533q0 49 -45 49h-12q-33 0 -50.5 -21.5t-17.5 -57.5
q0 -44 46 -44h12q67 0 67 74zM438 257q0 46 -46 46h-12q-35 0 -53.5 -28.5t-18.5 -66.5q0 -22 12.5 -35t34.5 -13h12q36 0 53.5 29.5t17.5 67.5z" />
    <glyph glyph-name="nine.taboldstyle" unicode="&#xf64c;" 
d="M677 420q0 -26 -4 -49l-40 -228q-47 -271 -328 -271q-119 0 -216 31q-18 6 -18 19q0 1 0.5 3.5t0.5 3.5l22 124q3 20 22 20h5q107 -14 184 -14q50 0 68 15t29 69l1 5q-45 -7 -75 -7q-102 0 -160.5 42t-58.5 132q0 155 85 237.5t244 82.5q117 0 178 -61.5t61 -153.5z
M446 413q0 49 -37 49q-68 0 -68 -125q0 -42 39 -42q19 0 49 3l13 73q4 23 4 42z" />
    <glyph glyph-name="zero.denominator" unicode="&#xf655;" horiz-adv-x="369" 
d="M431 174q-17 -97 -63.5 -138.5t-126.5 -41.5q-64 0 -97 35t-33 97q0 25 4 48l11 60q16 92 61.5 136t127.5 44q65 0 98.5 -33.5t33.5 -96.5q0 -20 -5 -50zM301 174l11 60q4 24 4 41q0 29 -20 29q-14 0 -22.5 -14t-16.5 -56l-11 -60q-5 -30 -5 -41q0 -28 20 -28
q14 0 23 13.5t17 55.5z" />
    <glyph glyph-name="one.denominator" unicode="&#xf656;" horiz-adv-x="277" 
d="M303 12q-4 -11 -13 -11h-117q-5 0 -7.5 3.5t-1.5 7.5l46 265l-60 -22q-6 -2 -7 -2q-4 0 -4 7l18 98q1 8 9 11l96 38q8 3 13 3h87q11 0 9 -11z" />
    <glyph glyph-name="two.denominator" unicode="&#xf657;" horiz-adv-x="367" 
d="M446 328q0 -90 -117 -151q-70 -38 -86 -61h146q15 0 13 -15l-15 -86q-3 -15 -19 -15h-259q-16 0 -13 15l10 59q20 105 131 171q13 8 26.5 16.5t21.5 13t12 7.5q11 7 11 17t-37 10t-103 -6h-1q-7 0 -10.5 5t-1.5 11l11 62q1 9 16 15q65 23 131 23q133 0 133 -91z" />
    <glyph glyph-name="three.denominator" unicode="&#xf658;" horiz-adv-x="366" 
d="M129 115h1q68 -5 114 -5q38 0 38 33q0 17 -22 17h-92q-16 0 -14 16l13 69q2 16 18 16h85q38 0 38 29q0 19 -29 19q-42 0 -112 -5h-1q-15 0 -12 15l10 59q1 9 4 12t13 7q50 22 128 22q136 0 136 -94q0 -13 -3 -26q-8 -53 -61 -86q32 -21 32 -66q0 -73 -48.5 -110
t-129.5 -37q-83 0 -127 24q-9 5 -8 13l11 63q3 15 18 15z" />
    <glyph glyph-name="four.denominator" unicode="&#xf659;" horiz-adv-x="369" 
d="M422 89q-2 -11 -13 -11h-28l-12 -67q-2 -11 -13 -11h-107q-11 0 -9 11l12 67h-148q-11 0 -9 11l13 72q1 7 8 15l224 230q3 3 8 3h5h76q11 0 9 -11l-40 -223h28q12 0 9 -11zM275 175l16 90l-86 -90h70z" />
    <glyph glyph-name="five.denominator" unicode="&#xf65a;" horiz-adv-x="369" 
d="M272 306l-12 -45h29q126 0 126 -89q0 -85 -52 -131.5t-140 -46.5q-62 0 -110 21q-11 4 -10 11l12 66q2 11 13 11h1q45 -6 83 -6q43 0 55.5 9.5t12.5 37.5q0 20 -35 20h-107q-11 0 -9 10v1l57 223q2 11 13 11h241q11 0 9 -11l-15 -81q-2 -11 -13 -11h-149z" />
    <glyph glyph-name="six.denominator" unicode="&#xf65b;" horiz-adv-x="369" 
d="M263 262q28 4 41 4q121 0 121 -93q0 -79 -50 -129t-133 -50q-61 0 -95.5 31.5t-34.5 84.5q0 20 2 30l22 125q27 149 180 149q64 0 119 -17q11 -3 9 -14l-12 -68q-1 -13 -14 -11q-44 7 -96 7q-29 0 -41.5 -8.5t-17.5 -37.5v-3zM248 180l-7 -40q-2 -9 -2 -23q0 -27 20 -27
q14 0 25.5 20.5t11.5 48.5q0 23 -21 23q-7 0 -16 -1t-11 -1z" />
    <glyph glyph-name="seven.denominator" unicode="&#xf65c;" horiz-adv-x="369" 
d="M436 312l-201 -301q-7 -11 -16 -11h-114q-12 0 -5 11l201 295h-138q-10 0 -9 11l15 81q2 11 13 11h268q11 0 9 -11l-8 -47q-3 -21 -15 -39z" />
    <glyph glyph-name="eight.denominator" unicode="&#xf65d;" horiz-adv-x="369" 
d="M238 -6q-65 0 -100.5 30t-35.5 81q0 68 60 106q-27 25 -27 67q0 136 177 136h7q68 0 101.5 -25.5t33.5 -67.5q0 -36 -17 -67.5t-38 -42.5q28 -26 28 -75q0 -61 -44.5 -101.5t-137.5 -40.5h-7zM284 252h7q14 0 25.5 10t11.5 32q0 26 -25 26h-7q-17 0 -27 -12.5t-10 -31.5
q0 -24 25 -24zM255 88h7q16 0 27 13t11 40q0 26 -24 26h-7q-19 0 -29.5 -15.5t-10.5 -37.5q0 -26 26 -26z" />
    <glyph glyph-name="nine.denominator" unicode="&#xf65e;" horiz-adv-x="369" 
d="M418 144q-26 -150 -181 -150q-66 0 -118 18q-11 3 -9 14l12 68q1 13 14 11q50 -8 95 -8q29 0 42 9t18 38v2q-28 -4 -41 -4q-120 0 -120 93q0 82 46 130.5t135 48.5q62 0 97 -28.5t35 -82.5q0 -16 -3 -34zM306 229l7 40q2 9 2 23q0 27 -20 27q-14 0 -26 -21t-12 -49
q0 -22 21 -22q18 0 28 2z" />
    <glyph glyph-name="zero.numerator" unicode="&#xf661;" horiz-adv-x="369" 
d="M431 508q-17 -97 -63.5 -138.5t-126.5 -41.5q-64 0 -97 35t-33 97q0 25 4 48l11 60q16 92 61.5 136t127.5 44q65 0 98.5 -33.5t33.5 -96.5q0 -20 -5 -50zM301 508l11 60q4 24 4 41q0 29 -20 29q-14 0 -22.5 -14t-16.5 -56l-11 -60q-5 -30 -5 -41q0 -28 20 -28
q14 0 23 13.5t17 55.5z" />
    <glyph glyph-name="one.numerator" unicode="&#xf662;" horiz-adv-x="277" 
d="M303 346q-4 -11 -13 -11h-117q-5 0 -7.5 3.5t-1.5 7.5l46 265l-60 -22q-6 -2 -7 -2q-4 0 -4 7l18 98q1 8 9 11l96 38q7 3 13 3h87q11 0 9 -11z" />
    <glyph glyph-name="two.numerator" unicode="&#xf663;" horiz-adv-x="367" 
d="M446 662q0 -90 -117 -151q-70 -38 -86 -61h146q15 0 13 -15l-15 -86q-3 -15 -19 -15h-259q-16 0 -13 15l10 59q20 105 131 171q13 8 26.5 16.5t21.5 13t12 7.5q11 7 11 17t-37 10t-103 -6h-1q-7 0 -10.5 5t-1.5 11l11 62q1 9 16 15q65 23 131 23q133 0 133 -91z" />
    <glyph glyph-name="three.numerator" unicode="&#xf664;" horiz-adv-x="366" 
d="M129 449h1q67 -5 114 -5q38 0 38 33q0 17 -22 17h-92q-16 0 -14 16l13 69q2 16 18 16h85q38 0 38 29q0 19 -29 19q-42 0 -112 -5h-1q-15 0 -12 15l10 59q1 9 4 12t13 7q50 22 128 22q136 0 136 -94q0 -13 -3 -26q-8 -53 -61 -86q32 -21 32 -66q0 -73 -48.5 -110
t-129.5 -37q-83 0 -127 24q-9 5 -8 13l11 63q3 15 18 15z" />
    <glyph glyph-name="four.numerator" unicode="&#xf665;" horiz-adv-x="369" 
d="M422 423q-2 -11 -13 -11h-28l-12 -67q-2 -11 -13 -11h-107q-11 0 -9 11l12 67h-148q-11 0 -9 11l13 72q1 7 8 15l224 230q3 3 8 3h5h76q11 0 9 -11l-40 -223h28q12 0 9 -11zM275 509l16 90l-86 -90h70z" />
    <glyph glyph-name="five.numerator" unicode="&#xf666;" horiz-adv-x="369" 
d="M272 640l-12 -45h29q126 0 126 -89q0 -85 -52 -131.5t-140 -46.5q-62 0 -110 21q-11 4 -10 11l12 66q2 11 13 11h1q45 -6 83 -6q43 0 55.5 9.5t12.5 37.5q0 20 -35 20h-107q-11 0 -9 10v1l57 223q2 11 13 11h241q11 0 9 -11l-15 -81q-2 -11 -13 -11h-149z" />
    <glyph glyph-name="six.numerator" unicode="&#xf667;" horiz-adv-x="369" 
d="M263 596q28 4 41 4q121 0 121 -93q0 -79 -50 -129t-133 -50q-61 0 -95.5 31.5t-34.5 84.5q0 20 2 30l22 125q27 149 180 149q64 0 119 -17q11 -3 9 -14l-12 -68q-1 -13 -14 -11q-44 7 -96 7q-29 0 -41.5 -8.5t-17.5 -37.5v-3zM248 514l-7 -40q-2 -9 -2 -23q0 -27 20 -27
q14 0 25.5 20.5t11.5 48.5q0 23 -21 23q-7 0 -16 -1t-11 -1z" />
    <glyph glyph-name="seven.numerator" unicode="&#xf668;" horiz-adv-x="369" 
d="M436 646l-201 -301q-7 -11 -16 -11h-114q-12 0 -5 11l201 295h-138q-10 0 -9 11l15 81q2 11 13 11h268q11 0 9 -11l-8 -47q-3 -21 -15 -39z" />
    <glyph glyph-name="eight.numerator" unicode="&#xf669;" horiz-adv-x="369" 
d="M238 328q-65 0 -100.5 30t-35.5 81q0 68 60 106q-27 25 -27 67q0 136 177 136h7q68 0 101.5 -25.5t33.5 -67.5q0 -36 -17 -67.5t-38 -42.5q28 -26 28 -75q0 -61 -44.5 -101.5t-137.5 -40.5h-7zM284 586h7q14 0 25.5 10t11.5 32q0 26 -25 26h-7q-17 0 -27 -12.5t-10 -31.5
q0 -24 25 -24zM255 422h7q16 0 27 13t11 40q0 26 -24 26h-7q-19 0 -29.5 -15.5t-10.5 -37.5q0 -26 26 -26z" />
    <glyph glyph-name="nine.numerator" unicode="&#xf66a;" horiz-adv-x="369" 
d="M418 478q-26 -150 -181 -150q-66 0 -118 18q-11 3 -9 14l12 68q1 13 14 11q50 -8 95 -8q29 0 42 9t18 38v2q-28 -4 -41 -4q-120 0 -120 93q0 82 46 130.5t135 48.5q62 0 97 -28.5t35 -82.5q0 -16 -3 -34zM306 563l7 40q2 9 2 23q0 27 -20 27q-14 0 -26 -21t-12 -49
q0 -22 21 -22q18 0 28 2z" />
    <glyph glyph-name="commaaccent" unicode="&#xf6c3;" horiz-adv-x="415" 
d="M135 -51h146q11 0 11 -9q0 -4 -3 -10l-76 -108q-12 -20 -25 -20h-112q-13 0 -13 9q0 3 2 11l46 108q8 19 24 19z" />
    <glyph glyph-name="one.fitted" unicode="&#xf6dc;" horiz-adv-x="516" 
d="M545 727v-4l-123 -703q-4 -20 -24 -20h-195q-16 0 -16 16v4l86 490l-108 -39q-7 -3 -13 -3q-7 0 -7 8v4l29 169q3 15 18 20l174 69q15 5 23 5h140q16 0 16 -16z" />
    <glyph glyph-name="a.superior" unicode="&#xf6e9;" horiz-adv-x="390" 
d="M349 681q69 0 128 -13q13 -3 16.5 -6.5t1.5 -13.5l-50 -288q-2 -11 -11 -11h-79q-13 0 -11 11l2 15q-36 -32 -83 -32q-44 0 -74 29.5t-30 81.5q0 18 4 38l7 41q14 84 59 116t120 32zM359 577q-14 2 -24 2q-18 0 -27.5 -9.5t-14.5 -36.5l-9 -51q-2 -12 -2 -16
q0 -22 21 -22q18 0 34 9z" />
    <glyph glyph-name="b.superior" unicode="&#xf6ea;" horiz-adv-x="362" 
d="M441 482q-12 -70 -59.5 -104.5t-118.5 -34.5q-56 0 -126 14q-23 5 -20 21l69 388q2 13 16 13h98q13 0 11 -13l-16 -88q21 3 28 3q74 0 106.5 -43.5t19.5 -112.5zM316 491l8 43q5 22 1 32.5t-21 10.5q-11 0 -27 -2l-22 -126q8 -1 26 -1q16 0 23 8.5t12 34.5z" />
    <glyph glyph-name="d.superior" unicode="&#xf6eb;" horiz-adv-x="359" 
d="M413 378q-3 -17 -28 -21q-73 -14 -130 -14q-68 0 -103 46t-21 118l8 43q24 131 160 131q21 0 42 -3l16 88q2 13 15 13h98q14 0 12 -13zM301 449l20 126l-26 2q-27 0 -34 -43l-8 -43q-5 -19 -1 -31t21 -12q10 0 28 1z" />
    <glyph glyph-name="e.superior" unicode="&#xf6ec;" horiz-adv-x="351" 
d="M429 492q-2 -14 -16 -14h-163q-1 -3 -1 -9q0 -13 9 -17.5t32 -4.5q63 0 105 4q11 0 10 -12l-10 -57q-2 -13 -14 -18q-57 -21 -130 -21q-55 0 -89.5 33t-34.5 92q0 18 3 37l6 33q26 143 174 143q127 0 127 -122q0 -24 -4 -44zM298 586q-29 0 -37 -42h58q2 14 2 19
q0 23 -23 23z" />
    <glyph glyph-name="i.superior" unicode="&#xf6ed;" horiz-adv-x="186" 
d="M240 363q-2 -8 -5 -11t-12 -3h-98q-16 0 -12 14l52 299q3 14 18 14h98q15 0 11 -14zM304 710q-4 -14 -18 -14h-103q-15 0 -12 14l10 56q2 13 17 13h103q15 0 13 -13z" />
    <glyph glyph-name="l.superior" unicode="&#xf6ee;" horiz-adv-x="185" 
d="M240 363q-3 -14 -17 -14h-99q-14 0 -11 14l71 403q2 13 16 13h99q14 0 12 -13z" />
    <glyph glyph-name="m.superior" unicode="&#xf6ef;" horiz-adv-x="527" 
d="M572 363q-3 -14 -16 -14h-99q-14 0 -11 14l32 187q1 5 1 9q0 13 -15 13q-10 0 -22 -2q-1 -11 -3 -20l-32 -187q-2 -14 -17 -14h-99q-13 0 -11 14l32 187q1 5 1 10q0 12 -15 12q-11 0 -21 -2l-36 -207q-2 -14 -16 -14h-99q-14 0 -11 14l52 300q2 8 4.5 10.5t11.5 2.5h90
q12 0 10 -13l-2 -13q42 31 92 31q48 0 63 -32q39 32 90 32q82 0 82 -87q0 -23 -4 -44z" />
    <glyph glyph-name="o.superior" unicode="&#xf6f0;" horiz-adv-x="354" 
d="M433 488q-26 -145 -175 -145q-63 0 -96.5 33t-33.5 94q0 18 3 41l4 25q23 145 176 145q63 0 96.5 -33t33.5 -94q0 -11 -4 -41zM310 500l4 25q3 15 3 25q0 27 -21 27q-28 0 -37 -52l-4 -25q-3 -16 -3 -26q0 -26 21 -26q27 0 37 52z" />
    <glyph glyph-name="r.superior" unicode="&#xf6f1;" horiz-adv-x="247" 
d="M356 591q-3 -13 -16 -13h-10q-33 0 -54 -8l-36 -207q-3 -14 -16 -14h-99q-12 0 -10 14l52 300q4 13 15 13h90q12 0 10 -13l-2 -12q38 30 76 30h3q12 0 10 -13z" />
    <glyph glyph-name="s.superior" unicode="&#xf6f2;" horiz-adv-x="307" 
d="M252 452q0 6 -10 12l-44 24q-52 29 -52 87q0 55 35.5 80.5t111.5 25.5q55 0 102 -15q12 -4 11 -13l-13 -71q-2 -15 -16 -13q-72 9 -96 9q-9 0 -9 -4q0 -3 5 -6l36 -20q63 -34 63 -86q0 -119 -157 -119q-57 0 -100 15q-11 3 -9 14l12 68q2 16 19 14q68 -10 96 -10
q15 0 15 8z" />
    <glyph glyph-name="t.superior" unicode="&#xf6f3;" horiz-adv-x="239" 
d="M355 596q-2 -14 -17 -14h-37l-20 -115q-4 -21 -4 -24q0 -6 10 -6h24q14 0 11 -14l-10 -60q-2 -10 -17 -14q-24 -6 -58 -6q-88 0 -88 87q0 10 4 36l21 117l-27 5q-12 2 -11 14l10 60q2 14 17 14h28l7 43q2 11 17 13l98 16q9 1 13 -2t2 -10l-10 -60h37q13 0 11 -14z" />
    <glyph glyph-name="zero.oldstyle" unicode="&#xf730;" 
d="M676 307q-30 -168 -112 -242.5t-231 -74.5q-113 0 -176 61t-63 174q0 36 8 82l1 9q31 172 113.5 245.5t229.5 73.5q111 0 175 -61.5t64 -175.5q0 -36 -8 -82zM439 307l1 9q7 39 7 67q0 30 -9 40.5t-27 10.5q-25 0 -41.5 -24t-29.5 -94l-1 -9q-7 -39 -7 -67q0 -29 9 -39
t27 -10q26 0 42.5 23t28.5 93z" />
    <glyph glyph-name="one.oldstyle" unicode="&#xf731;" horiz-adv-x="464" 
d="M503 605l-101 -585q-4 -20 -24 -20h-194q-9 0 -13.5 6t-2.5 14l63 372l-127 -39q-9 -3 -13 -3q-9 0 -8 12l30 169q3 15 18 20l193 69q13 5 23 5h140q8 0 13 -6t3 -14z" />
    <glyph glyph-name="two.oldstyle" unicode="&#xf732;" 
d="M572 0h-486q-21 0 -18 20l19 110q21 117 77.5 176t174.5 88q95 23 97 24q10 5 10 16q0 14 -81 14q-68 0 -194 -10h-1q-7 0 -10 1t-5 5.5t-1 13.5l21 115q1 12 23 20q117 42 244 42q119 0 181 -41t62 -119q0 -88 -51.5 -145.5t-145.5 -77.5q-82 -17 -113.5 -26.5
t-48.5 -26.5h281q8 0 13 -6t4 -14l-28 -159q-4 -20 -24 -20z" />
    <glyph glyph-name="three.oldstyle" unicode="&#xf733;" 
d="M682 469q0 -75 -30 -123.5t-97 -86.5q67 -47 67 -130q0 -71 -26 -122.5t-72 -80t-101.5 -41.5t-122.5 -13q-62 0 -130.5 13t-98.5 28q-17 10 -17 17v3l20 116q4 20 24 20h1q25 0 102 -5t112 -5q83 0 83 69q0 43 -50 43h-173q-7 0 -12 5t-5 12v3l23 129q4 20 24 20h161
q35 0 58 17.5t23 51.5q0 39 -63 39q-35 0 -110.5 -5t-100.5 -5h-1q-16 0 -16 16v3v1l20 116q2 9 25 20q36 15 105.5 28t130.5 13q247 0 247 -166z" />
    <glyph glyph-name="four.oldstyle" unicode="&#xf734;" 
d="M669 619v-4l-71 -404h50q17 0 17 -17v-3l-24 -137q-4 -20 -24 -20h-50l-21 -122q-4 -20 -24 -20h-195q-16 0 -16 16v4l21 122h-268q-16 0 -16 16v4l22 130q3 14 15 28l406 418q5 5 14 5h9h139q16 0 16 -16zM403 373l-157 -162h128z" />
    <glyph glyph-name="five.oldstyle" unicode="&#xf735;" 
d="M688 606v-1l-25 -147q-4 -20 -24 -20h-272l-21 -81h45q127 0 181.5 -51.5t54.5 -128.5q0 -305 -348 -305q-113 0 -201 37q-18 7 -18 17v3l21 120q4 20 22 20h3q114 -10 160 -10q59 0 88 15t29 65q0 21 -16 31t-56 10h-184q-19 0 -19 19q0 4 1 6l100 400q5 20 24 20h439
q16 0 16 -16v-3z" />
    <glyph glyph-name="six.oldstyle" unicode="&#xf736;" 
d="M705 703q0 -1 -0.5 -3.5t-0.5 -3.5l-22 -124q-3 -20 -22 -20h-5q-107 14 -184 14q-50 0 -68 -15t-29 -69l-1 -5q45 7 75 7q102 0 160.5 -42t58.5 -132q0 -155 -85 -237.5t-244 -82.5q-117 0 -178 61.5t-61 153.5q0 26 4 49l40 228q47 271 328 271q119 0 216 -31
q18 -6 18 -19zM435 288q0 42 -39 42q-19 0 -49 -3l-13 -73q-4 -23 -4 -42q0 -49 37 -49q68 0 68 125z" />
    <glyph glyph-name="seven.oldstyle" unicode="&#xf737;" horiz-adv-x="578" 
d="M639 609v-4l-19 -111q-3 -17 -20 -44l-345 -548q-12 -20 -24 -20h-213q-14 0 -14 7q0 5 5 13l344 536h-230q-17 0 -17 17v3l25 147q1 8 9 14t16 6h467q16 0 16 -16z" />
    <glyph glyph-name="eight.oldstyle" unicode="&#xf738;" 
d="M716 573q0 -123 -100 -189q51 -48 51 -125q0 -68 -27 -121t-73 -84.5t-103.5 -47.5t-123.5 -16h-12q-123 0 -187.5 57t-64.5 135q0 125 110 202q-48 45 -48 117q0 252 320 252h12q125 0 185.5 -52t60.5 -128zM487 533q0 49 -45 49h-12q-33 0 -50.5 -21.5t-17.5 -57.5
q0 -44 46 -44h12q67 0 67 74zM438 257q0 46 -46 46h-12q-35 0 -53.5 -28.5t-18.5 -66.5q0 -22 12.5 -35t34.5 -13h12q36 0 53.5 29.5t17.5 67.5z" />
    <glyph glyph-name="nine.oldstyle" unicode="&#xf739;" 
d="M677 420q0 -26 -4 -49l-40 -228q-47 -271 -328 -271q-119 0 -216 31q-18 6 -18 19q0 1 0.5 3.5t0.5 3.5l22 124q3 20 22 20h5q107 -14 184 -14q50 0 68 15t29 69l1 5q-45 -7 -75 -7q-102 0 -160.5 42t-58.5 132q0 155 85 237.5t244 82.5q117 0 178 -61.5t61 -153.5z
M446 413q0 49 -37 49q-68 0 -68 -125q0 -42 39 -42q19 0 49 3l13 73q4 23 4 42z" />
    </font>
</defs>
</svg>
